<svg width="390" height="198" viewBox="0 0 390 198" fill="none" xmlns="http://www.w3.org/2000/svg">
<rect x="-39" width="465" height="198" fill="black"/>
<path d="M293.34 49C292.757 49 292.282 48.9406 291.915 48.8219C291.549 48.7032 291.257 48.5152 291.04 48.2579V48.4063C291.04 49.1484 290.822 49.7817 290.387 50.3061C289.961 50.8404 289.387 51.1966 288.665 51.3747L285.029 52.2653V51.1818L286.884 50.7068C287.329 50.5881 287.651 50.4001 287.849 50.1428C288.047 49.8856 288.146 49.5294 288.146 49.0742V40.9852L291.114 40.2431V45.9574C291.114 46.5708 291.317 47.0606 291.723 47.4267C292.138 47.7829 292.727 47.961 293.489 47.961H294.973V49H293.34ZM304.328 49C303.566 49 302.879 48.7922 302.265 48.3766C301.662 47.9512 301.256 47.402 301.048 46.7291C300.642 47.4416 300.073 48.0006 299.341 48.4063C298.619 48.8021 297.807 49 296.907 49H294.28V47.961H296.907C297.57 47.961 298.07 47.8176 298.406 47.5306C298.743 47.2437 298.911 46.8182 298.911 46.2542V41.5789L301.879 40.8368V45.5121C301.879 45.9574 301.993 46.368 302.221 46.744C302.458 47.12 302.775 47.4168 303.17 47.6345C303.566 47.8522 304.002 47.961 304.477 47.961H305.738V49H304.328ZM302.399 38.0168V39.3526H295.868V38.0168H302.399ZM312.493 42.7663C311.84 42.7663 311.33 42.9246 310.964 43.2412C310.598 43.548 310.415 43.9833 310.415 44.5474V47.961H316.129V42.7663H312.493ZM312.33 52.2653C311.588 52.2653 310.86 52.1119 310.148 51.8052C309.445 51.5083 308.852 51.1076 308.367 50.603C307.892 50.0983 307.61 49.564 307.521 49H305.042V47.961H307.521V46.551C307.521 45.7199 307.749 44.9332 308.204 44.1911C308.669 43.449 309.282 42.8553 310.044 42.4101C310.816 41.9549 311.632 41.7273 312.493 41.7273H319.024V47.961H322.957V49H320.434C320.335 49.5739 320.048 50.1082 319.573 50.603C319.098 51.1076 318.509 51.5083 317.807 51.8052C317.114 52.1119 316.402 52.2653 315.669 52.2653H312.33ZM310.415 49.5195C310.415 50.6772 311.053 51.256 312.33 51.256H315.669C316.322 51.256 316.822 51.1076 317.168 50.8107C317.515 50.5139 317.688 50.0835 317.688 49.5195V49H310.415V49.5195ZM322.255 47.961H325.772C327.108 47.961 327.776 47.397 327.776 46.269V41.0298L330.744 40.3173V44.2505C330.744 45.1114 330.522 45.9079 330.076 46.6401C329.631 47.3624 329.028 47.9363 328.266 48.3618C327.504 48.7873 326.673 49 325.772 49H322.255V47.961ZM326.96 50.6326V52.4137H324.288V50.6326H326.96ZM344.558 49C344.558 49.5046 344.39 49.9796 344.054 50.4248C343.717 50.8701 343.267 51.2263 342.703 51.4935C342.149 51.7606 341.555 51.8942 340.922 51.8942H336.469C335.608 51.8942 334.807 51.6716 334.065 51.2263C333.333 50.791 332.744 50.2022 332.299 49.4601C331.863 48.718 331.646 47.9215 331.646 47.0705V43.9537L334.614 43.2116V49.1633C334.614 49.7075 334.772 50.1231 335.089 50.41C335.416 50.7068 335.876 50.8553 336.469 50.8553H339.809C340.472 50.8553 340.957 50.7217 341.263 50.4545C341.58 50.1973 341.738 49.7866 341.738 49.2226V49H338.028L338.399 47.961H344.558V49ZM347.429 47.961C348.023 47.961 348.478 47.8126 348.795 47.5158C349.121 47.2189 349.285 46.7984 349.285 46.2542V43.8795L341.047 40.6884V39.3526L350.843 36.681L351.734 39.4268L344.684 41.0594L350.324 43.0631C350.838 43.2511 351.234 43.454 351.511 43.6717C351.788 43.8893 351.981 44.1714 352.09 44.5177C352.199 44.8541 352.253 45.3092 352.253 45.8831V47.0705C352.253 47.4168 352.159 47.7384 351.971 48.0353C351.783 48.3321 351.531 48.5696 351.214 48.7477C350.898 48.9159 350.551 49 350.175 49H341.389V47.961H347.429Z" fill="white"/>
<path opacity="0.85" d="M211.465 43.216C211.465 43.608 211.553 43.904 211.729 44.104C211.913 44.296 212.205 44.392 212.605 44.392C213.029 44.392 213.361 44.316 213.601 44.164C213.849 44.004 213.973 43.792 213.973 43.528V41.788H212.809C212.385 41.788 212.053 41.912 211.813 42.16C211.581 42.408 211.465 42.76 211.465 43.216ZM214.969 43.78C214.969 44.196 215.041 44.5 215.185 44.692C215.337 44.884 215.557 44.98 215.845 44.98H216.133C216.173 44.98 216.201 45.016 216.217 45.088C216.241 45.152 216.253 45.292 216.253 45.508C216.253 45.716 216.241 45.852 216.217 45.916C216.201 45.972 216.173 46 216.133 46H215.845C215.413 46 215.061 45.908 214.789 45.724C214.517 45.532 214.333 45.24 214.237 44.848C214.069 45.04 213.833 45.184 213.529 45.28C213.225 45.368 212.897 45.412 212.545 45.412C211.873 45.412 211.357 45.232 210.997 44.872C210.645 44.504 210.469 43.96 210.469 43.24C210.469 42.8 210.565 42.392 210.757 42.016C210.957 41.64 211.233 41.344 211.585 41.128C211.945 40.912 212.353 40.804 212.809 40.804H213.973V39.976H214.969V43.78ZM219.094 43.996C219.094 44.628 218.918 45.12 218.566 45.472C218.214 45.824 217.738 46 217.138 46H215.89C215.81 46 215.77 45.836 215.77 45.508C215.77 45.292 215.782 45.152 215.806 45.088C215.83 45.016 215.858 44.98 215.89 44.98H217.138C217.434 44.98 217.67 44.9 217.846 44.74C218.022 44.572 218.11 44.332 218.11 44.02V42.148H219.094V43.996ZM217.27 40.696V39.7H218.518V40.696H217.27ZM223.074 44.98C223.106 44.98 223.134 45.016 223.158 45.088C223.182 45.152 223.194 45.292 223.194 45.508C223.194 45.716 223.182 45.852 223.158 45.916C223.134 45.972 223.106 46 223.074 46H222.762C222.154 46 221.69 45.82 221.37 45.46C221.058 45.092 220.902 44.572 220.902 43.9V38.236H221.898V43.852C221.898 44.228 221.974 44.512 222.126 44.704C222.278 44.888 222.506 44.98 222.81 44.98H223.074ZM223.68 44.98C224.296 44.98 224.808 44.936 225.216 44.848C225.632 44.752 226.036 44.592 226.428 44.368L228.24 43.312C228.12 42.896 227.944 42.608 227.712 42.448C227.488 42.288 227.16 42.208 226.728 42.208H223.944L224.04 41.188H226.884C227.372 41.188 227.768 41.264 228.072 41.416C228.384 41.568 228.644 41.824 228.852 42.184C229.06 42.536 229.24 43.024 229.392 43.648L226.884 45.184C226.396 45.488 225.912 45.7 225.432 45.82C224.952 45.94 224.356 46 223.644 46H222.828C222.748 46 222.708 45.836 222.708 45.508C222.708 45.292 222.72 45.152 222.744 45.088C222.768 45.016 222.796 44.98 222.828 44.98H223.68ZM225.408 39.796V38.8H226.656V39.796H225.408Z" fill="white"/>
<path opacity="0.85" d="M131.887 44.98C131.919 44.98 131.947 45.016 131.971 45.088C131.995 45.152 132.007 45.292 132.007 45.508C132.007 45.716 131.995 45.852 131.971 45.916C131.947 45.972 131.919 46 131.887 46H131.575C130.967 46 130.503 45.82 130.183 45.46C129.871 45.092 129.715 44.572 129.715 43.9V38.236H130.711V43.852C130.711 44.228 130.787 44.512 130.939 44.704C131.091 44.888 131.319 44.98 131.623 44.98H131.887ZM135.061 41.224C135.773 41.224 136.321 41.432 136.705 41.848C137.089 42.256 137.281 42.852 137.281 43.636V43.696C137.281 44.416 137.081 44.98 136.681 45.388C136.281 45.796 135.729 46 135.025 46C134.609 46 134.261 45.936 133.981 45.808C133.701 45.68 133.489 45.492 133.345 45.244C133.209 45.508 133.029 45.7 132.805 45.82C132.581 45.94 132.285 46 131.917 46H131.641C131.561 46 131.521 45.836 131.521 45.508C131.521 45.292 131.533 45.152 131.557 45.088C131.581 45.016 131.609 44.98 131.641 44.98H131.917C132.205 44.98 132.421 44.916 132.565 44.788C132.709 44.66 132.781 44.464 132.781 44.2V43.696C132.781 42.92 132.981 42.316 133.381 41.884C133.789 41.444 134.349 41.224 135.061 41.224ZM135.025 42.208C134.601 42.208 134.285 42.328 134.077 42.568C133.869 42.808 133.765 43.172 133.765 43.66V43.72C133.765 44.12 133.873 44.432 134.089 44.656C134.313 44.872 134.625 44.98 135.025 44.98C135.441 44.98 135.753 44.872 135.961 44.656C136.177 44.44 136.285 44.12 136.285 43.696V43.636C136.285 43.156 136.181 42.8 135.973 42.568C135.773 42.328 135.457 42.208 135.025 42.208ZM138.719 44.02C138.719 43.708 138.771 43.404 138.875 43.108C138.979 42.812 139.147 42.5 139.379 42.172C139.611 41.836 139.923 41.464 140.315 41.056L139.787 40.516L140.483 39.784C141.259 40.496 141.847 41.084 142.247 41.548C142.655 42.004 142.935 42.408 143.087 42.76C143.247 43.112 143.327 43.484 143.327 43.876C143.327 44.308 143.227 44.696 143.027 45.04C142.827 45.376 142.547 45.64 142.187 45.832C141.827 46.024 141.407 46.12 140.927 46.12C140.255 46.12 139.719 45.936 139.319 45.568C138.919 45.192 138.719 44.676 138.719 44.02ZM142.331 43.876C142.331 43.644 142.287 43.424 142.199 43.216C142.119 43.008 141.983 42.784 141.791 42.544C141.599 42.296 141.331 42.012 140.987 41.692C140.523 42.164 140.195 42.572 140.003 42.916C139.811 43.26 139.715 43.608 139.715 43.96C139.715 44.312 139.823 44.592 140.039 44.8C140.263 45 140.571 45.1 140.963 45.1C141.235 45.1 141.475 45.048 141.683 44.944C141.891 44.832 142.051 44.688 142.163 44.512C142.275 44.328 142.331 44.116 142.331 43.876ZM146.716 45.652C146.716 46.324 146.584 46.904 146.32 47.392C146.056 47.888 145.688 48.268 145.216 48.532C144.744 48.796 144.2 48.928 143.584 48.928H142.744L142.648 47.908H143.56C144.24 47.908 144.772 47.708 145.156 47.308C145.54 46.908 145.732 46.356 145.732 45.652V42.148H146.716V45.652ZM150.702 44.98C150.734 44.98 150.762 45.016 150.786 45.088C150.81 45.152 150.822 45.292 150.822 45.508C150.822 45.716 150.81 45.852 150.786 45.916C150.762 45.972 150.734 46 150.702 46H150.39C149.782 46 149.318 45.82 148.998 45.46C148.686 45.092 148.53 44.572 148.53 43.9V38.236H149.526V43.852C149.526 44.228 149.602 44.512 149.754 44.704C149.906 44.888 150.134 44.98 150.438 44.98H150.702ZM153.661 43.996C153.661 44.628 153.485 45.12 153.133 45.472C152.781 45.824 152.305 46 151.705 46H150.457C150.377 46 150.337 45.836 150.337 45.508C150.337 45.292 150.349 45.152 150.373 45.088C150.397 45.016 150.425 44.98 150.457 44.98H151.705C152.001 44.98 152.237 44.9 152.413 44.74C152.589 44.572 152.677 44.332 152.677 44.02V42.148H153.661V43.996ZM150.793 48.52V47.524H152.041V48.52H150.793ZM157.059 45.652C157.059 46.324 156.927 46.904 156.663 47.392C156.399 47.888 156.031 48.268 155.559 48.532C155.087 48.796 154.543 48.928 153.927 48.928H153.591L153.495 47.908H153.903C154.583 47.908 155.115 47.708 155.499 47.308C155.883 46.908 156.075 46.356 156.075 45.652V42.148H157.059V45.652ZM161.009 39.964L163.313 42.604C163.569 42.908 163.753 43.188 163.865 43.444C163.977 43.7 164.033 43.964 164.033 44.236C164.033 44.764 163.853 45.192 163.493 45.52C163.133 45.84 162.629 46 161.981 46H158.513L158.429 44.98H161.981C162.325 44.98 162.589 44.912 162.773 44.776C162.957 44.632 163.049 44.448 163.049 44.224C163.049 44.08 163.009 43.932 162.929 43.78C162.857 43.628 162.733 43.448 162.557 43.24L160.301 40.66L161.009 39.964Z" fill="white"/>
<path opacity="0.85" d="M43.6989 44.98C43.7309 44.98 43.7589 45.016 43.7829 45.088C43.8069 45.152 43.8189 45.292 43.8189 45.508C43.8189 45.716 43.8069 45.852 43.7829 45.916C43.7589 45.972 43.7309 46 43.6989 46H43.3869C42.7789 46 42.3149 45.82 41.9949 45.46C41.6829 45.092 41.5269 44.572 41.5269 43.9V38.236H42.5229V43.852C42.5229 44.228 42.5989 44.512 42.7509 44.704C42.9029 44.888 43.1309 44.98 43.4349 44.98H43.6989ZM46.873 41.224C47.585 41.224 48.133 41.432 48.517 41.848C48.901 42.256 49.093 42.852 49.093 43.636V43.696C49.093 44.416 48.893 44.98 48.493 45.388C48.093 45.796 47.541 46 46.837 46C46.421 46 46.073 45.936 45.793 45.808C45.513 45.68 45.301 45.492 45.157 45.244C45.021 45.508 44.841 45.7 44.617 45.82C44.393 45.94 44.097 46 43.729 46H43.453C43.373 46 43.333 45.836 43.333 45.508C43.333 45.292 43.345 45.152 43.369 45.088C43.393 45.016 43.421 44.98 43.453 44.98H43.729C44.017 44.98 44.233 44.916 44.377 44.788C44.521 44.66 44.593 44.464 44.593 44.2V43.696C44.593 42.92 44.793 42.316 45.193 41.884C45.601 41.444 46.161 41.224 46.873 41.224ZM46.837 42.208C46.413 42.208 46.097 42.328 45.889 42.568C45.681 42.808 45.577 43.172 45.577 43.66V43.72C45.577 44.12 45.685 44.432 45.901 44.656C46.125 44.872 46.437 44.98 46.837 44.98C47.253 44.98 47.565 44.872 47.773 44.656C47.989 44.44 48.097 44.12 48.097 43.696V43.636C48.097 43.156 47.993 42.8 47.785 42.568C47.585 42.328 47.269 42.208 46.837 42.208ZM53.0626 44.98C53.0946 44.98 53.1226 45.016 53.1466 45.088C53.1706 45.152 53.1826 45.292 53.1826 45.508C53.1826 45.716 53.1706 45.852 53.1466 45.916C53.1226 45.972 53.0946 46 53.0626 46H52.7506C52.1426 46 51.6786 45.82 51.3586 45.46C51.0466 45.092 50.8906 44.572 50.8906 43.9V38.236H51.8866V43.852C51.8866 44.228 51.9626 44.512 52.1146 44.704C52.2666 44.888 52.4946 44.98 52.7986 44.98H53.0626ZM56.0207 43.996C56.0207 44.628 55.8447 45.12 55.4927 45.472C55.1407 45.824 54.6647 46 54.0647 46H52.8167C52.7367 46 52.6967 45.836 52.6967 45.508C52.6967 45.292 52.7087 45.152 52.7327 45.088C52.7567 45.016 52.7847 44.98 52.8167 44.98H54.0647C54.3607 44.98 54.5967 44.9 54.7727 44.74C54.9487 44.572 55.0367 44.332 55.0367 44.02V42.148H56.0207V43.996ZM53.1527 48.52V47.524H54.4007V48.52H53.1527ZM62.008 43.36C62.52 42.584 63.02 42.024 63.508 41.68C63.996 41.328 64.492 41.152 64.996 41.152C65.428 41.152 65.816 41.252 66.16 41.452C66.504 41.652 66.772 41.936 66.964 42.304C67.156 42.672 67.252 43.096 67.252 43.576C67.252 44.056 67.148 44.48 66.94 44.848C66.74 45.208 66.448 45.492 66.064 45.7C65.688 45.9 65.248 46 64.744 46H60.088L60.004 44.98H61.024V38.236H62.008V43.36ZM64.744 44.98C65.224 44.98 65.596 44.852 65.86 44.596C66.132 44.34 66.268 44 66.268 43.576C66.268 43.288 66.208 43.036 66.088 42.82C65.976 42.604 65.816 42.436 65.608 42.316C65.4 42.196 65.172 42.136 64.924 42.136C64.468 42.136 64.004 42.364 63.532 42.82C63.06 43.268 62.528 43.988 61.936 44.98H64.744ZM71.2276 44.98C71.2596 44.98 71.2876 45.016 71.3116 45.088C71.3356 45.152 71.3476 45.292 71.3476 45.508C71.3476 45.716 71.3356 45.852 71.3116 45.916C71.2876 45.972 71.2596 46 71.2276 46H70.9156C70.3076 46 69.8436 45.82 69.5236 45.46C69.2116 45.092 69.0556 44.572 69.0556 43.9V38.236H70.0516V43.852C70.0516 44.228 70.1276 44.512 70.2796 44.704C70.4316 44.888 70.6596 44.98 70.9636 44.98H71.2276ZM72.4217 44.98C72.7337 44.98 72.9817 44.9 73.1657 44.74C73.3497 44.58 73.4417 44.364 73.4417 44.092V42.148H74.4257V44.056C74.4257 44.36 74.5097 44.592 74.6777 44.752C74.8457 44.904 75.0857 44.98 75.3977 44.98H75.7337C75.8137 44.98 75.8537 45.152 75.8537 45.496C75.8537 45.832 75.8137 46 75.7337 46H75.3617C75.0097 46 74.7097 45.944 74.4617 45.832C74.2217 45.712 74.0417 45.532 73.9217 45.292C73.7857 45.532 73.5897 45.712 73.3337 45.832C73.0777 45.944 72.7737 46 72.4217 46H70.9817C70.9017 46 70.8617 45.836 70.8617 45.508C70.8617 45.292 70.8737 45.152 70.8977 45.088C70.9217 45.016 70.9497 44.98 70.9817 44.98H72.4217ZM70.8857 48.52V47.524H72.1337V48.52H70.8857ZM78.7035 43.996C78.7035 44.628 78.5275 45.12 78.1755 45.472C77.8235 45.824 77.3475 46 76.7475 46H75.4995C75.4195 46 75.3795 45.836 75.3795 45.508C75.3795 45.292 75.3915 45.152 75.4155 45.088C75.4395 45.016 75.4675 44.98 75.4995 44.98H76.7475C77.0435 44.98 77.2795 44.9 77.4555 44.74C77.6315 44.572 77.7195 44.332 77.7195 44.02V42.148H78.7035V43.996ZM77.4435 40.696V39.748H79.0875V40.696H77.4435ZM75.9195 40.696V39.748H77.5635V40.696H75.9195ZM82.102 45.652C82.102 46.324 81.97 46.904 81.706 47.392C81.442 47.888 81.074 48.268 80.602 48.532C80.13 48.796 79.586 48.928 78.97 48.928H78.13L78.034 47.908H78.946C79.626 47.908 80.158 47.708 80.542 47.308C80.926 46.908 81.118 46.356 81.118 45.652V42.148H82.102V45.652ZM83.9159 38.236H84.9119V46H83.9159V38.236Z" fill="white"/>
<path d="M204.199 94.235C204.415 94.235 204.589 94.175 204.721 94.055C204.859 93.935 204.928 93.776 204.928 93.578V92.111H205.666V93.587C205.666 94.025 205.531 94.37 205.261 94.622C204.997 94.874 204.643 95 204.199 95H200.977C200.455 95 200.059 94.862 199.789 94.586C199.519 94.31 199.384 93.929 199.384 93.443V92.111H200.131V93.344C200.131 93.632 200.2 93.854 200.338 94.01C200.482 94.16 200.71 94.235 201.022 94.235H204.199ZM202.471 91.175V90.464H203.704V91.175H202.471ZM201.328 91.175V90.464H202.561V91.175H201.328ZM208.221 94.739C208.221 95.243 208.122 95.678 207.924 96.044C207.726 96.416 207.45 96.701 207.096 96.899C206.742 97.097 206.334 97.196 205.872 97.196H205.242L205.17 96.431H205.854C206.364 96.431 206.763 96.281 207.051 95.981C207.339 95.681 207.483 95.267 207.483 94.739V92.111H208.221V94.739ZM211.211 94.235C211.235 94.235 211.256 94.262 211.274 94.316C211.292 94.364 211.301 94.469 211.301 94.631C211.301 94.787 211.292 94.889 211.274 94.937C211.256 94.979 211.235 95 211.211 95H210.977C210.521 95 210.173 94.865 209.933 94.595C209.699 94.319 209.582 93.929 209.582 93.425V89.177H210.329V93.389C210.329 93.671 210.386 93.884 210.5 94.028C210.614 94.166 210.785 94.235 211.013 94.235H211.211ZM215.229 93.479C215.295 93.689 215.364 93.848 215.436 93.956C215.508 94.058 215.598 94.13 215.706 94.172C215.82 94.214 215.973 94.235 216.165 94.235H216.741C216.801 94.235 216.831 94.367 216.831 94.631C216.831 94.787 216.822 94.889 216.804 94.937C216.786 94.979 216.765 95 216.741 95H216.138C215.862 95 215.634 94.964 215.454 94.892C215.274 94.82 215.115 94.697 214.977 94.523C214.845 94.349 214.719 94.103 214.599 93.785L215.229 93.479ZM211.665 94.235C212.127 94.235 212.511 94.202 212.817 94.136C213.129 94.064 213.432 93.944 213.726 93.776L215.085 92.984C214.995 92.672 214.863 92.456 214.689 92.336C214.521 92.216 214.275 92.156 213.951 92.156H211.863L211.935 91.391H214.068C214.434 91.391 214.731 91.448 214.959 91.562C215.193 91.676 215.388 91.868 215.544 92.138C215.7 92.402 215.835 92.768 215.949 93.236L214.068 94.388C213.702 94.616 213.339 94.775 212.979 94.865C212.619 94.955 212.172 95 211.638 95H211.026C210.966 95 210.936 94.877 210.936 94.631C210.936 94.469 210.945 94.364 210.963 94.316C210.981 94.262 211.002 94.235 211.026 94.235H211.665ZM212.628 96.89V96.143H213.564V96.89H212.628ZM218.962 93.497C218.962 93.971 218.83 94.34 218.566 94.604C218.302 94.868 217.945 95 217.495 95H216.559C216.499 95 216.469 94.877 216.469 94.631C216.469 94.469 216.478 94.364 216.496 94.316C216.514 94.262 216.535 94.235 216.559 94.235H217.495C217.717 94.235 217.894 94.175 218.026 94.055C218.158 93.929 218.224 93.749 218.224 93.515V92.111H218.962V93.497ZM218.017 91.022V90.311H219.25V91.022H218.017ZM216.874 91.022V90.311H218.107V91.022H216.874ZM225.586 94.811C225.586 95.279 225.487 95.693 225.289 96.053C225.097 96.419 224.824 96.701 224.47 96.899C224.122 97.097 223.714 97.196 223.246 97.196H222.157L222.085 96.431H223.246C223.57 96.431 223.852 96.371 224.092 96.251C224.332 96.137 224.515 95.975 224.641 95.765C224.773 95.555 224.839 95.315 224.839 95.045V95H223.975C223.387 95 222.946 94.868 222.652 94.604C222.364 94.34 222.22 93.941 222.22 93.407V93.362C222.22 92.984 222.289 92.648 222.427 92.354C222.571 92.06 222.772 91.832 223.03 91.67C223.288 91.502 223.579 91.418 223.903 91.418C224.425 91.418 224.836 91.595 225.136 91.949C225.436 92.297 225.586 92.783 225.586 93.407V94.811ZM222.958 93.362C222.958 93.68 223.033 93.905 223.183 94.037C223.339 94.169 223.603 94.235 223.975 94.235H224.839V93.407C224.839 93.005 224.755 92.696 224.587 92.48C224.425 92.264 224.188 92.156 223.876 92.156C223.6 92.156 223.378 92.261 223.21 92.471C223.042 92.681 222.958 92.963 222.958 93.317V93.362ZM230.737 94.235C230.959 94.235 231.133 94.19 231.259 94.1C231.385 94.004 231.448 93.875 231.448 93.713C231.448 93.599 231.412 93.452 231.34 93.272L230.449 90.752L231.133 90.437L232.186 93.47C232.288 93.752 232.396 93.95 232.51 94.064C232.63 94.178 232.798 94.235 233.014 94.235H233.203C233.263 94.235 233.293 94.367 233.293 94.631C233.293 94.787 233.284 94.889 233.266 94.937C233.248 94.979 233.227 95 233.203 95H232.987C232.711 95 232.483 94.955 232.303 94.865C232.123 94.769 231.979 94.625 231.871 94.433C231.775 94.625 231.634 94.769 231.448 94.865C231.262 94.955 231.025 95 230.737 95H228.631L228.568 94.235H230.737ZM235.187 94.235C235.409 94.235 235.586 94.175 235.718 94.055C235.85 93.929 235.916 93.749 235.916 93.515V92.111H236.654V93.497C236.654 93.971 236.519 94.34 236.249 94.604C235.985 94.868 235.631 95 235.187 95H233.018C232.958 95 232.928 94.877 232.928 94.631C232.928 94.469 232.937 94.364 232.955 94.316C232.973 94.262 232.994 94.235 233.018 94.235H235.187ZM234.251 96.854V96.143H235.484V96.854H234.251ZM233.108 96.854V96.143H234.341V96.854H233.108ZM236.842 96.431C237.352 96.431 237.751 96.281 238.039 95.981C238.327 95.681 238.471 95.267 238.471 94.739V92.111H239.209V93.533C239.209 93.761 239.275 93.935 239.407 94.055C239.539 94.175 239.728 94.235 239.974 94.235H240.091C240.151 94.235 240.181 94.367 240.181 94.631C240.181 94.877 240.151 95 240.091 95H239.974C239.812 95 239.659 94.973 239.515 94.919C239.377 94.859 239.275 94.784 239.209 94.694V94.811C239.203 95.297 239.098 95.72 238.894 96.08C238.696 96.44 238.42 96.716 238.066 96.908C237.712 97.1 237.31 97.196 236.86 97.196H236.608L236.536 96.431H236.842ZM240.547 94.235C241.009 94.235 241.393 94.202 241.699 94.136C242.011 94.064 242.314 93.944 242.608 93.776L243.967 92.984C243.877 92.672 243.745 92.456 243.571 92.336C243.403 92.216 243.157 92.156 242.833 92.156H240.745L240.817 91.391H242.95C243.316 91.391 243.613 91.448 243.841 91.562C244.075 91.676 244.27 91.868 244.426 92.138C244.582 92.402 244.717 92.768 244.831 93.236L242.95 94.388C242.584 94.616 242.221 94.775 241.861 94.865C241.501 94.955 241.054 95 240.52 95H239.908C239.848 95 239.818 94.877 239.818 94.631C239.818 94.469 239.827 94.364 239.845 94.316C239.863 94.262 239.884 94.235 239.908 94.235H240.547ZM241.843 90.347V89.6H242.779V90.347H241.843ZM247.792 93.515C247.792 93.281 247.831 93.053 247.909 92.831C247.987 92.609 248.113 92.375 248.287 92.129C248.461 91.877 248.695 91.598 248.989 91.292L248.593 90.887L249.115 90.338C249.697 90.872 250.138 91.313 250.438 91.661C250.744 92.003 250.954 92.306 251.068 92.57C251.188 92.834 251.248 93.113 251.248 93.407C251.248 93.731 251.173 94.022 251.023 94.28C250.873 94.532 250.663 94.73 250.393 94.874C250.123 95.018 249.808 95.09 249.448 95.09C248.944 95.09 248.542 94.952 248.242 94.676C247.942 94.394 247.792 94.007 247.792 93.515ZM250.501 93.407C250.501 93.233 250.468 93.068 250.402 92.912C250.342 92.756 250.24 92.588 250.096 92.408C249.952 92.222 249.751 92.009 249.493 91.769C249.145 92.123 248.899 92.429 248.755 92.687C248.611 92.945 248.539 93.206 248.539 93.47C248.539 93.734 248.62 93.944 248.782 94.1C248.95 94.25 249.181 94.325 249.475 94.325C249.679 94.325 249.859 94.286 250.015 94.208C250.171 94.124 250.291 94.016 250.375 93.884C250.459 93.746 250.501 93.587 250.501 93.407ZM253.79 94.739C253.79 95.243 253.691 95.678 253.493 96.044C253.295 96.416 253.019 96.701 252.665 96.899C252.311 97.097 251.903 97.196 251.441 97.196H250.811L250.739 96.431H251.423C251.933 96.431 252.332 96.281 252.62 95.981C252.908 95.681 253.052 95.267 253.052 94.739V92.111H253.79V94.739ZM252.89 91.022V90.275H253.826V91.022H252.89ZM259.3 94.235C259.36 94.235 259.39 94.367 259.39 94.631C259.39 94.877 259.36 95 259.3 95H258.364V94.235H259.3ZM258.454 94.811C258.454 95.279 258.355 95.693 258.157 96.053C257.965 96.419 257.692 96.701 257.338 96.899C256.99 97.097 256.582 97.196 256.114 97.196H255.025L254.953 96.431H256.114C256.438 96.431 256.72 96.371 256.96 96.251C257.2 96.137 257.383 95.975 257.509 95.765C257.641 95.555 257.707 95.315 257.707 95.045V95H256.843C256.255 95 255.814 94.868 255.52 94.604C255.232 94.34 255.088 93.941 255.088 93.407V93.362C255.088 92.984 255.157 92.648 255.295 92.354C255.439 92.06 255.64 91.832 255.898 91.67C256.156 91.502 256.447 91.418 256.771 91.418C257.293 91.418 257.704 91.595 258.004 91.949C258.304 92.297 258.454 92.783 258.454 93.407V94.811ZM255.826 93.362C255.826 93.68 255.901 93.905 256.051 94.037C256.207 94.169 256.471 94.235 256.843 94.235H257.707V93.407C257.707 93.005 257.623 92.696 257.455 92.48C257.293 92.264 257.056 92.156 256.744 92.156C256.468 92.156 256.246 92.261 256.078 92.471C255.91 92.681 255.826 92.963 255.826 93.317V93.362ZM259.766 94.235C260.228 94.235 260.612 94.202 260.918 94.136C261.23 94.064 261.533 93.944 261.827 93.776L263.186 92.984C263.096 92.672 262.964 92.456 262.79 92.336C262.622 92.216 262.376 92.156 262.052 92.156H259.964L260.036 91.391H262.169C262.535 91.391 262.832 91.448 263.06 91.562C263.294 91.676 263.489 91.868 263.645 92.138C263.801 92.402 263.936 92.768 264.05 93.236L262.169 94.388C261.803 94.616 261.44 94.775 261.08 94.865C260.72 94.955 260.273 95 259.739 95H259.127C259.067 95 259.037 94.877 259.037 94.631C259.037 94.469 259.046 94.364 259.064 94.316C259.082 94.262 259.103 94.235 259.127 94.235H259.766ZM268.873 94.739C268.873 95.243 268.774 95.678 268.576 96.044C268.378 96.416 268.102 96.701 267.748 96.899C267.394 97.097 266.986 97.196 266.524 97.196H266.272L266.2 96.431H266.506C267.016 96.431 267.415 96.281 267.703 95.981C267.991 95.681 268.135 95.267 268.135 94.739V92.111H268.873V94.739ZM271.836 90.473L273.564 92.453C273.756 92.681 273.894 92.891 273.978 93.083C274.062 93.275 274.104 93.473 274.104 93.677C274.104 94.073 273.969 94.394 273.699 94.64C273.429 94.88 273.051 95 272.565 95H269.964L269.901 94.235H272.565C272.823 94.235 273.021 94.184 273.159 94.082C273.297 93.974 273.366 93.836 273.366 93.668C273.366 93.56 273.336 93.449 273.276 93.335C273.222 93.221 273.129 93.086 272.997 92.93L271.305 90.995L271.836 90.473ZM282.148 94.235C282.364 94.235 282.538 94.175 282.67 94.055C282.808 93.935 282.877 93.776 282.877 93.578V92.111H283.615V93.587C283.615 94.025 283.48 94.37 283.21 94.622C282.946 94.874 282.592 95 282.148 95H278.926C278.404 95 278.008 94.862 277.738 94.586C277.468 94.31 277.333 93.929 277.333 93.443V92.111H278.08V93.344C278.08 93.632 278.149 93.854 278.287 94.01C278.431 94.16 278.659 94.235 278.971 94.235H282.148ZM280.051 98.096V97.376H280.87V98.096H280.051ZM280.42 96.854V96.143H281.653V96.854H280.42ZM279.277 96.854V96.143H280.51V96.854H279.277ZM284.978 89.177H285.725V95H284.978V89.177ZM291.716 94.235C291.932 94.235 292.106 94.175 292.238 94.055C292.376 93.935 292.445 93.776 292.445 93.578V92.111H293.183V93.587C293.183 94.025 293.048 94.37 292.778 94.622C292.514 94.874 292.16 95 291.716 95H288.494C287.972 95 287.576 94.862 287.306 94.586C287.036 94.31 286.901 93.929 286.901 93.443V92.111H287.648V93.344C287.648 93.632 287.717 93.854 287.855 94.01C287.999 94.16 288.227 94.235 288.539 94.235H291.716ZM289.988 91.175V90.464H291.221V91.175H289.988ZM288.845 91.175V90.464H290.078V91.175H288.845ZM295.738 94.739C295.738 95.243 295.639 95.678 295.441 96.044C295.243 96.416 294.967 96.701 294.613 96.899C294.259 97.097 293.851 97.196 293.389 97.196H292.759L292.687 96.431H293.371C293.881 96.431 294.28 96.281 294.568 95.981C294.856 95.681 295 95.267 295 94.739V92.111H295.738V94.739ZM298.728 94.235C298.752 94.235 298.773 94.262 298.791 94.316C298.809 94.364 298.818 94.469 298.818 94.631C298.818 94.787 298.809 94.889 298.791 94.937C298.773 94.979 298.752 95 298.728 95H298.494C298.038 95 297.69 94.865 297.45 94.595C297.216 94.319 297.099 93.929 297.099 93.425V89.177H297.846V93.389C297.846 93.671 297.903 93.884 298.017 94.028C298.131 94.166 298.302 94.235 298.53 94.235H298.728ZM299.623 94.235C299.857 94.235 300.043 94.175 300.181 94.055C300.319 93.935 300.388 93.773 300.388 93.569V92.111H301.126V93.542C301.126 93.77 301.189 93.944 301.315 94.064C301.441 94.178 301.621 94.235 301.855 94.235H302.107C302.167 94.235 302.197 94.364 302.197 94.622C302.197 94.874 302.167 95 302.107 95H301.828C301.564 95 301.339 94.958 301.153 94.874C300.973 94.784 300.838 94.649 300.748 94.469C300.646 94.649 300.499 94.784 300.307 94.874C300.115 94.958 299.887 95 299.623 95H298.543C298.483 95 298.453 94.877 298.453 94.631C298.453 94.469 298.462 94.364 298.48 94.316C298.498 94.262 298.519 94.235 298.543 94.235H299.623ZM300.226 91.022V90.311H301.459V91.022H300.226ZM299.083 91.022V90.311H300.316V91.022H299.083ZM302.633 94.235C302.903 94.235 303.11 94.172 303.254 94.046C303.404 93.914 303.479 93.737 303.479 93.515V92.111H304.217V93.515C304.217 93.749 304.283 93.929 304.415 94.055C304.547 94.175 304.751 94.235 305.027 94.235C305.297 94.235 305.504 94.172 305.648 94.046C305.798 93.914 305.873 93.737 305.873 93.515V92.111H306.611V93.515C306.611 93.743 306.674 93.92 306.8 94.046C306.932 94.172 307.124 94.235 307.376 94.235C307.622 94.235 307.811 94.172 307.943 94.046C308.081 93.92 308.15 93.743 308.15 93.515V92.111H308.897V93.497C308.897 93.965 308.759 94.334 308.483 94.604C308.207 94.868 307.838 95 307.376 95C307.07 95 306.821 94.952 306.629 94.856C306.437 94.76 306.296 94.622 306.206 94.442C306.098 94.622 305.942 94.76 305.738 94.856C305.54 94.952 305.303 95 305.027 95C304.697 95 304.433 94.952 304.235 94.856C304.043 94.76 303.902 94.622 303.812 94.442C303.704 94.622 303.548 94.76 303.344 94.856C303.146 94.952 302.909 95 302.633 95H301.931C301.871 95 301.841 94.877 301.841 94.631C301.841 94.469 301.85 94.364 301.868 94.316C301.886 94.262 301.907 94.235 301.931 94.235H302.633ZM310.252 89.177H310.999V95H310.252V89.177ZM315.913 95C315.391 95 314.995 94.862 314.725 94.586C314.455 94.31 314.32 93.929 314.32 93.443V92.111H315.067V93.344C315.067 93.632 315.136 93.854 315.274 94.01C315.418 94.16 315.646 94.235 315.958 94.235H319.198C319.456 94.235 319.657 94.184 319.801 94.082C319.951 93.974 320.026 93.836 320.026 93.668C320.026 93.542 319.996 93.422 319.936 93.308C319.882 93.188 319.789 93.062 319.657 92.93L317.542 90.824V90.185L320.827 88.88L321.043 89.6L318.415 90.635L320.197 92.426C320.773 93.002 321.196 93.413 321.466 93.659C321.736 93.899 321.949 94.055 322.105 94.127C322.261 94.199 322.438 94.235 322.636 94.235C322.696 94.235 322.726 94.367 322.726 94.631C322.726 94.877 322.696 95 322.636 95C322.378 95 322.165 94.976 321.997 94.928C321.829 94.874 321.646 94.775 321.448 94.631C321.25 94.481 320.992 94.244 320.674 93.92C320.668 94.004 320.644 94.088 320.602 94.172C320.524 94.43 320.362 94.634 320.116 94.784C319.87 94.928 319.564 95 319.198 95H315.913ZM324.858 93.497C324.858 93.971 324.726 94.34 324.462 94.604C324.198 94.868 323.841 95 323.391 95H322.455C322.395 95 322.365 94.877 322.365 94.631C322.365 94.469 322.374 94.364 322.392 94.316C322.41 94.262 322.431 94.235 322.455 94.235H323.391C323.613 94.235 323.79 94.175 323.922 94.055C324.054 93.929 324.12 93.749 324.12 93.515V92.111H324.858V93.497ZM323.13 96.854V96.143H324.363V96.854H323.13ZM321.987 96.854V96.143H323.22V96.854H321.987ZM327.584 96.431C328.094 96.431 328.493 96.281 328.781 95.981C329.069 95.681 329.213 95.267 329.213 94.739V92.111H329.951V93.533C329.951 93.761 330.017 93.935 330.149 94.055C330.281 94.175 330.47 94.235 330.716 94.235H330.833C330.893 94.235 330.923 94.367 330.923 94.631C330.923 94.877 330.893 95 330.833 95H330.716C330.554 95 330.401 94.973 330.257 94.919C330.119 94.859 330.017 94.784 329.951 94.694V94.811C329.945 95.297 329.84 95.72 329.636 96.08C329.438 96.44 329.162 96.716 328.808 96.908C328.454 97.1 328.052 97.196 327.602 97.196H327.35L327.278 96.431H327.584ZM331.731 94.235C331.965 94.235 332.151 94.175 332.289 94.055C332.427 93.935 332.496 93.773 332.496 93.569V92.111H333.234V93.542C333.234 93.77 333.297 93.944 333.423 94.064C333.549 94.178 333.729 94.235 333.963 94.235H334.215C334.275 94.235 334.305 94.364 334.305 94.622C334.305 94.874 334.275 95 334.215 95H333.936C333.672 95 333.447 94.958 333.261 94.874C333.081 94.784 332.946 94.649 332.856 94.469C332.754 94.649 332.607 94.784 332.415 94.874C332.223 94.958 331.995 95 331.731 95H330.651C330.591 95 330.561 94.877 330.561 94.631C330.561 94.469 330.57 94.364 330.588 94.316C330.606 94.262 330.627 94.235 330.651 94.235H331.731ZM332.334 91.022V90.311H333.567V91.022H332.334ZM331.191 91.022V90.311H332.424V91.022H331.191ZM339.646 94.235C339.67 94.235 339.691 94.262 339.709 94.316C339.727 94.364 339.736 94.469 339.736 94.631C339.736 94.781 339.727 94.88 339.709 94.928C339.691 94.976 339.67 95 339.646 95C339.37 95 339.148 95.021 338.98 95.063C338.818 95.111 338.677 95.192 338.557 95.306C338.437 95.42 338.317 95.588 338.197 95.81L337.468 97.16H337.054C336.382 97.16 335.854 96.98 335.47 96.62C335.086 96.266 334.894 95.762 334.894 95.108V95H334.039C333.979 95 333.949 94.877 333.949 94.631C333.949 94.469 333.958 94.364 333.976 94.316C333.994 94.262 334.015 94.235 334.039 94.235H334.894V93.362C334.894 92.756 335.044 92.282 335.344 91.94C335.65 91.592 336.07 91.418 336.604 91.418C337.114 91.418 337.513 91.562 337.801 91.85C338.089 92.132 338.233 92.522 338.233 93.02C338.233 93.404 338.122 93.743 337.9 94.037C337.684 94.325 337.378 94.553 336.982 94.721C336.592 94.883 336.142 94.967 335.632 94.973V95.081C335.632 95.537 335.743 95.873 335.965 96.089C336.193 96.311 336.541 96.422 337.009 96.422H337.054L337.603 95.414C337.783 95.09 337.957 94.847 338.125 94.685C338.299 94.517 338.503 94.4 338.737 94.334C338.971 94.268 339.274 94.235 339.646 94.235ZM337.495 93.047C337.495 92.759 337.417 92.54 337.261 92.39C337.105 92.234 336.883 92.156 336.595 92.156C336.277 92.156 336.037 92.261 335.875 92.471C335.713 92.675 335.632 92.972 335.632 93.362V94.235C336.226 94.235 336.685 94.136 337.009 93.938C337.333 93.734 337.495 93.437 337.495 93.047ZM341.87 93.497C341.87 93.971 341.738 94.34 341.474 94.604C341.21 94.868 340.853 95 340.403 95H339.467C339.407 95 339.377 94.877 339.377 94.631C339.377 94.469 339.386 94.364 339.404 94.316C339.422 94.262 339.443 94.235 339.467 94.235H340.403C340.625 94.235 340.802 94.175 340.934 94.055C341.066 93.929 341.132 93.749 341.132 93.515V92.111H341.87V93.497ZM339.719 96.89V96.143H340.655V96.89H339.719ZM345.602 94.235H349.247C349.307 94.235 349.337 94.367 349.337 94.631C349.337 94.877 349.307 95 349.247 95H348.311C348.359 95.048 348.392 95.108 348.41 95.18C348.434 95.258 348.446 95.342 348.446 95.432C348.446 95.774 348.344 96.08 348.14 96.35C347.942 96.62 347.657 96.827 347.285 96.971C346.919 97.121 346.493 97.196 346.007 97.196H345.314C344.558 97.196 343.976 96.977 343.568 96.539C343.16 96.107 342.956 95.495 342.956 94.703V93.011H343.703V94.685C343.703 95.255 343.838 95.687 344.108 95.981C344.384 96.281 344.792 96.431 345.332 96.431H346.007C346.559 96.431 346.979 96.344 347.267 96.17C347.561 95.996 347.708 95.756 347.708 95.45C347.708 95.288 347.666 95.168 347.582 95.09C347.504 95.012 347.375 94.973 347.195 94.973H345.53L345.602 94.235ZM351.562 94.235C351.826 94.235 352.03 94.184 352.174 94.082C352.318 93.974 352.39 93.836 352.39 93.668C352.39 93.542 352.36 93.422 352.3 93.308C352.246 93.188 352.153 93.062 352.021 92.93L349.906 90.824V90.185L353.191 88.88L353.407 89.6L350.779 90.635L352.588 92.453C352.78 92.639 352.918 92.837 353.002 93.047C353.092 93.251 353.137 93.461 353.137 93.677C353.137 94.073 352.999 94.394 352.723 94.64C352.453 94.88 352.066 95 351.562 95H349.069C349.009 95 348.979 94.877 348.979 94.631C348.979 94.469 348.988 94.364 349.006 94.316C349.024 94.262 349.045 94.235 349.069 94.235H351.562ZM206.869 109.811C206.869 110.279 206.77 110.693 206.572 111.053C206.38 111.419 206.107 111.701 205.753 111.899C205.405 112.097 204.997 112.196 204.529 112.196H203.44L203.368 111.431H204.529C204.853 111.431 205.135 111.371 205.375 111.251C205.615 111.137 205.798 110.975 205.924 110.765C206.056 110.555 206.122 110.315 206.122 110.045V110H205.258C204.67 110 204.229 109.868 203.935 109.604C203.647 109.34 203.503 108.941 203.503 108.407V108.362C203.503 107.984 203.572 107.648 203.71 107.354C203.854 107.06 204.055 106.832 204.313 106.67C204.571 106.502 204.862 106.418 205.186 106.418C205.708 106.418 206.119 106.595 206.419 106.949C206.719 107.297 206.869 107.783 206.869 108.407V109.811ZM204.241 108.362C204.241 108.68 204.316 108.905 204.466 109.037C204.622 109.169 204.886 109.235 205.258 109.235H206.122V108.407C206.122 108.005 206.038 107.696 205.87 107.48C205.708 107.264 205.471 107.156 205.159 107.156C204.883 107.156 204.661 107.261 204.493 107.471C204.325 107.681 204.241 107.963 204.241 108.317V108.362ZM212.021 109.235C212.243 109.235 212.417 109.19 212.543 109.1C212.669 109.004 212.732 108.875 212.732 108.713C212.732 108.599 212.696 108.452 212.624 108.272L211.733 105.752L212.417 105.437L213.47 108.47C213.572 108.752 213.68 108.95 213.794 109.064C213.914 109.178 214.082 109.235 214.298 109.235H214.487C214.547 109.235 214.577 109.367 214.577 109.631C214.577 109.787 214.568 109.889 214.55 109.937C214.532 109.979 214.511 110 214.487 110H214.271C213.995 110 213.767 109.955 213.587 109.865C213.407 109.769 213.263 109.625 213.155 109.433C213.059 109.625 212.918 109.769 212.732 109.865C212.546 109.955 212.309 110 212.021 110H209.915L209.852 109.235H212.021ZM216.47 109.235C216.692 109.235 216.869 109.175 217.001 109.055C217.133 108.929 217.199 108.749 217.199 108.515V107.111H217.937V108.497C217.937 108.971 217.802 109.34 217.532 109.604C217.268 109.868 216.914 110 216.47 110H214.301C214.241 110 214.211 109.877 214.211 109.631C214.211 109.469 214.22 109.364 214.238 109.316C214.256 109.262 214.277 109.235 214.301 109.235H216.47ZM215.534 111.854V111.143H216.767V111.854H215.534ZM214.391 111.854V111.143H215.624V111.854H214.391ZM218.125 111.431C218.635 111.431 219.034 111.281 219.322 110.981C219.61 110.681 219.754 110.267 219.754 109.739V107.111H220.492V108.533C220.492 108.761 220.558 108.935 220.69 109.055C220.822 109.175 221.011 109.235 221.257 109.235H221.374C221.434 109.235 221.464 109.367 221.464 109.631C221.464 109.877 221.434 110 221.374 110H221.257C221.095 110 220.942 109.973 220.798 109.919C220.66 109.859 220.558 109.784 220.492 109.694V109.811C220.486 110.297 220.381 110.72 220.177 111.08C219.979 111.44 219.703 111.716 219.349 111.908C218.995 112.1 218.593 112.196 218.143 112.196H217.891L217.819 111.431H218.125ZM221.831 109.235C222.293 109.235 222.677 109.202 222.983 109.136C223.295 109.064 223.598 108.944 223.892 108.776L225.251 107.984C225.161 107.672 225.029 107.456 224.855 107.336C224.687 107.216 224.441 107.156 224.117 107.156H222.029L222.101 106.391H224.234C224.6 106.391 224.897 106.448 225.125 106.562C225.359 106.676 225.554 106.868 225.71 107.138C225.866 107.402 226.001 107.768 226.115 108.236L224.234 109.388C223.868 109.616 223.505 109.775 223.145 109.865C222.785 109.955 222.338 110 221.804 110H221.192C221.132 110 221.102 109.877 221.102 109.631C221.102 109.469 221.111 109.364 221.129 109.316C221.147 109.262 221.168 109.235 221.192 109.235H221.831ZM223.127 105.347V104.6H224.063V105.347H223.127ZM231.433 112.196C230.677 112.196 230.095 111.977 229.687 111.539C229.279 111.107 229.075 110.495 229.075 109.703V108.011H229.822V109.685C229.822 110.255 229.957 110.687 230.227 110.981C230.503 111.281 230.911 111.431 231.451 111.431H231.829C232.171 111.431 232.471 111.362 232.729 111.224C232.987 111.092 233.185 110.9 233.323 110.648C233.467 110.396 233.539 110.099 233.539 109.757V104.177H234.277V108.587C234.277 108.785 234.337 108.944 234.457 109.064C234.583 109.178 234.76 109.235 234.988 109.235H235.15C235.174 109.235 235.195 109.262 235.213 109.316C235.231 109.364 235.24 109.469 235.24 109.631C235.24 109.781 235.231 109.88 235.213 109.928C235.195 109.976 235.174 110 235.15 110H235.006C234.85 110 234.703 109.976 234.565 109.928C234.433 109.88 234.337 109.814 234.277 109.73V109.847C234.277 110.309 234.172 110.717 233.962 111.071C233.758 111.431 233.47 111.707 233.098 111.899C232.726 112.097 232.303 112.196 231.829 112.196H231.433ZM236.679 109.235C236.913 109.235 237.099 109.175 237.237 109.055C237.375 108.935 237.444 108.773 237.444 108.569V107.111H238.191V108.542C238.191 108.77 238.251 108.944 238.371 109.064C238.497 109.178 238.68 109.235 238.92 109.235H239.163C239.223 109.235 239.253 109.364 239.253 109.622C239.253 109.874 239.223 110 239.163 110H238.893C238.623 110 238.395 109.958 238.209 109.874C238.029 109.784 237.897 109.649 237.813 109.469C237.705 109.649 237.555 109.784 237.363 109.874C237.171 109.958 236.943 110 236.679 110H234.978C234.918 110 234.888 109.877 234.888 109.631C234.888 109.469 234.897 109.364 234.915 109.316C234.933 109.262 234.954 109.235 234.978 109.235H236.679ZM236.013 111.854V111.143H237.246V111.854H236.013ZM234.87 111.854V111.143H236.103V111.854H234.87ZM244.589 109.235C244.613 109.235 244.634 109.262 244.652 109.316C244.67 109.364 244.679 109.469 244.679 109.631C244.679 109.781 244.67 109.88 244.652 109.928C244.634 109.976 244.613 110 244.589 110C244.313 110 244.091 110.021 243.923 110.063C243.761 110.111 243.62 110.192 243.5 110.306C243.38 110.42 243.26 110.588 243.14 110.81L242.411 112.16H241.997C241.325 112.16 240.797 111.98 240.413 111.62C240.029 111.266 239.837 110.762 239.837 110.108V110H238.982C238.922 110 238.892 109.877 238.892 109.631C238.892 109.469 238.901 109.364 238.919 109.316C238.937 109.262 238.958 109.235 238.982 109.235H239.837V108.362C239.837 107.756 239.987 107.282 240.287 106.94C240.593 106.592 241.013 106.418 241.547 106.418C242.057 106.418 242.456 106.562 242.744 106.85C243.032 107.132 243.176 107.522 243.176 108.02C243.176 108.404 243.065 108.743 242.843 109.037C242.627 109.325 242.321 109.553 241.925 109.721C241.535 109.883 241.085 109.967 240.575 109.973V110.081C240.575 110.537 240.686 110.873 240.908 111.089C241.136 111.311 241.484 111.422 241.952 111.422H241.997L242.546 110.414C242.726 110.09 242.9 109.847 243.068 109.685C243.242 109.517 243.446 109.4 243.68 109.334C243.914 109.268 244.217 109.235 244.589 109.235ZM242.438 108.047C242.438 107.759 242.36 107.54 242.204 107.39C242.048 107.234 241.826 107.156 241.538 107.156C241.22 107.156 240.98 107.261 240.818 107.471C240.656 107.675 240.575 107.972 240.575 108.362V109.235C241.169 109.235 241.628 109.136 241.952 108.938C242.276 108.734 242.438 108.437 242.438 108.047ZM245.111 109.235C245.381 109.235 245.588 109.172 245.732 109.046C245.882 108.914 245.957 108.737 245.957 108.515V107.111H246.695V108.515C246.695 108.749 246.761 108.929 246.893 109.055C247.025 109.175 247.229 109.235 247.505 109.235C247.775 109.235 247.982 109.172 248.126 109.046C248.276 108.914 248.351 108.737 248.351 108.515V107.111H249.089V108.515C249.089 108.743 249.152 108.92 249.278 109.046C249.41 109.172 249.602 109.235 249.854 109.235C250.1 109.235 250.289 109.172 250.421 109.046C250.559 108.914 250.628 108.737 250.628 108.515V107.111H251.375V108.515C251.375 108.749 251.435 108.929 251.555 109.055C251.675 109.175 251.849 109.235 252.077 109.235H252.347C252.407 109.235 252.437 109.367 252.437 109.631C252.437 109.877 252.407 110 252.347 110H252.077C251.795 110 251.561 109.958 251.375 109.874C251.189 109.784 251.054 109.649 250.97 109.469C250.862 109.649 250.712 109.784 250.52 109.874C250.334 109.958 250.112 110 249.854 110C249.548 110 249.299 109.952 249.107 109.856C248.915 109.76 248.774 109.622 248.684 109.442C248.576 109.622 248.42 109.76 248.216 109.856C248.018 109.952 247.781 110 247.505 110C247.175 110 246.911 109.952 246.713 109.856C246.521 109.76 246.38 109.622 246.29 109.442C246.182 109.622 246.026 109.76 245.822 109.856C245.624 109.952 245.387 110 245.111 110H244.409C244.349 110 244.319 109.877 244.319 109.631C244.319 109.469 244.328 109.364 244.346 109.316C244.364 109.262 244.385 109.235 244.409 109.235H245.111ZM254.577 108.497C254.577 108.971 254.445 109.34 254.181 109.604C253.917 109.868 253.56 110 253.11 110H252.174C252.114 110 252.084 109.877 252.084 109.631C252.084 109.469 252.093 109.364 252.111 109.316C252.129 109.262 252.15 109.235 252.174 109.235H253.11C253.332 109.235 253.509 109.175 253.641 109.055C253.773 108.929 253.839 108.749 253.839 108.515V107.111H254.577V108.497ZM253.632 106.022V105.311H254.865V106.022H253.632ZM252.489 106.022V105.311H253.722V106.022H252.489ZM259.401 110C258.879 110 258.483 109.862 258.213 109.586C257.943 109.31 257.808 108.929 257.808 108.443V107.111H258.555V108.344C258.555 108.632 258.624 108.854 258.762 109.01C258.906 109.16 259.134 109.235 259.446 109.235H262.272C262.374 109.235 262.461 109.232 262.533 109.226C262.605 109.22 262.677 109.211 262.749 109.199C262.419 109.073 262.161 108.947 261.975 108.821C261.789 108.689 261.654 108.542 261.57 108.38C261.492 108.212 261.453 108.011 261.453 107.777C261.453 107.465 261.528 107.18 261.678 106.922C261.828 106.658 262.032 106.451 262.29 106.301C262.554 106.151 262.851 106.076 263.181 106.076C263.727 106.076 264.15 106.247 264.45 106.589C264.756 106.925 264.909 107.402 264.909 108.02V108.317C264.909 108.869 264.723 109.289 264.351 109.577C263.979 109.859 263.436 110 262.722 110H259.401ZM263.847 109.055C263.955 108.971 264.036 108.863 264.09 108.731C264.144 108.599 264.171 108.44 264.171 108.254V108.056C264.171 107.642 264.087 107.333 263.919 107.129C263.751 106.919 263.505 106.814 263.181 106.814C262.995 106.814 262.827 106.859 262.677 106.949C262.527 107.033 262.407 107.15 262.317 107.3C262.233 107.444 262.191 107.603 262.191 107.777C262.191 107.969 262.239 108.134 262.335 108.272C262.431 108.41 262.596 108.539 262.83 108.659C263.07 108.779 263.409 108.911 263.847 109.055ZM262.695 105.077V104.33H263.631V105.077H262.695ZM268.106 109.235C268.328 109.235 268.502 109.19 268.628 109.1C268.754 109.004 268.817 108.875 268.817 108.713C268.817 108.599 268.781 108.452 268.709 108.272L267.818 105.752L268.502 105.437L269.555 108.47C269.657 108.752 269.765 108.95 269.879 109.064C269.999 109.178 270.167 109.235 270.383 109.235H270.572C270.632 109.235 270.662 109.367 270.662 109.631C270.662 109.787 270.653 109.889 270.635 109.937C270.617 109.979 270.596 110 270.572 110H270.356C270.08 110 269.852 109.955 269.672 109.865C269.492 109.769 269.348 109.625 269.24 109.433C269.144 109.625 269.003 109.769 268.817 109.865C268.631 109.955 268.394 110 268.106 110H266L265.937 109.235H268.106ZM272.843 109.217C273.167 109.073 273.41 108.908 273.572 108.722C273.734 108.53 273.815 108.314 273.815 108.074C273.815 107.792 273.725 107.57 273.545 107.408C273.371 107.24 273.14 107.156 272.852 107.156C272.57 107.156 272.339 107.24 272.159 107.408C271.979 107.57 271.889 107.792 271.889 108.074C271.889 108.32 271.967 108.536 272.123 108.722C272.279 108.908 272.519 109.073 272.843 109.217ZM271.79 109.235C271.61 109.103 271.463 108.929 271.349 108.713C271.235 108.497 271.178 108.275 271.178 108.047C271.178 107.735 271.25 107.456 271.394 107.21C271.544 106.958 271.748 106.763 272.006 106.625C272.27 106.487 272.561 106.418 272.879 106.418C273.191 106.418 273.473 106.487 273.725 106.625C273.977 106.763 274.175 106.955 274.319 107.201C274.463 107.441 274.535 107.714 274.535 108.02C274.535 108.248 274.475 108.47 274.355 108.686C274.235 108.902 274.067 109.085 273.851 109.235H275.048C275.306 109.235 275.504 109.184 275.642 109.082C275.78 108.974 275.849 108.836 275.849 108.668C275.849 108.554 275.819 108.437 275.759 108.317C275.699 108.197 275.597 108.059 275.453 107.903L273.68 105.995L274.211 105.446L276.02 107.426C276.218 107.642 276.362 107.852 276.452 108.056C276.542 108.26 276.587 108.467 276.587 108.677C276.587 108.941 276.524 109.175 276.398 109.379C276.278 109.577 276.101 109.73 275.867 109.838C275.639 109.946 275.366 110 275.048 110H274.148C273.758 110 273.473 109.991 273.293 109.973C273.119 109.955 272.978 109.916 272.87 109.856C272.762 109.91 272.606 109.949 272.402 109.973C272.204 109.991 271.913 110 271.529 110H270.386C270.326 110 270.296 109.877 270.296 109.631C270.296 109.469 270.305 109.364 270.323 109.316C270.341 109.262 270.362 109.235 270.386 109.235H271.79ZM281.535 109.235C281.559 109.235 281.58 109.262 281.598 109.316C281.616 109.364 281.625 109.469 281.625 109.631C281.625 109.787 281.616 109.889 281.598 109.937C281.58 109.979 281.559 110 281.535 110H281.301C280.845 110 280.497 109.865 280.257 109.595C280.023 109.319 279.906 108.929 279.906 108.425V104.177H280.653V108.389C280.653 108.671 280.71 108.884 280.824 109.028C280.938 109.166 281.109 109.235 281.337 109.235H281.535ZM283.754 108.497C283.754 108.971 283.622 109.34 283.358 109.604C283.094 109.868 282.737 110 282.287 110H281.351C281.291 110 281.261 109.877 281.261 109.631C281.261 109.469 281.27 109.364 281.288 109.316C281.306 109.262 281.327 109.235 281.351 109.235H282.287C282.509 109.235 282.686 109.175 282.818 109.055C282.95 108.929 283.016 108.749 283.016 108.515V107.111H283.754V108.497ZM281.603 111.89V111.143H282.539V111.89H281.603ZM287.731 107.912C287.731 108.206 287.797 108.428 287.929 108.578C288.067 108.722 288.286 108.794 288.586 108.794C288.904 108.794 289.153 108.737 289.333 108.623C289.519 108.503 289.612 108.344 289.612 108.146V106.841H288.739C288.421 106.841 288.172 106.934 287.992 107.12C287.818 107.306 287.731 107.57 287.731 107.912ZM290.359 108.335C290.359 108.647 290.413 108.875 290.521 109.019C290.635 109.163 290.8 109.235 291.016 109.235H291.232C291.262 109.235 291.283 109.262 291.295 109.316C291.313 109.364 291.322 109.469 291.322 109.631C291.322 109.787 291.313 109.889 291.295 109.937C291.283 109.979 291.262 110 291.232 110H291.016C290.692 110 290.428 109.931 290.224 109.793C290.02 109.649 289.882 109.43 289.81 109.136C289.684 109.28 289.507 109.388 289.279 109.46C289.051 109.526 288.805 109.559 288.541 109.559C288.037 109.559 287.65 109.424 287.38 109.154C287.116 108.878 286.984 108.47 286.984 107.93C286.984 107.6 287.056 107.294 287.2 107.012C287.35 106.73 287.557 106.508 287.821 106.346C288.091 106.184 288.397 106.103 288.739 106.103H289.612V105.482H290.359V108.335ZM293.543 109.235C293.807 109.235 294.011 109.184 294.155 109.082C294.299 108.974 294.371 108.836 294.371 108.668C294.371 108.542 294.341 108.422 294.281 108.308C294.227 108.188 294.134 108.062 294.002 107.93L291.887 105.824V105.185L295.172 103.88L295.388 104.6L292.76 105.635L294.569 107.453C294.761 107.639 294.899 107.837 294.983 108.047C295.073 108.251 295.118 108.461 295.118 108.677C295.118 109.073 294.98 109.394 294.704 109.64C294.434 109.88 294.047 110 293.543 110H291.05C290.99 110 290.96 109.877 290.96 109.631C290.96 109.469 290.969 109.364 290.987 109.316C291.005 109.262 291.026 109.235 291.05 109.235H293.543ZM303.264 109.235C303.498 109.235 303.684 109.175 303.822 109.055C303.96 108.935 304.029 108.776 304.029 108.578V107.111H304.767V108.542C304.767 108.77 304.83 108.944 304.956 109.064C305.082 109.178 305.262 109.235 305.496 109.235H305.748C305.808 109.235 305.838 109.367 305.838 109.631C305.838 109.877 305.808 110 305.748 110H305.469C305.205 110 304.98 109.958 304.794 109.874C304.614 109.784 304.479 109.649 304.389 109.469C304.287 109.649 304.14 109.784 303.948 109.874C303.756 109.958 303.528 110 303.264 110H300.078C299.556 110 299.16 109.862 298.89 109.586C298.62 109.31 298.485 108.929 298.485 108.443V107.111H299.232V108.344C299.232 108.632 299.301 108.854 299.439 109.01C299.583 109.16 299.811 109.235 300.123 109.235H303.264ZM301.572 106.175V105.464H302.805V106.175H301.572ZM300.429 106.175V105.464H301.662V106.175H300.429ZM306.268 109.235C306.538 109.235 306.745 109.172 306.889 109.046C307.039 108.914 307.114 108.737 307.114 108.515V107.111H307.852V108.515C307.852 108.749 307.918 108.929 308.05 109.055C308.182 109.175 308.386 109.235 308.662 109.235C308.932 109.235 309.139 109.172 309.283 109.046C309.433 108.914 309.508 108.737 309.508 108.515V107.111H310.246V108.515C310.246 108.743 310.309 108.92 310.435 109.046C310.567 109.172 310.759 109.235 311.011 109.235C311.257 109.235 311.446 109.172 311.578 109.046C311.716 108.92 311.785 108.743 311.785 108.515V107.111H312.532V108.497C312.532 108.965 312.394 109.334 312.118 109.604C311.842 109.868 311.473 110 311.011 110C310.705 110 310.456 109.952 310.264 109.856C310.072 109.76 309.931 109.622 309.841 109.442C309.733 109.622 309.577 109.76 309.373 109.856C309.175 109.952 308.938 110 308.662 110C308.332 110 308.068 109.952 307.87 109.856C307.678 109.76 307.537 109.622 307.447 109.442C307.339 109.622 307.183 109.76 306.979 109.856C306.781 109.952 306.544 110 306.268 110H305.566C305.506 110 305.476 109.877 305.476 109.631C305.476 109.469 305.485 109.364 305.503 109.316C305.521 109.262 305.542 109.235 305.566 109.235H306.268ZM313.886 104.177H314.633V110H313.886V104.177ZM319.547 110C319.025 110 318.629 109.862 318.359 109.586C318.089 109.31 317.954 108.929 317.954 108.443V107.111H318.701V108.344C318.701 108.632 318.77 108.854 318.908 109.01C319.052 109.16 319.28 109.235 319.592 109.235H322.832C323.09 109.235 323.291 109.184 323.435 109.082C323.585 108.974 323.66 108.836 323.66 108.668C323.66 108.542 323.63 108.422 323.57 108.308C323.516 108.188 323.423 108.062 323.291 107.93L321.176 105.824V105.185L324.461 103.88L324.677 104.6L322.049 105.635L323.831 107.426C324.407 108.002 324.83 108.413 325.1 108.659C325.37 108.899 325.583 109.055 325.739 109.127C325.895 109.199 326.072 109.235 326.27 109.235C326.33 109.235 326.36 109.367 326.36 109.631C326.36 109.877 326.33 110 326.27 110C326.012 110 325.799 109.976 325.631 109.928C325.463 109.874 325.28 109.775 325.082 109.631C324.884 109.481 324.626 109.244 324.308 108.92C324.302 109.004 324.278 109.088 324.236 109.172C324.158 109.43 323.996 109.634 323.75 109.784C323.504 109.928 323.198 110 322.832 110H319.547ZM327.169 109.235C327.403 109.235 327.589 109.175 327.727 109.055C327.865 108.935 327.934 108.773 327.934 108.569V107.111H328.672V108.542C328.672 108.77 328.735 108.944 328.861 109.064C328.987 109.178 329.167 109.235 329.401 109.235H329.653C329.713 109.235 329.743 109.364 329.743 109.622C329.743 109.874 329.713 110 329.653 110H329.374C329.11 110 328.885 109.958 328.699 109.874C328.519 109.784 328.384 109.649 328.294 109.469C328.192 109.649 328.045 109.784 327.853 109.874C327.661 109.958 327.433 110 327.169 110H326.089C326.029 110 325.999 109.877 325.999 109.631C325.999 109.469 326.008 109.364 326.026 109.316C326.044 109.262 326.065 109.235 326.089 109.235H327.169ZM326.44 111.854V111.143H327.673V111.854H326.44ZM325.297 111.854V111.143H326.53V111.854H325.297ZM331.88 108.497C331.88 108.971 331.748 109.34 331.484 109.604C331.22 109.868 330.863 110 330.413 110H329.477C329.417 110 329.387 109.877 329.387 109.631C329.387 109.469 329.396 109.364 329.414 109.316C329.432 109.262 329.453 109.235 329.477 109.235H330.413C330.635 109.235 330.812 109.175 330.944 109.055C331.076 108.929 331.142 108.749 331.142 108.515V107.111H331.88V108.497ZM330.512 106.022V105.275H331.448V106.022H330.512ZM336.539 109.811C336.539 110.279 336.44 110.693 336.242 111.053C336.05 111.419 335.777 111.701 335.423 111.899C335.075 112.097 334.667 112.196 334.199 112.196H333.11L333.038 111.431H334.199C334.523 111.431 334.805 111.371 335.045 111.251C335.285 111.137 335.468 110.975 335.594 110.765C335.726 110.555 335.792 110.315 335.792 110.045V110H334.928C334.34 110 333.899 109.868 333.605 109.604C333.317 109.34 333.173 108.941 333.173 108.407V108.362C333.173 107.984 333.242 107.648 333.38 107.354C333.524 107.06 333.725 106.832 333.983 106.67C334.241 106.502 334.532 106.418 334.856 106.418C335.378 106.418 335.789 106.595 336.089 106.949C336.389 107.297 336.539 107.783 336.539 108.407V109.811ZM333.911 108.362C333.911 108.68 333.986 108.905 334.136 109.037C334.292 109.169 334.556 109.235 334.928 109.235H335.792V108.407C335.792 108.005 335.708 107.696 335.54 107.48C335.378 107.264 335.141 107.156 334.829 107.156C334.553 107.156 334.331 107.261 334.163 107.471C333.995 107.681 333.911 107.963 333.911 108.317V108.362ZM337.041 111.431C337.551 111.431 337.95 111.281 338.238 110.981C338.526 110.681 338.67 110.267 338.67 109.739V107.111H339.408V108.533C339.408 108.761 339.474 108.935 339.606 109.055C339.738 109.175 339.927 109.235 340.173 109.235H340.29C340.35 109.235 340.38 109.367 340.38 109.631C340.38 109.877 340.35 110 340.29 110H340.173C340.011 110 339.858 109.973 339.714 109.919C339.576 109.859 339.474 109.784 339.408 109.694V109.811C339.402 110.297 339.297 110.72 339.093 111.08C338.895 111.44 338.619 111.716 338.265 111.908C337.911 112.1 337.509 112.196 337.059 112.196H336.807L336.735 111.431H337.041ZM341.188 109.235C341.422 109.235 341.608 109.175 341.746 109.055C341.884 108.935 341.953 108.773 341.953 108.569V107.111H342.691V108.542C342.691 108.77 342.754 108.944 342.88 109.064C343.006 109.178 343.186 109.235 343.42 109.235H343.672C343.732 109.235 343.762 109.364 343.762 109.622C343.762 109.874 343.732 110 343.672 110H343.393C343.129 110 342.904 109.958 342.718 109.874C342.538 109.784 342.403 109.649 342.313 109.469C342.211 109.649 342.064 109.784 341.872 109.874C341.68 109.958 341.452 110 341.188 110H340.108C340.048 110 340.018 109.877 340.018 109.631C340.018 109.469 340.027 109.364 340.045 109.316C340.063 109.262 340.084 109.235 340.108 109.235H341.188ZM341.791 106.022V105.311H343.024V106.022H341.791ZM340.648 106.022V105.311H341.881V106.022H340.648ZM345.99 109.235C346.254 109.235 346.458 109.184 346.602 109.082C346.746 108.974 346.818 108.836 346.818 108.668C346.818 108.542 346.788 108.422 346.728 108.308C346.674 108.188 346.581 108.062 346.449 107.93L344.334 105.824V105.185L347.619 103.88L347.835 104.6L345.207 105.635L346.998 107.426C347.568 108.002 347.988 108.413 348.258 108.659C348.534 108.899 348.747 109.055 348.897 109.127C349.053 109.199 349.23 109.235 349.428 109.235C349.488 109.235 349.518 109.367 349.518 109.631C349.518 109.877 349.488 110 349.428 110C349.17 110 348.957 109.976 348.789 109.928C348.621 109.874 348.438 109.775 348.24 109.631C348.048 109.481 347.79 109.244 347.466 108.92C347.46 109.004 347.439 109.088 347.403 109.172C347.319 109.43 347.154 109.634 346.908 109.784C346.662 109.928 346.356 110 345.99 110H343.497C343.437 110 343.407 109.877 343.407 109.631C343.407 109.469 343.416 109.364 343.434 109.316C343.452 109.262 343.473 109.235 343.497 109.235H345.99ZM349.528 109.235C349.744 109.235 349.918 109.175 350.05 109.055C350.188 108.935 350.257 108.773 350.257 108.569V104.177H350.995V108.578C350.995 109.016 350.86 109.364 350.59 109.622C350.326 109.874 349.972 110 349.528 110H349.249C349.189 110 349.159 109.877 349.159 109.631C349.159 109.367 349.189 109.235 349.249 109.235H349.528ZM352.437 104.177H353.184V110H352.437V104.177ZM266.512 125C266.344 125 266.221 124.955 266.143 124.865C266.065 124.775 266.026 124.634 266.026 124.442C266.026 124.244 266.062 124.106 266.134 124.028C266.212 123.944 266.338 123.902 266.512 123.902C266.68 123.902 266.8 123.944 266.872 124.028C266.95 124.106 266.989 124.244 266.989 124.442C266.989 124.634 266.95 124.775 266.872 124.865C266.8 124.955 266.68 125 266.512 125ZM273.034 124.235C273.268 124.235 273.454 124.175 273.592 124.055C273.73 123.935 273.799 123.776 273.799 123.578V122.111H274.537V123.542C274.537 123.77 274.6 123.944 274.726 124.064C274.852 124.178 275.032 124.235 275.266 124.235H275.518C275.578 124.235 275.608 124.367 275.608 124.631C275.608 124.877 275.578 125 275.518 125H275.239C274.975 125 274.75 124.958 274.564 124.874C274.384 124.784 274.249 124.649 274.159 124.469C274.057 124.649 273.91 124.784 273.718 124.874C273.526 124.958 273.298 125 273.034 125H269.848C269.326 125 268.93 124.862 268.66 124.586C268.39 124.31 268.255 123.929 268.255 123.443V122.111H269.002V123.344C269.002 123.632 269.071 123.854 269.209 124.01C269.353 124.16 269.581 124.235 269.893 124.235H273.034ZM271.342 121.175V120.464H272.575V121.175H271.342ZM270.199 121.175V120.464H271.432V121.175H270.199ZM276.037 124.235C276.307 124.235 276.514 124.172 276.658 124.046C276.808 123.914 276.883 123.737 276.883 123.515V122.111H277.621V123.515C277.621 123.749 277.687 123.929 277.819 124.055C277.951 124.175 278.155 124.235 278.431 124.235C278.701 124.235 278.908 124.172 279.052 124.046C279.202 123.914 279.277 123.737 279.277 123.515V122.111H280.015V123.515C280.015 123.743 280.078 123.92 280.204 124.046C280.336 124.172 280.528 124.235 280.78 124.235C281.026 124.235 281.215 124.172 281.347 124.046C281.485 123.92 281.554 123.743 281.554 123.515V122.111H282.301V123.497C282.301 123.965 282.163 124.334 281.887 124.604C281.611 124.868 281.242 125 280.78 125C280.474 125 280.225 124.952 280.033 124.856C279.841 124.76 279.7 124.622 279.61 124.442C279.502 124.622 279.346 124.76 279.142 124.856C278.944 124.952 278.707 125 278.431 125C278.101 125 277.837 124.952 277.639 124.856C277.447 124.76 277.306 124.622 277.216 124.442C277.108 124.622 276.952 124.76 276.748 124.856C276.55 124.952 276.313 125 276.037 125H275.335C275.275 125 275.245 124.877 275.245 124.631C275.245 124.469 275.254 124.364 275.272 124.316C275.29 124.262 275.311 124.235 275.335 124.235H276.037ZM283.656 119.177H284.403V125H283.656V119.177ZM285.579 123.515C285.579 123.281 285.618 123.053 285.696 122.831C285.774 122.609 285.9 122.375 286.074 122.129C286.248 121.877 286.482 121.598 286.776 121.292L286.38 120.887L286.902 120.338C287.484 120.872 287.925 121.313 288.225 121.661C288.531 122.003 288.741 122.306 288.855 122.57C288.975 122.834 289.035 123.113 289.035 123.407C289.035 123.731 288.96 124.022 288.81 124.28C288.66 124.532 288.45 124.73 288.18 124.874C287.91 125.018 287.595 125.09 287.235 125.09C286.731 125.09 286.329 124.952 286.029 124.676C285.729 124.394 285.579 124.007 285.579 123.515ZM288.288 123.407C288.288 123.233 288.255 123.068 288.189 122.912C288.129 122.756 288.027 122.588 287.883 122.408C287.739 122.222 287.538 122.009 287.28 121.769C286.932 122.123 286.686 122.429 286.542 122.687C286.398 122.945 286.326 123.206 286.326 123.47C286.326 123.734 286.407 123.944 286.569 124.1C286.737 124.25 286.968 124.325 287.262 124.325C287.466 124.325 287.646 124.286 287.802 124.208C287.958 124.124 288.078 124.016 288.162 123.884C288.246 123.746 288.288 123.587 288.288 123.407ZM292.22 124.235C292.442 124.235 292.616 124.19 292.742 124.1C292.868 124.004 292.931 123.875 292.931 123.713C292.931 123.599 292.895 123.452 292.823 123.272L291.932 120.752L292.616 120.437L293.669 123.47C293.771 123.752 293.879 123.95 293.993 124.064C294.113 124.178 294.281 124.235 294.497 124.235H294.686C294.746 124.235 294.776 124.367 294.776 124.631C294.776 124.787 294.767 124.889 294.749 124.937C294.731 124.979 294.71 125 294.686 125H294.47C294.194 125 293.966 124.955 293.786 124.865C293.606 124.769 293.462 124.625 293.354 124.433C293.258 124.625 293.117 124.769 292.931 124.865C292.745 124.955 292.508 125 292.22 125H290.114L290.051 124.235H292.22ZM295.203 124.235C295.473 124.235 295.68 124.172 295.824 124.046C295.974 123.914 296.049 123.737 296.049 123.515V122.111H296.787V123.515C296.787 123.749 296.853 123.929 296.985 124.055C297.117 124.175 297.321 124.235 297.597 124.235C297.867 124.235 298.074 124.172 298.218 124.046C298.368 123.914 298.443 123.737 298.443 123.515V122.111H299.181V123.515C299.181 123.743 299.244 123.92 299.37 124.046C299.502 124.172 299.694 124.235 299.946 124.235C300.192 124.235 300.381 124.172 300.513 124.046C300.651 123.92 300.72 123.743 300.72 123.515V122.111H301.467V123.497C301.467 123.965 301.329 124.334 301.053 124.604C300.777 124.868 300.408 125 299.946 125C299.64 125 299.391 124.952 299.199 124.856C299.007 124.76 298.866 124.622 298.776 124.442C298.668 124.622 298.512 124.76 298.308 124.856C298.11 124.952 297.873 125 297.597 125C297.267 125 297.003 124.952 296.805 124.856C296.613 124.76 296.472 124.622 296.382 124.442C296.274 124.622 296.118 124.76 295.914 124.856C295.716 124.952 295.479 125 295.203 125H294.501C294.441 125 294.411 124.877 294.411 124.631C294.411 124.469 294.42 124.364 294.438 124.316C294.456 124.262 294.477 124.235 294.501 124.235H295.203ZM298.371 119.789V119.069H299.19V119.789H298.371ZM298.74 121.022V120.311H299.973V121.022H298.74ZM297.597 121.022V120.311H298.83V121.022H297.597ZM307.333 124.235H310.978C311.038 124.235 311.068 124.367 311.068 124.631C311.068 124.877 311.038 125 310.978 125H310.042C310.09 125.048 310.123 125.108 310.141 125.18C310.165 125.258 310.177 125.342 310.177 125.432C310.177 125.774 310.075 126.08 309.871 126.35C309.673 126.62 309.388 126.827 309.016 126.971C308.65 127.121 308.224 127.196 307.738 127.196H307.045C306.289 127.196 305.707 126.977 305.299 126.539C304.891 126.107 304.687 125.495 304.687 124.703V123.011H305.434V124.685C305.434 125.255 305.569 125.687 305.839 125.981C306.115 126.281 306.523 126.431 307.063 126.431H307.738C308.29 126.431 308.71 126.344 308.998 126.17C309.292 125.996 309.439 125.756 309.439 125.45C309.439 125.288 309.397 125.168 309.313 125.09C309.235 125.012 309.106 124.973 308.926 124.973H307.261L307.333 124.235ZM312.384 124.235C312.486 124.235 312.573 124.232 312.645 124.226C312.717 124.22 312.789 124.211 312.861 124.199C312.531 124.073 312.273 123.947 312.087 123.821C311.907 123.689 311.775 123.542 311.691 123.38C311.607 123.212 311.565 123.011 311.565 122.777C311.565 122.465 311.64 122.18 311.79 121.922C311.94 121.658 312.147 121.451 312.411 121.301C312.675 121.151 312.969 121.076 313.293 121.076C313.845 121.076 314.271 121.247 314.571 121.589C314.877 121.925 315.03 122.402 315.03 123.02V123.317C315.03 123.869 314.844 124.289 314.472 124.577C314.1 124.859 313.554 125 312.834 125H310.8C310.74 125 310.71 124.877 310.71 124.631C310.71 124.469 310.719 124.364 310.737 124.316C310.755 124.262 310.776 124.235 310.8 124.235H312.384ZM313.968 124.055C314.07 123.971 314.148 123.863 314.202 123.731C314.256 123.599 314.283 123.44 314.283 123.254V123.056C314.283 122.642 314.199 122.333 314.031 122.129C313.869 121.919 313.623 121.814 313.293 121.814C313.113 121.814 312.948 121.859 312.798 121.949C312.648 122.033 312.528 122.15 312.438 122.3C312.354 122.444 312.312 122.603 312.312 122.777C312.312 122.969 312.36 123.134 312.456 123.272C312.552 123.41 312.717 123.539 312.951 123.659C313.185 123.779 313.524 123.911 313.968 124.055ZM312.807 120.077V119.33H313.743V120.077H312.807ZM317.572 123.533C317.572 123.761 317.638 123.935 317.77 124.055C317.902 124.175 318.091 124.235 318.337 124.235H318.454C318.514 124.235 318.544 124.367 318.544 124.631C318.544 124.877 318.514 125 318.454 125H318.337C318.175 125 318.022 124.973 317.878 124.919C317.74 124.859 317.638 124.784 317.572 124.694V124.811C317.566 125.291 317.464 125.711 317.266 126.071C317.068 126.431 316.792 126.707 316.438 126.899C316.09 127.097 315.685 127.196 315.223 127.196H314.593L314.521 126.431H315.205C315.715 126.431 316.114 126.281 316.402 125.981C316.69 125.681 316.834 125.267 316.834 124.739V122.111H317.572V123.533ZM318.847 124.235C319.201 124.235 319.489 124.22 319.711 124.19C319.939 124.154 320.119 124.1 320.251 124.028L319.036 122.273L319.441 121.517H321.745C322.093 121.517 322.375 121.598 322.591 121.76C322.813 121.922 322.924 122.156 322.924 122.462C322.924 122.624 322.891 122.777 322.825 122.921C322.759 123.065 322.642 123.23 322.474 123.416C322.306 123.596 322.066 123.818 321.754 124.082C321.892 124.142 322.03 124.184 322.168 124.208C322.306 124.226 322.516 124.235 322.798 124.235H323.68C323.704 124.235 323.725 124.262 323.743 124.316C323.761 124.364 323.77 124.469 323.77 124.631C323.77 124.787 323.761 124.889 323.743 124.937C323.731 124.979 323.71 125 323.68 125H322.798C322.414 125 322.108 124.988 321.88 124.964C321.652 124.934 321.466 124.886 321.322 124.82C321.184 124.754 321.052 124.661 320.926 124.541C320.656 124.715 320.362 124.835 320.044 124.901C319.732 124.967 319.324 125 318.82 125H318.271C318.211 125 318.181 124.877 318.181 124.631C318.181 124.469 318.19 124.364 318.208 124.316C318.226 124.262 318.247 124.235 318.271 124.235H318.847ZM322.204 122.615C322.204 122.489 322.153 122.393 322.051 122.327C321.955 122.261 321.82 122.228 321.646 122.228H319.855L321.007 123.92C321.337 123.65 321.586 123.434 321.754 123.272C321.928 123.11 322.045 122.981 322.105 122.885C322.171 122.783 322.204 122.693 322.204 122.615ZM326.062 121.418C326.596 121.418 327.007 121.574 327.295 121.886C327.583 122.192 327.727 122.639 327.727 123.227V123.272C327.727 123.812 327.577 124.235 327.277 124.541C326.977 124.847 326.563 125 326.035 125C325.723 125 325.462 124.952 325.252 124.856C325.042 124.76 324.883 124.619 324.775 124.433C324.673 124.631 324.538 124.775 324.37 124.865C324.202 124.955 323.98 125 323.704 125H323.497C323.437 125 323.407 124.877 323.407 124.631C323.407 124.469 323.416 124.364 323.434 124.316C323.452 124.262 323.473 124.235 323.497 124.235H323.704C323.92 124.235 324.082 124.187 324.19 124.091C324.298 123.995 324.352 123.848 324.352 123.65V123.272C324.352 122.69 324.502 122.237 324.802 121.913C325.108 121.583 325.528 121.418 326.062 121.418ZM326.035 122.156C325.717 122.156 325.48 122.246 325.324 122.426C325.168 122.606 325.09 122.879 325.09 123.245V123.29C325.09 123.59 325.171 123.824 325.333 123.992C325.501 124.154 325.735 124.235 326.035 124.235C326.347 124.235 326.581 124.154 326.737 123.992C326.899 123.83 326.98 123.59 326.98 123.272V123.227C326.98 122.867 326.902 122.6 326.746 122.426C326.596 122.246 326.359 122.156 326.035 122.156ZM338.545 123.515C338.545 123.743 338.608 123.92 338.734 124.046C338.866 124.172 339.055 124.235 339.301 124.235C339.553 124.235 339.745 124.172 339.877 124.046C340.015 123.92 340.084 123.743 340.084 123.515V122.111H340.822V123.497C340.822 123.965 340.684 124.334 340.408 124.604C340.138 124.868 339.769 125 339.301 125C339.001 125 338.755 124.952 338.563 124.856C338.371 124.76 338.23 124.622 338.14 124.442C338.032 124.622 337.876 124.76 337.672 124.856C337.474 124.952 337.237 125 336.961 125C336.757 125 336.586 124.976 336.448 124.928C336.31 124.88 336.211 124.814 336.151 124.73V124.847C336.145 125.309 336.037 125.717 335.827 126.071C335.617 126.431 335.326 126.707 334.954 126.899C334.588 127.097 334.171 127.196 333.703 127.196H333.307C332.551 127.196 331.969 126.977 331.561 126.539C331.153 126.107 330.949 125.495 330.949 124.703V123.011H331.696V124.685C331.696 125.255 331.831 125.687 332.101 125.981C332.377 126.281 332.785 126.431 333.325 126.431H333.703C334.045 126.431 334.345 126.362 334.603 126.224C334.861 126.092 335.059 125.9 335.197 125.648C335.341 125.396 335.413 125.099 335.413 124.757V122.111H336.151V123.533C336.151 123.749 336.217 123.92 336.349 124.046C336.487 124.172 336.691 124.235 336.961 124.235C337.231 124.235 337.438 124.172 337.582 124.046C337.726 123.914 337.798 123.737 337.798 123.515V122.111H338.545V123.515ZM337.762 119.789V119.069H338.581V119.789H337.762ZM338.131 121.022V120.311H339.364V121.022H338.131ZM336.988 121.022V120.311H338.221V121.022H336.988ZM345.483 124.811C345.483 125.279 345.384 125.693 345.186 126.053C344.994 126.419 344.721 126.701 344.367 126.899C344.019 127.097 343.611 127.196 343.143 127.196H342.054L341.982 126.431H343.143C343.467 126.431 343.749 126.371 343.989 126.251C344.229 126.137 344.412 125.975 344.538 125.765C344.67 125.555 344.736 125.315 344.736 125.045V125H343.872C343.284 125 342.843 124.868 342.549 124.604C342.261 124.34 342.117 123.941 342.117 123.407V123.362C342.117 122.984 342.186 122.648 342.324 122.354C342.468 122.06 342.669 121.832 342.927 121.67C343.185 121.502 343.476 121.418 343.8 121.418C344.322 121.418 344.733 121.595 345.033 121.949C345.333 122.297 345.483 122.783 345.483 123.407V124.811ZM342.855 123.362C342.855 123.68 342.93 123.905 343.08 124.037C343.236 124.169 343.5 124.235 343.872 124.235H344.736V123.407C344.736 123.005 344.652 122.696 344.484 122.48C344.322 122.264 344.085 122.156 343.773 122.156C343.497 122.156 343.275 122.261 343.107 122.471C342.939 122.681 342.855 122.963 342.855 123.317V123.362ZM345.985 126.431C346.495 126.431 346.894 126.281 347.182 125.981C347.47 125.681 347.614 125.267 347.614 124.739V122.111H348.352V123.533C348.352 123.761 348.418 123.935 348.55 124.055C348.682 124.175 348.871 124.235 349.117 124.235H349.234C349.294 124.235 349.324 124.367 349.324 124.631C349.324 124.877 349.294 125 349.234 125H349.117C348.955 125 348.802 124.973 348.658 124.919C348.52 124.859 348.418 124.784 348.352 124.694V124.811C348.346 125.297 348.241 125.72 348.037 126.08C347.839 126.44 347.563 126.716 347.209 126.908C346.855 127.1 346.453 127.196 346.003 127.196H345.751L345.679 126.431H345.985ZM350.636 124.235C350.738 124.235 350.825 124.232 350.897 124.226C350.969 124.22 351.041 124.211 351.113 124.199C350.783 124.073 350.525 123.947 350.339 123.821C350.159 123.689 350.027 123.542 349.943 123.38C349.859 123.212 349.817 123.011 349.817 122.777C349.817 122.465 349.892 122.18 350.042 121.922C350.192 121.658 350.399 121.451 350.663 121.301C350.927 121.151 351.221 121.076 351.545 121.076C352.097 121.076 352.523 121.247 352.823 121.589C353.129 121.925 353.282 122.402 353.282 123.02V123.317C353.282 123.869 353.096 124.289 352.724 124.577C352.352 124.859 351.806 125 351.086 125H349.052C348.992 125 348.962 124.877 348.962 124.631C348.962 124.469 348.971 124.364 348.989 124.316C349.007 124.262 349.028 124.235 349.052 124.235H350.636ZM352.22 124.055C352.322 123.971 352.4 123.863 352.454 123.731C352.508 123.599 352.535 123.44 352.535 123.254V123.056C352.535 122.642 352.451 122.333 352.283 122.129C352.121 121.919 351.875 121.814 351.545 121.814C351.365 121.814 351.2 121.859 351.05 121.949C350.9 122.033 350.78 122.15 350.69 122.3C350.606 122.444 350.564 122.603 350.564 122.777C350.564 122.969 350.612 123.134 350.708 123.272C350.804 123.41 350.969 123.539 351.203 123.659C351.437 123.779 351.776 123.911 352.22 124.055ZM351.059 120.077V119.33H351.995V120.077H351.059Z" fill="white"/>
<path d="M40.5623 97.805L41.3423 97.61V89.29L40.5623 89.095V88.9H47.5173V91.24H47.1273C46.9626 91.11 46.8196 90.9453 46.6983 90.746C46.421 90.278 46.2823 89.771 46.2823 89.225H43.4873V93.32H44.9823C45.043 92.9907 45.1556 92.683 45.3203 92.397C45.3896 92.267 45.472 92.1413 45.5673 92.02H45.9573V94.945H45.5673C45.472 94.8237 45.3896 94.698 45.3203 94.568C45.1556 94.282 45.043 93.9743 44.9823 93.645H43.4873V97.675H46.5423C46.5423 97.129 46.681 96.622 46.9583 96.154C47.0796 95.9547 47.2226 95.79 47.3873 95.66H47.7773V98H40.5623V97.805ZM48.6812 97.805L49.4612 97.61V89.29L48.6812 89.095V88.9H52.3862V89.095L51.6062 89.29V97.675H54.4012C54.4012 97.129 54.5399 96.622 54.8172 96.154C54.9385 95.9547 55.0815 95.79 55.2462 95.66H55.6362V98H48.6812V97.805ZM56.3558 97.805L57.1358 97.61V89.29L56.3558 89.095V88.9H63.3108V91.24H62.9208C62.7561 91.11 62.6131 90.9453 62.4918 90.746C62.2144 90.278 62.0758 89.771 62.0758 89.225H59.2808V93.32H60.7758C60.8364 92.9907 60.9491 92.683 61.1138 92.397C61.1831 92.267 61.2654 92.1413 61.3608 92.02H61.7508V94.945H61.3608C61.2654 94.8237 61.1831 94.698 61.1138 94.568C60.9491 94.282 60.8364 93.9743 60.7758 93.645H59.2808V97.675H62.3358C62.3358 97.129 62.4744 96.622 62.7518 96.154C62.8731 95.9547 63.0161 95.79 63.1808 95.66H63.5708V98H56.3558V97.805ZM68.7027 98.195C67.3161 98.195 66.2327 97.7833 65.4527 96.96C64.6727 96.1367 64.2827 94.9667 64.2827 93.45C64.2827 92.4533 64.4517 91.5997 64.7897 90.889C65.1364 90.1697 65.6174 89.628 66.2327 89.264C66.8567 88.8913 67.5761 88.705 68.3907 88.705C68.8847 88.705 69.3831 88.848 69.8857 89.134C70.0764 89.238 70.2671 89.3767 70.4577 89.55C70.6051 89.3247 70.7567 89.147 70.9127 89.017C71.0687 88.9043 71.1554 88.8437 71.1727 88.835H71.4977V91.305H70.9777C70.8651 90.889 70.6961 90.512 70.4707 90.174C70.2627 89.8447 70.0027 89.5717 69.6907 89.355C69.3874 89.1383 69.0364 89.03 68.6377 89.03C68.0397 89.03 67.5414 89.3767 67.1427 90.07C66.7527 90.7633 66.5577 91.89 66.5577 93.45C66.5577 95.036 66.7701 96.1713 67.1947 96.856C67.6281 97.532 68.2174 97.87 68.9627 97.87C69.3701 97.87 69.7557 97.7573 70.1197 97.532C70.4924 97.298 70.7914 96.9903 71.0167 96.609C71.2507 96.2277 71.3677 95.8247 71.3677 95.4H71.6927C71.6927 95.894 71.5584 96.3577 71.2897 96.791C71.0297 97.2157 70.6701 97.558 70.2107 97.818C69.7601 98.0693 69.2574 98.195 68.7027 98.195ZM73.9139 97.805L74.6939 97.61V89.225H73.1989C73.1989 89.7537 73.0559 90.2607 72.7699 90.746C72.6486 90.9453 72.5099 91.11 72.3539 91.24H71.9639V88.9H79.5689V91.24H79.1789C79.0142 91.11 78.8712 90.9453 78.7499 90.746C78.4726 90.278 78.3339 89.771 78.3339 89.225H76.8389V97.61L77.6189 97.805V98H73.9139V97.805ZM84.187 98.195C83.3376 98.195 82.5923 98.013 81.951 97.649C81.3183 97.2763 80.8286 96.7347 80.482 96.024C80.1353 95.3133 79.962 94.4553 79.962 93.45C79.962 92.4447 80.1353 91.5867 80.482 90.876C80.8286 90.1653 81.3183 89.628 81.951 89.264C82.5923 88.8913 83.3376 88.705 84.187 88.705C85.0363 88.705 85.7773 88.8913 86.41 89.264C87.0513 89.628 87.5453 90.1653 87.892 90.876C88.2386 91.5867 88.412 92.4447 88.412 93.45C88.412 94.4553 88.2386 95.3133 87.892 96.024C87.5453 96.7347 87.0513 97.2763 86.41 97.649C85.7773 98.013 85.0363 98.195 84.187 98.195ZM84.187 97.935C84.525 97.935 84.837 97.792 85.123 97.506C85.4176 97.22 85.6603 96.7433 85.851 96.076C86.0416 95.4087 86.137 94.5333 86.137 93.45C86.137 92.3667 86.0416 91.4913 85.851 90.824C85.6603 90.1567 85.4176 89.68 85.123 89.394C84.837 89.108 84.525 88.965 84.187 88.965C83.849 88.965 83.5326 89.108 83.238 89.394C82.952 89.68 82.7136 90.1567 82.523 90.824C82.3323 91.4913 82.237 92.3667 82.237 93.45C82.237 94.5333 82.3323 95.4087 82.523 96.076C82.7136 96.7433 82.952 97.22 83.238 97.506C83.5326 97.792 83.849 97.935 84.187 97.935ZM42.9196 121.11V127.415L43.9596 127.805V128H41.4896V127.805L42.5296 127.415V119.355L41.6196 119.095V118.9H42.9846C43.4439 118.9 43.8036 118.982 44.0636 119.147C44.3236 119.312 44.5706 119.533 44.8046 119.81L48.9646 124.685V119.485L47.9246 119.095V118.9H50.3946V119.095L49.3546 119.485V128.195H48.9646L42.9196 121.11ZM49.8091 127.805L50.8491 127.415L54.4241 118.77H54.8141L58.5191 127.61L59.1691 127.805V128H57.6091C57.1584 128 56.7901 127.9 56.5041 127.701C56.2181 127.493 56.0057 127.224 55.8671 126.895L55.2041 125.335H52.0971L51.2391 127.415L52.2141 127.805V128H49.8091V127.805ZM52.2271 125.01H55.0741L53.6441 121.591L52.2271 125.01ZM60.465 120.525V127.415L61.505 127.805V128H59.035V127.805L60.075 127.415V119.29L59.295 119.095V118.9H60.92C61.3707 118.9 61.726 118.995 61.986 119.186C62.2547 119.368 62.4843 119.641 62.675 120.005L65.509 125.426L67.68 120.005C67.8273 119.624 68.0267 119.346 68.278 119.173C68.5293 118.991 68.915 118.9 69.435 118.9H70.8V119.095L70.02 119.29V127.61L70.8 127.805V128H67.095V127.805L67.875 127.61V120.525L64.82 128.13H64.43L60.465 120.525ZM70.541 127.805L71.581 127.415L75.156 118.77H75.546L79.251 127.61L79.901 127.805V128H78.341C77.8903 128 77.522 127.9 77.236 127.701C76.95 127.493 76.7377 127.224 76.599 126.895L75.936 125.335H72.829L71.971 127.415L72.946 127.805V128H70.541V127.805ZM72.959 125.01H75.806L74.376 121.591L72.959 125.01ZM81.197 121.11V127.415L82.237 127.805V128H79.767V127.805L80.807 127.415V119.355L79.897 119.095V118.9H81.262C81.7213 118.9 82.081 118.982 82.341 119.147C82.601 119.312 82.848 119.533 83.082 119.81L87.242 124.685V119.485L86.202 119.095V118.9H88.672V119.095L87.632 119.485V128.195H87.242L81.197 121.11Z" fill="white"/>
<path opacity="0.8" d="M113.567 180.832C113.567 180.304 113.538 179.845 113.479 179.456C113.426 179.067 113.322 178.597 113.167 178.048L113.575 177.888C113.74 178.437 113.85 178.912 113.903 179.312C113.962 179.707 113.991 180.213 113.991 180.832V183H113.567V180.832ZM116.707 180.208C116.59 180.091 116.499 179.955 116.435 179.8C116.377 179.645 116.347 179.48 116.347 179.304C116.347 179.032 116.409 178.789 116.531 178.576C116.659 178.357 116.833 178.189 117.051 178.072C117.27 177.949 117.515 177.888 117.787 177.888C118.075 177.888 118.382 177.968 118.707 178.128L118.563 178.504C118.286 178.381 118.03 178.32 117.795 178.32C117.491 178.32 117.243 178.413 117.051 178.6C116.865 178.787 116.771 179.029 116.771 179.328C116.771 179.589 116.851 179.816 117.011 180.008C117.177 180.195 117.379 180.288 117.619 180.288C117.785 180.288 117.979 180.259 118.203 180.2C118.427 180.141 118.641 180.061 118.843 179.96L118.979 180.352C118.441 180.597 117.915 180.72 117.403 180.72C117.089 180.72 116.806 180.677 116.555 180.592C116.305 180.501 116.11 180.387 115.971 180.248C115.982 180.381 115.987 180.589 115.987 180.872V183H115.563V180.832C115.563 180.304 115.534 179.845 115.475 179.456C115.422 179.067 115.318 178.597 115.163 178.048L115.563 177.888C115.707 178.411 115.825 178.939 115.915 179.472C115.942 179.627 116.017 179.771 116.139 179.904C116.262 180.037 116.451 180.139 116.707 180.208ZM121.55 179.256C121.806 179.256 122.052 179.328 122.286 179.472C122.521 179.616 122.71 179.803 122.854 180.032C122.998 180.261 123.07 180.499 123.07 180.744C123.07 180.989 122.998 181.227 122.854 181.456C122.71 181.685 122.521 181.872 122.286 182.016C122.052 182.16 121.806 182.232 121.55 182.232C121.3 182.232 121.057 182.16 120.822 182.016C120.588 181.872 120.398 181.685 120.254 181.456C120.11 181.227 120.038 180.989 120.038 180.744C120.038 180.499 120.11 180.261 120.254 180.032C120.398 179.803 120.588 179.616 120.822 179.472C121.057 179.328 121.3 179.256 121.55 179.256ZM121.55 181.816C121.726 181.816 121.9 181.765 122.07 181.664C122.241 181.557 122.38 181.421 122.486 181.256C122.598 181.091 122.654 180.92 122.654 180.744C122.654 180.568 122.598 180.397 122.486 180.232C122.38 180.067 122.241 179.933 122.07 179.832C121.9 179.725 121.726 179.672 121.55 179.672C121.374 179.672 121.201 179.725 121.03 179.832C120.86 179.933 120.718 180.067 120.606 180.232C120.5 180.397 120.446 180.568 120.446 180.744C120.446 180.92 120.5 181.091 120.606 181.256C120.718 181.421 120.86 181.557 121.03 181.664C121.201 181.765 121.374 181.816 121.55 181.816ZM125.575 180.208C125.457 180.091 125.367 179.955 125.303 179.8C125.244 179.645 125.215 179.48 125.215 179.304C125.215 179.032 125.276 178.789 125.399 178.576C125.527 178.357 125.7 178.189 125.919 178.072C126.137 177.949 126.383 177.888 126.655 177.888C126.943 177.888 127.249 177.968 127.575 178.128L127.431 178.504C127.153 178.381 126.897 178.32 126.663 178.32C126.359 178.32 126.111 178.413 125.919 178.6C125.732 178.787 125.639 179.029 125.639 179.328C125.639 179.589 125.719 179.816 125.879 180.008C126.044 180.195 126.247 180.288 126.487 180.288C126.652 180.288 126.847 180.259 127.071 180.2C127.295 180.141 127.508 180.061 127.711 179.96L127.847 180.352C127.308 180.597 126.783 180.72 126.271 180.72C125.956 180.72 125.673 180.677 125.423 180.592C125.172 180.501 124.977 180.387 124.839 180.248C124.849 180.381 124.855 180.589 124.855 180.872V183H124.431V180.832C124.431 180.304 124.401 179.845 124.343 179.456C124.289 179.067 124.185 178.597 124.031 178.048L124.431 177.888C124.575 178.411 124.692 178.939 124.783 179.472C124.809 179.627 124.884 179.771 125.007 179.904C125.129 180.037 125.319 180.139 125.575 180.208ZM130.264 184.544C130.776 184.544 131.179 184.389 131.472 184.08C131.765 183.776 131.912 183.352 131.912 182.808V180.544H132.336V181.864C132.336 182.077 132.403 182.248 132.536 182.376C132.675 182.499 132.864 182.56 133.104 182.56H133.192C133.245 182.56 133.272 182.635 133.272 182.784C133.272 182.928 133.245 183 133.192 183H133.104C132.939 183 132.781 182.968 132.632 182.904C132.488 182.84 132.389 182.757 132.336 182.656V182.832C132.331 183.275 132.24 183.659 132.064 183.984C131.888 184.309 131.645 184.555 131.336 184.72C131.032 184.891 130.685 184.976 130.296 184.976H130.08L130.032 184.544H130.264ZM133.99 182.56C134.251 182.56 134.457 182.499 134.606 182.376C134.755 182.248 134.83 182.075 134.83 181.856V180.544H135.254V181.848C135.254 182.077 135.321 182.253 135.454 182.376C135.587 182.499 135.779 182.56 136.03 182.56H136.174C136.227 182.56 136.254 182.635 136.254 182.784C136.254 182.928 136.227 183 136.174 183H136.022C135.766 183 135.553 182.957 135.382 182.872C135.217 182.781 135.099 182.648 135.03 182.472C134.934 182.648 134.795 182.781 134.614 182.872C134.438 182.957 134.23 183 133.99 183H133.03C132.977 183 132.95 182.928 132.95 182.784C132.95 182.635 132.977 182.56 133.03 182.56H133.99ZM133.582 179.52V179.088H135.582V179.52H133.582ZM141.051 182.56C141.104 182.56 141.131 182.635 141.131 182.784C141.131 182.928 141.104 183 141.051 183C140.757 183 140.523 183.021 140.347 183.064C140.171 183.112 140.021 183.192 139.899 183.304C139.781 183.421 139.669 183.589 139.563 183.808L139.003 184.92H138.763C138.165 184.92 137.699 184.763 137.363 184.448C137.027 184.139 136.859 183.693 136.859 183.112V183H136.011C135.957 183 135.931 182.928 135.931 182.784C135.931 182.635 135.957 182.56 136.011 182.56H136.859V181.616C136.859 181.088 136.987 180.675 137.243 180.376C137.504 180.072 137.867 179.92 138.331 179.92C138.763 179.92 139.101 180.045 139.347 180.296C139.592 180.541 139.715 180.88 139.715 181.312C139.715 181.643 139.613 181.936 139.411 182.192C139.213 182.443 138.931 182.637 138.563 182.776C138.2 182.915 137.773 182.987 137.283 182.992V183.096C137.283 183.565 137.405 183.915 137.651 184.144C137.896 184.379 138.253 184.496 138.723 184.496H138.763L139.219 183.584C139.357 183.312 139.501 183.104 139.651 182.96C139.805 182.816 139.992 182.715 140.211 182.656C140.429 182.592 140.709 182.56 141.051 182.56ZM139.283 181.32C139.283 181.005 139.197 180.765 139.027 180.6C138.861 180.429 138.621 180.344 138.307 180.344C137.971 180.344 137.715 180.453 137.539 180.672C137.368 180.891 137.283 181.205 137.283 181.616V182.56C137.917 182.56 138.408 182.453 138.755 182.24C139.107 182.027 139.283 181.72 139.283 181.32ZM142.954 181.808C142.954 182.181 142.842 182.475 142.618 182.688C142.399 182.896 142.108 183 141.746 183H140.89C140.836 183 140.81 182.928 140.81 182.784C140.81 182.635 140.836 182.56 140.89 182.56H141.746C141.986 182.56 142.175 182.499 142.314 182.376C142.458 182.248 142.53 182.069 142.53 181.84V180.544H142.954V181.808ZM141.186 184.616V184.12H141.874V184.616H141.186ZM146.439 182.56H149.591C149.645 182.56 149.671 182.635 149.671 182.784C149.671 182.928 149.645 183 149.591 183H148.695C148.802 183.101 148.855 183.253 148.855 183.456C148.855 183.755 148.767 184.019 148.591 184.248C148.421 184.477 148.173 184.656 147.847 184.784C147.522 184.912 147.143 184.976 146.711 184.976H146.087C145.437 184.976 144.933 184.784 144.575 184.4C144.223 184.021 144.047 183.485 144.047 182.792V181.344H144.471V182.792C144.471 183.357 144.613 183.789 144.895 184.088C145.178 184.392 145.583 184.544 146.111 184.544H146.711C147.25 184.544 147.671 184.448 147.975 184.256C148.279 184.069 148.431 183.813 148.431 183.488C148.431 183.157 148.269 182.992 147.943 182.992H146.391L146.439 182.56ZM155.601 182.56C156.017 182.56 156.316 182.485 156.497 182.336C156.678 182.181 156.769 181.923 156.769 181.56C156.769 181.187 156.678 180.925 156.497 180.776C156.321 180.627 156.012 180.552 155.569 180.552H150.305V180.136L153.009 178.184L153.233 178.544L150.993 180.128H155.609C156.158 180.128 156.558 180.243 156.809 180.472C157.065 180.696 157.193 181.059 157.193 181.56C157.193 182.045 157.062 182.408 156.801 182.648C156.545 182.883 156.145 183 155.601 183H149.433C149.38 183 149.353 182.928 149.353 182.784C149.353 182.635 149.38 182.56 149.433 182.56H155.601ZM162.056 183.24V177.568H162.48V183.24H162.056ZM169.381 184.976C168.731 184.976 168.227 184.784 167.869 184.4C167.517 184.021 167.341 183.485 167.341 182.792V181.344H167.765V182.792C167.765 183.357 167.907 183.789 168.189 184.088C168.472 184.392 168.877 184.544 169.405 184.544H169.757C170.088 184.544 170.381 184.472 170.637 184.328C170.899 184.189 171.099 183.989 171.237 183.728C171.381 183.472 171.453 183.176 171.453 182.84V180.544H171.877V182.792C171.877 183.229 171.787 183.611 171.605 183.936C171.424 184.267 171.173 184.523 170.853 184.704C170.533 184.885 170.168 184.976 169.757 184.976H169.381ZM169.101 180.24V179.744H169.789V180.24H169.101ZM173.222 177.808H173.646V183H173.222V177.808ZM173.899 184.544C174.411 184.544 174.814 184.389 175.107 184.08C175.4 183.776 175.547 183.352 175.547 182.808V180.544H175.971V181.864C175.971 182.077 176.038 182.248 176.171 182.376C176.31 182.499 176.499 182.56 176.739 182.56H176.827C176.88 182.56 176.907 182.635 176.907 182.784C176.907 182.928 176.88 183 176.827 183H176.739C176.574 183 176.416 182.968 176.267 182.904C176.123 182.84 176.024 182.757 175.971 182.656V182.832C175.966 183.275 175.875 183.659 175.699 183.984C175.523 184.309 175.28 184.555 174.971 184.72C174.667 184.891 174.32 184.976 173.931 184.976H173.715L173.667 184.544H173.899ZM178.569 182.56C178.804 182.56 178.99 182.499 179.129 182.376C179.273 182.248 179.345 182.069 179.345 181.84V180.544H179.769V181.808C179.769 182.181 179.657 182.475 179.433 182.688C179.214 182.896 178.926 183 178.569 183H176.665C176.612 183 176.585 182.928 176.585 182.784C176.585 182.635 176.612 182.56 176.665 182.56H178.569ZM176.745 184.552V184.12H178.745V184.552H176.745ZM181.102 177.808H181.526V183H181.102V177.808ZM185.087 181.2C185.087 181.515 185.159 181.752 185.303 181.912C185.452 182.067 185.684 182.144 185.999 182.144C186.335 182.144 186.601 182.083 186.799 181.96C186.996 181.832 187.095 181.667 187.095 181.464V180.064H186.151C185.825 180.064 185.567 180.165 185.375 180.368C185.183 180.565 185.087 180.843 185.087 181.2ZM187.519 181.608C187.519 181.939 187.577 182.181 187.695 182.336C187.817 182.485 187.996 182.56 188.231 182.56H188.383C188.436 182.56 188.463 182.635 188.463 182.784C188.463 182.928 188.436 183 188.383 183H188.231C187.948 183 187.716 182.928 187.535 182.784C187.359 182.64 187.244 182.427 187.191 182.144C187.079 182.288 186.911 182.397 186.687 182.472C186.468 182.547 186.225 182.584 185.959 182.584C185.537 182.584 185.215 182.469 184.991 182.24C184.772 182.011 184.663 181.675 184.663 181.232C184.663 180.928 184.724 180.656 184.847 180.416C184.975 180.176 185.151 179.987 185.375 179.848C185.604 179.709 185.863 179.64 186.151 179.64H187.095V179.056H187.519V181.608ZM190.284 181.808C190.284 182.181 190.172 182.475 189.948 182.688C189.73 182.896 189.439 183 189.076 183H188.22C188.167 183 188.14 182.928 188.14 182.784C188.14 182.635 188.167 182.56 188.22 182.56H189.076C189.316 182.56 189.506 182.499 189.644 182.376C189.788 182.248 189.86 182.069 189.86 181.84V180.544H190.284V181.808ZM188.516 184.616V184.12H189.204V184.616H188.516ZM197.643 182.56C197.904 182.56 198.11 182.499 198.259 182.376C198.408 182.248 198.483 182.075 198.483 181.856V180.544H198.907V181.848C198.907 182.077 198.974 182.253 199.107 182.376C199.24 182.499 199.432 182.56 199.683 182.56H199.827C199.88 182.56 199.907 182.635 199.907 182.784C199.907 182.928 199.88 183 199.827 183H199.675C199.158 183 198.827 182.824 198.683 182.472C198.587 182.648 198.448 182.781 198.267 182.872C198.091 182.957 197.883 183 197.643 183H194.699C194.24 183 193.899 182.88 193.675 182.64C193.451 182.395 193.339 182.072 193.339 181.672V180.544H193.763V181.608C193.763 181.907 193.84 182.141 193.995 182.312C194.155 182.477 194.403 182.56 194.739 182.56H197.643ZM195.107 179.76V179.328H197.107V179.76H195.107ZM201.95 179.92C202.409 179.92 202.758 180.053 202.998 180.32C203.238 180.587 203.358 180.979 203.358 181.496V181.536C203.358 181.995 203.233 182.355 202.982 182.616C202.731 182.872 202.385 183 201.942 183C201.377 183 200.99 182.808 200.782 182.424C200.707 182.627 200.595 182.773 200.446 182.864C200.297 182.955 200.094 183 199.838 183H199.67C199.617 183 199.59 182.928 199.59 182.784C199.59 182.635 199.617 182.56 199.67 182.56H199.838C200.057 182.56 200.225 182.509 200.342 182.408C200.459 182.307 200.518 182.157 200.518 181.96V181.536C200.518 181.029 200.643 180.635 200.894 180.352C201.145 180.064 201.497 179.92 201.95 179.92ZM201.942 180.344C201.601 180.344 201.347 180.443 201.182 180.64C201.022 180.832 200.942 181.128 200.942 181.528V181.568C200.942 181.888 201.03 182.133 201.206 182.304C201.382 182.475 201.627 182.56 201.942 182.56C202.267 182.56 202.513 182.475 202.678 182.304C202.849 182.128 202.934 181.872 202.934 181.536V181.496C202.934 181.112 202.851 180.824 202.686 180.632C202.526 180.44 202.278 180.344 201.942 180.344ZM206.38 182.56C206.599 182.56 206.778 182.512 206.916 182.416C207.055 182.315 207.124 182.184 207.124 182.024C207.124 181.923 207.092 181.771 207.028 181.568L206.204 179.224L206.596 179.04L207.548 181.8C207.644 182.077 207.754 182.275 207.876 182.392C207.999 182.504 208.17 182.56 208.388 182.56H208.524C208.578 182.56 208.604 182.635 208.604 182.784C208.604 182.875 208.596 182.933 208.58 182.96C208.57 182.987 208.551 183 208.524 183H208.372C207.892 183 207.567 182.813 207.396 182.44C207.242 182.813 206.903 183 206.38 183H204.46L204.404 182.56H206.38ZM208.91 182.56C209.315 182.56 209.656 182.525 209.934 182.456C210.216 182.387 210.494 182.272 210.766 182.112L212.262 181.248C212.155 180.907 212.014 180.672 211.838 180.544C211.662 180.411 211.4 180.344 211.054 180.344H209.166L209.214 179.904H211.126C211.435 179.904 211.691 179.952 211.894 180.048C212.096 180.144 212.264 180.299 212.398 180.512C212.536 180.725 212.656 181.019 212.758 181.392L210.966 182.472C210.656 182.659 210.347 182.795 210.038 182.88C209.734 182.96 209.352 183 208.894 183H208.366C208.312 183 208.286 182.928 208.286 182.784C208.286 182.635 208.312 182.56 208.366 182.56H208.91ZM210.174 178.936V178.44H210.862V178.936H210.174ZM219.97 183.192C219.97 182.979 219.911 182.821 219.794 182.72C219.682 182.613 219.506 182.56 219.266 182.56H217.746V181.184C217.746 180.773 217.874 180.435 218.13 180.168C218.386 179.901 218.727 179.768 219.154 179.768H220.138L220.186 180.192H219.154C218.855 180.192 218.615 180.283 218.434 180.464C218.258 180.64 218.17 180.877 218.17 181.176V182.128H219.338C219.679 182.128 219.941 182.219 220.122 182.4C220.303 182.581 220.394 182.832 220.394 183.152C220.394 183.483 220.298 183.787 220.106 184.064C219.914 184.347 219.653 184.568 219.322 184.728C218.991 184.893 218.631 184.976 218.242 184.976H217.618C216.967 184.976 216.463 184.784 216.106 184.4C215.754 184.021 215.578 183.485 215.578 182.792V181.344H216.002V182.792C216.002 183.357 216.143 183.789 216.426 184.088C216.709 184.392 217.114 184.544 217.642 184.544H218.242C218.567 184.544 218.861 184.483 219.122 184.36C219.389 184.243 219.597 184.08 219.746 183.872C219.895 183.669 219.97 183.443 219.97 183.192ZM223.044 182.56C223.097 182.56 223.124 182.635 223.124 182.784C223.124 182.928 223.097 183 223.044 183H222.884C222.505 183 222.22 182.885 222.028 182.656C221.836 182.421 221.74 182.093 221.74 181.672V177.808H222.164V181.648C222.164 182.256 222.409 182.56 222.9 182.56H223.044ZM223.842 182.56C224.103 182.56 224.309 182.499 224.458 182.376C224.607 182.248 224.682 182.075 224.682 181.856V180.544H225.106V181.848C225.106 182.077 225.173 182.253 225.306 182.376C225.439 182.499 225.631 182.56 225.882 182.56H226.026C226.079 182.56 226.106 182.635 226.106 182.784C226.106 182.928 226.079 183 226.026 183H225.874C225.618 183 225.405 182.957 225.234 182.872C225.069 182.781 224.951 182.648 224.882 182.472C224.786 182.648 224.647 182.781 224.466 182.872C224.29 182.957 224.082 183 223.842 183H222.882C222.829 183 222.802 182.928 222.802 182.784C222.802 182.635 222.829 182.56 222.882 182.56H223.842ZM223.434 179.52V179.088H225.434V179.52H223.434ZM226.471 182.56C226.743 182.56 226.956 182.496 227.111 182.368C227.265 182.235 227.343 182.059 227.343 181.84V180.544H227.767V181.84C227.767 182.075 227.836 182.253 227.975 182.376C228.113 182.499 228.313 182.56 228.575 182.56C228.841 182.56 229.052 182.496 229.207 182.368C229.361 182.235 229.439 182.059 229.439 181.84V180.544H229.863V181.84C229.863 182.069 229.929 182.248 230.063 182.376C230.196 182.499 230.385 182.56 230.631 182.56C230.881 182.56 231.076 182.499 231.215 182.376C231.359 182.248 231.431 182.069 231.431 181.84V180.544H231.855V181.808C231.855 182.181 231.743 182.475 231.519 182.688C231.295 182.896 230.999 183 230.631 183C230.38 183 230.169 182.955 229.999 182.864C229.828 182.768 229.705 182.632 229.631 182.456C229.54 182.632 229.401 182.768 229.215 182.864C229.033 182.955 228.82 183 228.575 183C228.303 183 228.079 182.955 227.903 182.864C227.727 182.768 227.604 182.632 227.535 182.456C227.439 182.632 227.3 182.768 227.119 182.864C226.937 182.955 226.721 183 226.471 183H225.863C225.809 183 225.783 182.928 225.783 182.784C225.783 182.635 225.809 182.56 225.863 182.56H226.471ZM233.198 177.808H233.622V183H233.198V177.808ZM235.946 182.808C235.946 183.256 235.858 183.643 235.682 183.968C235.506 184.299 235.264 184.549 234.954 184.72C234.65 184.891 234.301 184.976 233.906 184.976H233.69L233.642 184.544H233.874C234.386 184.544 234.789 184.389 235.082 184.08C235.376 183.776 235.522 183.352 235.522 182.808V180.544H235.946V182.808ZM240.517 182.808C240.517 183.256 240.429 183.643 240.253 183.968C240.077 184.299 239.834 184.549 239.525 184.72C239.221 184.891 238.871 184.976 238.477 184.976H238.261L238.213 184.544H238.445C238.957 184.544 239.359 184.389 239.653 184.08C239.946 183.776 240.093 183.352 240.093 182.808V180.544H240.517V182.808ZM243.223 179.08L244.839 180.904C245.143 181.251 245.295 181.581 245.295 181.896C245.295 182.232 245.18 182.501 244.951 182.704C244.727 182.901 244.409 183 243.999 183H241.615L241.559 182.56H243.999C244.271 182.56 244.481 182.501 244.631 182.384C244.785 182.267 244.863 182.112 244.863 181.92C244.863 181.691 244.74 181.437 244.495 181.16L242.919 179.376L243.223 179.08Z" fill="white"/>
</svg>
