<svg width="298" height="49" viewBox="0 0 298 49" fill="none" xmlns="http://www.w3.org/2000/svg">
<path d="M5.87351 35.4797C5.7521 35.8682 5.60642 36.3113 5.43645 36.8091C5.27862 37.3068 5.07223 37.7742 4.81728 38.2113C4.57448 38.6483 4.27703 39.0186 3.92496 39.3221C3.57289 39.6257 3.15404 39.7774 2.66842 39.7774C2.52274 39.7774 2.34063 39.8017 2.1221 39.8503C1.91571 39.8867 1.69718 39.9352 1.46652 39.9959C1.23585 40.0566 1.01125 40.1173 0.792719 40.178C0.574191 40.2387 0.386014 40.2934 0.228188 40.3419C0.228188 40.0506 0.30103 39.8138 0.446716 39.6317C0.592402 39.4496 0.732017 39.3161 0.865562 39.2311C1.4483 38.8547 1.98249 38.4784 2.4681 38.102C2.96586 37.7135 3.40899 37.3008 3.79749 36.8637C4.19812 36.4145 4.55019 35.9289 4.85371 35.4068C5.16936 34.8727 5.44252 34.2778 5.67319 33.6222C5.75817 33.4037 5.83101 33.1791 5.89172 32.9484C5.96456 32.7177 6.03133 32.4871 6.09203 32.2564C6.10417 32.1835 6.12846 32.0864 6.16488 31.965C6.21344 31.8436 6.26807 31.7283 6.32877 31.619C6.40162 31.4976 6.4866 31.3944 6.58372 31.3094C6.68085 31.2244 6.80225 31.182 6.94794 31.182C6.88723 31.2791 6.83867 31.4126 6.80225 31.5826C6.77797 31.7526 6.75369 31.8922 6.72941 32.0014C6.59586 32.6449 6.45625 33.258 6.31056 33.8407C6.17702 34.4235 6.03133 34.9698 5.87351 35.4797ZM8.40735 40.3237C8.51662 40.0324 8.60767 39.6621 8.68051 39.2129C8.75336 38.7637 8.80799 38.2781 8.84441 37.756C8.89297 37.2218 8.92939 36.6694 8.95368 36.0988C8.97796 35.5161 8.9901 34.9516 8.9901 34.4053C9.00224 33.8589 9.00831 33.349 9.00831 32.8756C9.00831 32.4021 9.00831 31.9954 9.00831 31.6554C9.00831 31.3155 9.03866 30.9938 9.09936 30.6903C9.1722 30.3746 9.26326 30.0772 9.37252 29.7979C9.48179 29.5066 9.60319 29.2273 9.73674 28.9603C9.87028 28.681 10.0099 28.4018 10.1556 28.1226C10.3255 27.7826 10.4894 27.473 10.6473 27.1938C10.8051 26.9146 10.9508 26.6536 11.0843 26.4108C11.1815 26.2408 11.2725 26.0708 11.3575 25.9009C11.4425 25.7309 11.5335 25.5609 11.6306 25.391C11.7035 25.4517 11.7703 25.567 11.831 25.737C11.8917 25.9069 11.8735 26.1315 11.7763 26.4108C11.5821 26.9328 11.4364 27.552 11.3393 28.2682C11.2543 28.9724 11.1875 29.7069 11.139 30.4717C11.0904 31.2244 11.0479 31.9711 11.0115 32.7117C10.9872 33.4522 10.9508 34.1139 10.9022 34.6966C10.8537 35.2551 10.7565 35.8621 10.6108 36.5177C10.4773 37.1733 10.3013 37.7864 10.0827 38.357C9.86421 38.9154 9.60926 39.3828 9.31789 39.7592C9.03866 40.1356 8.73515 40.3237 8.40735 40.3237ZM11.8773 40.3237C11.8773 40.1295 11.8956 39.9656 11.932 39.832C11.9805 39.6985 12.0473 39.5832 12.1323 39.486C12.2294 39.3768 12.3448 39.2736 12.4783 39.1765C12.624 39.0793 12.794 38.964 12.9882 38.8305C13.231 38.6726 13.5224 38.4844 13.8623 38.2659C14.2144 38.0353 14.5543 37.7924 14.8821 37.5375C15.222 37.2825 15.5256 37.0337 15.7926 36.7909C16.0719 36.5359 16.254 36.3113 16.339 36.1171C16.1811 36.1899 15.9808 36.2445 15.738 36.281C15.5073 36.3174 15.3252 36.3356 15.1917 36.3356C14.6211 36.3356 14.184 36.1899 13.8805 35.8985C13.5892 35.6072 13.4435 35.2854 13.4435 34.9334C13.4435 34.7877 13.486 34.6299 13.5709 34.4599C13.7166 34.1685 13.838 33.9196 13.9352 33.7132C14.0444 33.5069 14.1415 33.3187 14.2265 33.1487C14.3115 32.9666 14.3904 32.7966 14.4633 32.6388C14.5482 32.4688 14.6332 32.2746 14.7182 32.0561C14.7668 31.9468 14.8275 31.8254 14.9003 31.6919C14.9853 31.5583 15.0885 31.4369 15.2099 31.3276C15.3313 31.2062 15.4709 31.1091 15.6288 31.0363C15.7987 30.9513 15.993 30.9088 16.2115 30.9088C16.515 30.9088 16.7639 30.9756 16.9581 31.1091C17.1645 31.2427 17.3284 31.4248 17.4498 31.6554C17.5712 31.8861 17.6562 32.1471 17.7048 32.4385C17.7533 32.7299 17.7776 33.0334 17.7776 33.349C17.7776 33.7375 17.7351 34.1928 17.6501 34.7148C17.5652 35.2247 17.4316 35.7468 17.2495 36.281C17.0795 36.803 16.861 37.3008 16.5939 37.7742C16.339 38.2356 16.0415 38.6119 15.7016 38.9033C15.568 39.0126 15.4345 39.0854 15.301 39.1218C15.1674 39.1582 15.0521 39.1765 14.955 39.1765C14.6879 39.1765 14.4026 39.225 14.0991 39.3221C13.7955 39.4071 13.5042 39.5164 13.2249 39.6499C12.9457 39.7713 12.6847 39.8988 12.4419 40.0324C12.1991 40.1538 12.0109 40.2509 11.8773 40.3237ZM19.2385 40.3237C19.3477 40.0324 19.4388 39.6621 19.5116 39.2129C19.5845 38.7637 19.6391 38.2781 19.6755 37.756C19.7241 37.2218 19.7605 36.6694 19.7848 36.0988C19.8091 35.5161 19.8212 34.9516 19.8212 34.4053C19.8333 33.8589 19.8394 33.349 19.8394 32.8756C19.8394 32.4021 19.8394 31.9954 19.8394 31.6554C19.8394 31.3155 19.8698 30.9938 19.9305 30.6903C20.0033 30.3746 20.0944 30.0772 20.2036 29.7979C20.3129 29.5066 20.4343 29.2273 20.5678 28.9603C20.7014 28.681 20.841 28.4018 20.9867 28.1226C21.1566 27.7826 21.3205 27.473 21.4784 27.1938C21.6362 26.9146 21.7819 26.6536 21.9154 26.4108C22.0126 26.2408 22.1036 26.0708 22.1886 25.9009C22.2736 25.7309 22.3646 25.5609 22.4617 25.391C22.5346 25.4517 22.6014 25.567 22.6621 25.737C22.7228 25.9069 22.7046 26.1315 22.6074 26.4108C22.4132 26.9328 22.2675 27.552 22.1704 28.2682C22.0854 28.9724 22.0186 29.7069 21.9701 30.4717C21.9215 31.2244 21.879 31.9711 21.8426 32.7117C21.8183 33.4522 21.7819 34.1139 21.7333 34.6966C21.6848 35.2551 21.5876 35.8621 21.4419 36.5177C21.3084 37.1733 21.1324 37.7864 20.9138 38.357C20.6953 38.9154 20.4404 39.3828 20.149 39.7592C19.8698 40.1356 19.5662 40.3237 19.2385 40.3237ZM27.7497 22.4084C27.9803 22.4934 28.2049 22.5905 28.4235 22.6998C28.6541 22.8091 28.8605 22.9365 29.0426 23.0822C29.2247 23.2158 29.3704 23.3675 29.4797 23.5375C29.6011 23.7075 29.6618 23.8956 29.6618 24.102C29.6618 24.3084 29.6072 24.5209 29.4979 24.7394C29.4008 24.9579 29.2733 25.1704 29.1155 25.3768C28.9698 25.571 28.8059 25.7531 28.6238 25.9231C28.4538 26.0931 28.296 26.2266 28.1503 26.3237C28.0653 26.2145 27.9379 26.0931 27.7679 25.9595C27.5858 25.8138 27.3855 25.6742 27.1669 25.5407C26.9484 25.4071 26.7177 25.2857 26.4749 25.1765C26.2321 25.0672 26.0015 24.9822 25.7829 24.9215C25.9772 24.6666 26.1593 24.4298 26.3292 24.2113C26.4871 23.9928 26.6449 23.7864 26.8027 23.5921C26.9606 23.3857 27.1184 23.1915 27.2762 23.0094C27.4219 22.8151 27.5797 22.6148 27.7497 22.4084ZM19.4452 43.802C20.2464 43.3285 20.9202 42.8429 21.4666 42.3451C22.0129 41.8595 22.4985 41.3496 22.9234 40.8154C23.3362 40.2934 23.7247 39.7531 24.0889 39.1947C24.441 38.6241 24.8295 38.0292 25.2544 37.41C25.6914 36.7666 26.1892 36.0564 26.7477 35.2794C27.3061 34.4902 27.9253 33.7557 28.6052 33.0759C29.285 32.3839 30.0195 31.8072 30.8087 31.3459C31.6099 30.8845 32.4719 30.6538 33.3946 30.6538C33.6495 30.6538 33.9348 30.6781 34.2505 30.7267C34.5783 30.7631 34.8818 30.8299 35.161 30.927L36.3811 28.9967C36.8789 28.2318 37.4313 27.8494 38.0383 27.8494C38.1476 27.8494 38.2386 27.8615 38.3115 27.8858C38.3964 27.898 38.4814 27.904 38.5664 27.904C38.8578 27.904 39.0642 27.7401 39.1856 27.4123C39.2463 27.2424 39.2948 27.0845 39.3313 26.9389C39.3677 26.7932 39.4102 26.6718 39.4587 26.5746C39.5194 26.4775 39.5923 26.4047 39.6773 26.3561C39.7622 26.3076 39.8776 26.2893 40.0233 26.3015C40.0111 26.5564 39.9626 26.9146 39.8776 27.3759C39.7926 27.8373 39.6712 28.2986 39.5134 28.7599C39.3555 29.2213 39.1492 29.6219 38.8942 29.9618C38.6514 30.3018 38.36 30.4717 38.0201 30.4717C37.923 30.4717 37.8319 30.4596 37.7469 30.4353C37.6741 30.411 37.5891 30.3989 37.492 30.3989C37.322 30.3989 37.1642 30.4414 37.0185 30.5264C36.8728 30.6114 36.7453 30.7449 36.6361 30.927C36.4054 31.3155 36.1505 31.7222 35.8712 32.1471C35.592 32.572 35.3006 32.9605 34.9971 33.3126C34.7057 33.6647 34.4022 33.9561 34.0866 34.1867C33.7831 34.4174 33.4856 34.5327 33.1943 34.5327C33.0971 34.5327 32.9454 34.5145 32.739 34.4781C32.5326 34.4295 32.308 34.4053 32.0652 34.4053C30.8997 34.4053 29.8192 34.812 28.8237 35.6254C27.8403 36.4388 26.8326 37.6043 25.8007 39.1218C25.4122 39.6924 24.9569 40.2994 24.4349 40.9429C23.9007 41.5863 23.318 42.1873 22.6867 42.7458C22.0432 43.3164 21.3573 43.7959 20.6289 44.1844C19.8883 44.585 19.1235 44.8157 18.3343 44.8764C18.3343 44.7186 18.3829 44.579 18.48 44.4576C18.565 44.3483 18.6743 44.2451 18.8078 44.148C18.9292 44.063 19.0506 43.9902 19.172 43.9294C19.2934 43.8809 19.3845 43.8384 19.4452 43.802ZM42.9017 40.3237C43.011 40.0324 43.102 39.6621 43.1749 39.2129C43.2477 38.7637 43.3023 38.2781 43.3388 37.756C43.3873 37.2218 43.4237 36.6694 43.448 36.0988C43.4723 35.5161 43.4844 34.9516 43.4844 34.4053C43.4966 33.8589 43.5027 33.349 43.5027 32.8756C43.5027 32.4021 43.5027 31.9954 43.5027 31.6554C43.5027 31.3155 43.533 30.9938 43.5937 30.6903C43.6665 30.3746 43.7576 30.0772 43.8669 29.7979C43.9761 29.5066 44.0975 29.2273 44.2311 28.9603C44.3646 28.681 44.5042 28.4018 44.6499 28.1226C44.8199 27.7826 44.9838 27.473 45.1416 27.1938C45.2994 26.9146 45.4451 26.6536 45.5787 26.4108C45.6758 26.2408 45.7668 26.0708 45.8518 25.9009C45.9368 25.7309 46.0279 25.5609 46.125 25.391C46.1978 25.4517 46.2646 25.567 46.3253 25.737C46.386 25.9069 46.3678 26.1315 46.2707 26.4108C46.0764 26.9328 45.9307 27.552 45.8336 28.2682C45.7486 28.9724 45.6819 29.7069 45.6333 30.4717C45.5847 31.2244 45.5422 31.9711 45.5058 32.7117C45.4815 33.4522 45.4451 34.1139 45.3966 34.6966C45.348 35.2551 45.2509 35.8621 45.1052 36.5177C44.9716 37.1733 44.7956 37.7864 44.5771 38.357C44.3586 38.9154 44.1036 39.3828 43.8122 39.7592C43.533 40.1356 43.2295 40.3237 42.9017 40.3237ZM52.017 35.4797C51.8956 35.8682 51.7499 36.3113 51.58 36.8091C51.4221 37.3068 51.2157 37.7742 50.9608 38.2113C50.718 38.6483 50.4205 39.0186 50.0685 39.3221C49.7164 39.6257 49.2975 39.7774 48.8119 39.7774C48.6662 39.7774 48.4841 39.8017 48.2656 39.8503C48.0592 39.8867 47.8407 39.9352 47.61 39.9959C47.3793 40.0566 47.1547 40.1173 46.9362 40.178C46.7177 40.2387 46.5295 40.2934 46.3717 40.3419C46.3717 40.0506 46.4445 39.8138 46.5902 39.6317C46.7359 39.4496 46.8755 39.3161 47.0091 39.2311C47.5918 38.8547 48.126 38.4784 48.6116 38.102C49.1094 37.7135 49.5525 37.3008 49.941 36.8637C50.3416 36.4145 50.6937 35.9289 50.9972 35.4068C51.3129 34.8727 51.586 34.2778 51.8167 33.6222C51.9017 33.4037 51.9745 33.1791 52.0352 32.9484C52.1081 32.7177 52.1748 32.4871 52.2355 32.2564C52.2477 32.1835 52.272 32.0864 52.3084 31.965C52.3569 31.8436 52.4116 31.7283 52.4723 31.619C52.5451 31.4976 52.6301 31.3944 52.7272 31.3094C52.8243 31.2244 52.9458 31.182 53.0914 31.182C53.0307 31.2791 52.9822 31.4126 52.9458 31.5826C52.9215 31.7526 52.8972 31.8922 52.8729 32.0014C52.7394 32.6449 52.5997 33.258 52.4541 33.8407C52.3205 34.4235 52.1748 34.9698 52.017 35.4797ZM62.769 18.4084C62.9997 18.4934 63.2243 18.5905 63.4428 18.6998C63.6735 18.8091 63.8799 18.9365 64.062 19.0822C64.2441 19.2158 64.3898 19.3675 64.499 19.5375C64.6204 19.7075 64.6811 19.8956 64.6811 20.102C64.6811 20.3084 64.6265 20.5209 64.5172 20.7394C64.4201 20.9579 64.2926 21.1704 64.1348 21.3768C63.9891 21.571 63.8252 21.7531 63.6431 21.9231C63.4732 22.0931 63.3153 22.2266 63.1696 22.3237C63.0847 22.2145 62.9572 22.0931 62.7872 21.9595C62.6051 21.8138 62.4048 21.6742 62.1863 21.5407C61.9677 21.4071 61.7371 21.2857 61.4943 21.1765C61.2514 21.0672 61.0208 20.9822 60.8022 20.9215C60.9965 20.6666 61.1786 20.4298 61.3486 20.2113C61.5064 19.9928 61.6642 19.7864 61.822 19.5921C61.9799 19.3857 62.1377 19.1915 62.2955 19.0094C62.4412 18.8151 62.599 18.6148 62.769 18.4084ZM57.3744 48.5185C56.6459 48.5185 56.0328 48.3911 55.5351 48.1361C55.0252 47.8812 54.6185 47.5412 54.315 47.1163C53.9993 46.6914 53.7747 46.1997 53.6412 45.6413C53.4955 45.0828 53.4226 44.5001 53.4226 43.893C53.4226 42.9097 53.5865 41.8959 53.9143 40.8518C54.2421 39.8078 54.6488 38.7819 55.1345 37.7742C55.6201 36.7544 56.1482 35.7711 56.7188 34.8241C57.2772 33.8771 57.7871 33.0091 58.2485 32.22C58.3699 32.3535 58.4306 32.5053 58.4306 32.6752C58.4184 32.8331 58.382 32.997 58.3213 33.1669C58.2606 33.3247 58.1878 33.4765 58.1028 33.6222C58.0057 33.7679 57.9328 33.8893 57.8843 33.9864C57.168 35.3461 56.5913 36.6027 56.1543 37.756C55.7051 38.8972 55.4805 39.9899 55.4805 41.0339C55.4805 41.471 55.5412 41.8899 55.6626 42.2905C55.784 42.6911 55.9782 43.0432 56.2453 43.3467C56.5124 43.6502 56.8645 43.887 57.3015 44.0569C57.7386 44.239 58.2667 44.3301 58.8859 44.3301C59.9906 44.3301 60.9679 44.0873 61.8178 43.6017C62.6798 43.116 63.3839 42.4908 63.9302 41.726C63.0197 41.2889 62.3216 40.7851 61.836 40.2145C61.3625 39.6439 61.1258 38.9579 61.1258 38.1567C61.1258 37.5739 61.2411 36.9972 61.4718 36.4266C61.7024 35.856 61.9513 35.2794 62.2184 34.6966C62.4976 34.1139 62.7526 33.519 62.9833 32.912C63.2139 32.2928 63.3293 31.6554 63.3293 30.9999C63.3293 30.5142 63.1775 30.059 62.874 29.634C62.5705 29.197 62.1577 28.7964 61.6357 28.4321C61.6964 28.1651 61.7874 27.8797 61.9088 27.5762C62.0302 27.2727 62.1638 26.9692 62.3095 26.6657C62.4552 26.3622 62.6008 26.0769 62.7465 25.8098C62.9044 25.5427 63.05 25.3181 63.1836 25.136C63.8635 25.6095 64.343 26.2104 64.6222 26.9389C64.9136 27.6552 65.0593 28.42 65.0593 29.2334C65.0593 29.7433 64.9986 30.2411 64.8772 30.7267C64.7558 31.2123 64.604 31.6979 64.4219 32.1835C64.2398 32.657 64.0334 33.1426 63.8027 33.6404C63.5721 34.126 63.3475 34.6238 63.129 35.1337C62.9954 35.4493 62.9468 35.7407 62.9833 36.0078C63.0197 36.2749 63.1897 36.5116 63.4932 36.718C64.088 37.1186 64.4948 37.5132 64.7133 37.9017C64.944 38.2902 65.0593 38.7637 65.0593 39.3221C65.0593 39.9413 64.9622 40.5969 64.7679 41.2889C64.5737 41.993 64.3005 42.6851 63.9484 43.3649C63.6085 44.0569 63.1957 44.7125 62.7101 45.3317C62.2366 45.9508 61.7146 46.4972 61.144 46.9706C60.5734 47.4441 59.9724 47.8205 59.3411 48.0997C58.6977 48.3789 58.0421 48.5185 57.3744 48.5185ZM66.5208 35.6982C66.5208 34.5084 66.5755 33.3308 66.6847 32.1653C66.8061 30.9999 66.9458 29.8283 67.1036 28.6507C67.1279 28.4443 67.1521 28.2622 67.1764 28.1043C67.2128 27.9465 67.2614 27.8069 67.3221 27.6855C67.6135 27.1392 67.8866 26.5989 68.1416 26.0647C68.4087 25.5184 68.6636 24.9175 68.9064 24.2619C69.0764 24.3347 69.125 24.6686 69.0521 25.2635C68.9793 25.9191 68.9004 26.6171 68.8154 27.3577C68.7304 28.0983 68.6515 28.8449 68.5786 29.5976C68.5058 30.3382 68.4451 31.0606 68.3965 31.7647C68.348 32.4688 68.3237 33.1123 68.3237 33.695C68.3237 33.9378 68.263 34.1746 68.1416 34.4053C68.0202 34.6238 67.8684 34.8241 67.6863 35.0062C67.5164 35.1883 67.3221 35.3401 67.1036 35.4615C66.8972 35.5829 66.7029 35.6618 66.5208 35.6982ZM69.5003 33.9033C69.9616 34.0368 70.3076 34.2797 70.5383 34.6317C70.7811 34.9717 70.9025 35.3662 70.9025 35.8154C70.9025 36.1432 70.8297 36.5014 70.684 36.8899C70.5504 37.2783 70.3562 37.6365 70.1012 37.9643C69.8463 38.3042 69.5367 38.5834 69.1725 38.802C68.8083 39.0326 68.4016 39.148 67.9524 39.148C67.5032 39.148 67.1572 38.9902 66.9144 38.6745C66.6715 38.3588 66.4894 37.9886 66.368 37.5636C66.2588 37.1387 66.192 36.7138 66.1677 36.2889C66.1556 35.864 66.1495 35.5423 66.1495 35.3237C66.3802 34.8503 66.6473 34.4678 66.9508 34.1765C67.2543 33.8729 67.5882 33.5937 67.9524 33.3388C67.9524 34.0065 68.0252 34.5589 68.1709 34.9959C68.3166 35.4209 68.523 35.6576 68.7901 35.7062L69.5003 33.9033ZM74.1211 36.8273C74.109 36.3295 73.9147 35.8742 73.5384 35.4615C73.162 35.0366 72.5186 34.5934 71.608 34.1321C71.7051 33.9014 71.8266 33.6404 71.9722 33.349C72.1179 33.0455 72.2697 32.742 72.4275 32.4385C72.5975 32.1228 72.7614 31.8254 72.9192 31.5462C73.077 31.2669 73.2166 31.0302 73.338 30.836C74.2364 31.2244 74.8556 31.7647 75.1955 32.4567C75.5476 33.1487 75.7054 33.8954 75.669 34.6966C75.6326 35.4979 75.4566 36.2931 75.1409 37.0822C74.8252 37.8714 74.4489 38.5512 74.0118 39.1218C73.9269 39.2432 73.763 39.3586 73.5201 39.4678C73.2895 39.565 73.0952 39.6135 72.9374 39.6135C72.4275 39.6135 71.6262 39.8563 70.5336 40.3419C70.5336 40.1598 70.5518 40.0081 70.5882 39.8867C70.6246 39.7531 70.6853 39.6378 70.7703 39.5407C70.8675 39.4435 70.9828 39.3464 71.1163 39.2493C71.262 39.14 71.4381 39.0126 71.6444 38.8669C71.778 38.7698 71.954 38.6362 72.1726 38.4662C72.4032 38.2963 72.64 38.1202 72.8828 37.9381C73.1256 37.7439 73.3563 37.5496 73.5748 37.3554C73.8054 37.149 73.9876 36.973 74.1211 36.8273ZM77.1478 35.6982C77.1478 34.5084 77.2024 33.3308 77.3117 32.1653C77.4331 30.9999 77.5727 29.8283 77.7305 28.6507C77.7548 28.4443 77.7791 28.2622 77.8034 28.1043C77.8398 27.9465 77.8883 27.8069 77.949 27.6855C78.2404 27.1392 78.5136 26.5989 78.7685 26.0647C79.0356 25.5184 79.2906 24.9175 79.5334 24.2619C79.7033 24.3347 79.7519 24.6686 79.6791 25.2635C79.6062 25.9191 79.5273 26.6171 79.4423 27.3577C79.3573 28.0983 79.2784 28.8449 79.2056 29.5976C79.1327 30.3382 79.072 31.0606 79.0235 31.7647C78.9749 32.4688 78.9506 33.1123 78.9506 33.695C78.9506 33.9378 78.8899 34.1746 78.7685 34.4053C78.6471 34.6238 78.4954 34.8241 78.3133 35.0062C78.1433 35.1883 77.949 35.3401 77.7305 35.4615C77.5241 35.5829 77.3299 35.6618 77.1478 35.6982ZM85.4113 17.3657C85.642 17.4506 85.8727 17.5478 86.1033 17.657C86.334 17.7663 86.5404 17.8816 86.7225 18.003C86.9167 18.1244 87.0685 18.2458 87.1778 18.3672C87.2992 18.4886 87.3599 18.6101 87.3599 18.7315C87.3599 18.9378 87.3052 19.1503 87.196 19.3688C87.0867 19.5874 86.941 19.7998 86.7589 20.0062C86.5889 20.2126 86.3947 20.4068 86.1762 20.5889C85.9698 20.7711 85.7634 20.9167 85.557 21.026C85.4477 20.9289 85.3081 20.8196 85.1382 20.6982C84.956 20.5768 84.7679 20.4615 84.5736 20.3522C84.3672 20.2429 84.1669 20.1458 83.9727 20.0608C83.7784 19.9759 83.6024 19.9152 83.4446 19.8787C83.6388 19.6238 83.8148 19.3931 83.9727 19.1867C84.1305 18.9682 84.2883 18.7618 84.4461 18.5676C84.5918 18.3733 84.7436 18.1791 84.9014 17.9848C85.0592 17.7906 85.2292 17.5842 85.4113 17.3657ZM87.5784 20.7711C87.8091 20.856 88.0337 20.9592 88.2522 21.0806C88.4829 21.1899 88.6892 21.3174 88.8713 21.4631C89.0535 21.5966 89.1991 21.7484 89.3084 21.9183C89.4298 22.0883 89.4905 22.2704 89.4905 22.4647C89.4905 22.671 89.4359 22.8896 89.3266 23.1202C89.2174 23.3509 89.0717 23.5694 88.8896 23.7758C88.7196 23.9701 88.5253 24.134 88.3068 24.2675C88.1004 24.3889 87.894 24.4496 87.6877 24.4496C87.6027 24.3646 87.4873 24.2675 87.3416 24.1582C87.2081 24.049 87.0503 23.9397 86.8682 23.8305C86.6982 23.7212 86.5222 23.6241 86.3401 23.5391C86.158 23.442 85.9758 23.3752 85.7937 23.3388C85.7573 23.533 85.6663 23.7455 85.5206 23.9761C85.3749 24.2068 85.1989 24.4253 84.9925 24.6317C84.7861 24.826 84.5676 24.9899 84.3369 25.1234C84.1062 25.257 83.8938 25.3237 83.6995 25.3237C83.5902 25.2266 83.4506 25.1173 83.2807 24.9959C83.1107 24.8624 82.9286 24.7349 82.7343 24.6135C82.5401 24.4921 82.3398 24.3828 82.1334 24.2857C81.927 24.1886 81.7449 24.1218 81.5871 24.0854C81.7813 23.8305 81.9573 23.5998 82.1152 23.3934C82.273 23.1749 82.4308 22.9685 82.5887 22.7742C82.7343 22.58 82.8861 22.3857 83.0439 22.1915C83.2017 21.9972 83.3717 21.7909 83.5538 21.5723C83.7845 21.6573 84.0212 21.7544 84.264 21.8637C84.4947 21.973 84.7132 22.0944 84.9196 22.2279C85.126 22.3493 85.3081 22.4829 85.4659 22.6285C85.6116 22.7742 85.7088 22.9321 85.7573 23.102C86.073 22.6771 86.3704 22.2886 86.6496 21.9365C86.9289 21.5723 87.2385 21.1838 87.5784 20.7711ZM82.786 35.2145C82.9802 35.0081 83.1745 34.8442 83.3687 34.7228C83.563 34.6014 83.7876 34.5407 84.0425 34.5407C84.1639 34.5407 84.2793 34.565 84.3885 34.6135C84.5099 34.6499 84.6374 34.6803 84.771 34.7046C84.9045 34.7046 85.0441 34.6499 85.1898 34.5407C85.3355 34.4193 85.469 34.2797 85.5904 34.1218C85.724 33.9519 85.8393 33.7758 85.9364 33.5937C86.0457 33.4116 86.1307 33.2538 86.1914 33.1202C86.2399 33.011 86.2764 32.9199 86.3007 32.8471C86.3371 32.7621 86.3856 32.7196 86.4463 32.7196C86.5556 32.8289 86.6952 32.8835 86.8652 32.8835C87.023 32.8835 87.1566 32.841 87.2658 32.756C87.3872 32.6589 87.4843 32.5436 87.5572 32.41C87.6422 32.2643 87.7089 32.1186 87.7575 31.973C87.8061 31.8151 87.8425 31.6755 87.8668 31.5541C87.8789 31.4934 87.8911 31.4206 87.9032 31.3356C87.9275 31.2385 87.9639 31.1535 88.0125 31.0806C88.061 31.0078 88.1217 30.9532 88.1946 30.9167C88.2795 30.8682 88.3888 30.856 88.5224 30.8803C88.5224 31.0624 88.5041 31.2992 88.4677 31.5905C88.4313 31.8819 88.3706 32.1915 88.2856 32.5193C88.2128 32.8349 88.1157 33.1627 87.9942 33.5027C87.8728 33.8305 87.7272 34.1279 87.5572 34.395C87.3872 34.6499 87.1869 34.8624 86.9562 35.0324C86.7377 35.2023 86.4949 35.2873 86.2278 35.2873C86.0457 35.5665 85.8636 35.8336 85.6815 36.0886C85.4994 36.3557 85.3051 36.5863 85.0987 36.7806C84.9045 36.987 84.6799 37.1509 84.4249 37.2723C84.1821 37.4058 83.909 37.4726 83.6055 37.4726C83.4719 37.4726 83.3566 37.4544 83.2595 37.418C83.1745 37.3937 83.0834 37.3815 82.9863 37.3815C82.7556 37.3815 82.531 37.4847 82.3125 37.6911C82.094 37.8975 81.8815 38.1221 81.6751 38.3649C81.5052 38.547 81.3291 38.7291 81.147 38.9112C80.9771 39.1055 80.7889 39.2755 80.5825 39.4211C80.3761 39.579 80.1515 39.7064 79.9087 39.8036C79.6659 39.9007 79.4049 39.9492 79.1256 39.9492C78.5429 39.9492 78.0694 39.8036 77.7052 39.5122C77.3531 39.2208 77.08 38.8505 76.8857 38.4013C76.6915 37.9521 76.564 37.4544 76.5033 36.9081C76.4426 36.3617 76.4122 35.8336 76.4122 35.3237C76.5822 35.0081 76.7643 34.7167 76.9586 34.4496C77.1285 34.2189 77.3167 34.0004 77.5231 33.794C77.7416 33.5755 77.9723 33.4237 78.2151 33.3388C78.2151 33.7637 78.2515 34.1704 78.3244 34.5589C78.4093 34.9352 78.5429 35.2691 78.725 35.5605C78.9071 35.8518 79.1438 36.0825 79.4352 36.2525C79.7387 36.4224 80.1151 36.5074 80.5643 36.5074C80.8071 36.5074 81.0317 36.471 81.2381 36.3982C81.4445 36.3253 81.6387 36.2282 81.8208 36.1068C82.0029 35.9854 82.1729 35.8458 82.3307 35.6879C82.4885 35.5301 82.6403 35.3723 82.786 35.2145ZM102.503 17.3657C102.734 17.4506 102.964 17.5478 103.195 17.657C103.426 17.7663 103.632 17.8816 103.814 18.003C104.008 18.1244 104.16 18.2458 104.269 18.3672C104.391 18.4886 104.452 18.6101 104.452 18.7315C104.452 18.9378 104.397 19.1503 104.288 19.3688C104.178 19.5874 104.033 19.7998 103.851 20.0062C103.681 20.2126 103.486 20.4068 103.268 20.5889C103.062 20.7711 102.855 20.9167 102.649 21.026C102.539 20.9289 102.4 20.8196 102.23 20.6982C102.048 20.5768 101.86 20.4615 101.665 20.3522C101.459 20.2429 101.259 20.1458 101.064 20.0608C100.87 19.9759 100.694 19.9152 100.536 19.8787C100.731 19.6238 100.907 19.3931 101.064 19.1867C101.222 18.9682 101.38 18.7618 101.538 18.5676C101.684 18.3733 101.835 18.1791 101.993 17.9848C102.151 17.7906 102.321 17.5842 102.503 17.3657ZM104.67 20.7711C104.901 20.856 105.125 20.9592 105.344 21.0806C105.575 21.1899 105.781 21.3174 105.963 21.4631C106.145 21.5966 106.291 21.7484 106.4 21.9183C106.522 22.0883 106.582 22.2704 106.582 22.4647C106.582 22.671 106.528 22.8896 106.418 23.1202C106.309 23.3509 106.163 23.5694 105.981 23.7758C105.811 23.9701 105.617 24.134 105.399 24.2675C105.192 24.3889 104.986 24.4496 104.779 24.4496C104.694 24.3646 104.579 24.2675 104.433 24.1582C104.3 24.049 104.142 23.9397 103.96 23.8305C103.79 23.7212 103.614 23.6241 103.432 23.5391C103.25 23.442 103.068 23.3752 102.885 23.3388C102.849 23.533 102.758 23.7455 102.612 23.9761C102.467 24.2068 102.291 24.4253 102.084 24.6317C101.878 24.826 101.659 24.9899 101.429 25.1234C101.198 25.257 100.985 25.3237 100.791 25.3237C100.682 25.2266 100.542 25.1173 100.372 24.9959C100.202 24.8624 100.02 24.7349 99.8261 24.6135C99.6318 24.4921 99.4315 24.3828 99.2251 24.2857C99.0187 24.1886 98.8366 24.1218 98.6788 24.0854C98.873 23.8305 99.0491 23.5998 99.2069 23.3934C99.3647 23.1749 99.5226 22.9685 99.6804 22.7742C99.8261 22.58 99.9778 22.3857 100.136 22.1915C100.293 21.9972 100.463 21.7909 100.646 21.5723C100.876 21.6573 101.113 21.7544 101.356 21.8637C101.586 21.973 101.805 22.0944 102.011 22.2279C102.218 22.3493 102.4 22.4829 102.558 22.6285C102.703 22.7742 102.8 22.9321 102.849 23.102C103.165 22.6771 103.462 22.2886 103.741 21.9365C104.021 21.5723 104.33 21.1838 104.67 20.7711ZM87.02 40.6333C88.0641 40.1356 88.9746 39.6135 89.7516 39.0672C90.5164 38.5087 91.1842 37.9138 91.7548 37.2825C92.3254 36.6391 92.817 35.9532 93.2298 35.2247C93.6426 34.4963 94.0068 33.7011 94.3225 32.8391C94.3832 32.6813 94.4439 32.5235 94.5046 32.3657C94.5653 32.2078 94.632 32.0743 94.7049 31.965C94.7899 31.8558 94.8809 31.7768 94.978 31.7283C95.0873 31.6676 95.2087 31.6615 95.3423 31.7101C95.1844 32.1107 95.063 32.5174 94.978 32.9302C94.8931 33.343 94.8506 33.7436 94.8506 34.1321C94.8506 34.5206 94.8991 34.8848 94.9963 35.2247C95.1055 35.5525 95.2573 35.8378 95.4515 36.0806C95.6579 36.3234 95.9068 36.5177 96.1982 36.6634C96.4895 36.8091 96.8295 36.8819 97.218 36.8819C97.7157 36.8819 98.1467 36.7484 98.5109 36.4813C98.8873 36.2142 99.2211 35.9167 99.5125 35.5889C99.7068 35.3826 99.901 35.2187 100.095 35.0973C100.29 34.9759 100.514 34.9152 100.769 34.9152C100.89 34.9152 101.006 34.9394 101.115 34.988C101.236 35.0244 101.364 35.0548 101.497 35.079C101.631 35.079 101.771 35.0244 101.916 34.9152C102.062 34.7937 102.196 34.6541 102.317 34.4963C102.451 34.3263 102.566 34.1503 102.663 33.9682C102.772 33.7861 102.857 33.6283 102.918 33.4947C102.966 33.3855 103.003 33.2944 103.027 33.2216C103.064 33.1366 103.112 33.0941 103.173 33.0941C103.282 33.2033 103.422 33.258 103.592 33.258C103.75 33.258 103.883 33.2155 103.992 33.1305C104.114 33.0334 104.211 32.918 104.284 32.7845C104.369 32.6388 104.435 32.4931 104.484 32.3474C104.533 32.1896 104.569 32.05 104.593 31.9286C104.605 31.8679 104.618 31.7951 104.63 31.7101C104.654 31.6129 104.69 31.528 104.739 31.4551C104.788 31.3823 104.848 31.3276 104.921 31.2912C105.006 31.2427 105.115 31.2305 105.249 31.2548C105.249 31.4369 105.231 31.6736 105.194 31.965C105.158 32.2564 105.097 32.566 105.012 32.8938C104.939 33.2094 104.842 33.5372 104.721 33.8771C104.599 34.2049 104.454 34.5024 104.284 34.7695C104.114 35.0244 103.913 35.2369 103.683 35.4068C103.464 35.5768 103.221 35.6618 102.954 35.6618C102.772 35.941 102.59 36.2142 102.408 36.4813C102.226 36.7362 102.032 36.9669 101.825 37.1733C101.631 37.3675 101.406 37.5314 101.151 37.665C100.909 37.7864 100.636 37.8471 100.332 37.8471C100.198 37.8471 100.083 37.8349 99.986 37.8107C99.901 37.7742 99.81 37.756 99.7128 37.756C99.4822 37.756 99.2576 37.8592 99.039 38.0656C98.8326 38.272 98.6202 38.4966 98.4017 38.7394C97.8918 39.3464 97.4244 39.7592 96.9994 39.9777C96.5745 40.1963 96.1314 40.3116 95.6701 40.3237C95.0752 40.3237 94.5531 40.1295 94.1039 39.741C93.6426 39.3525 93.3087 38.7576 93.1023 37.9563C93.0052 38.1627 92.8717 38.4116 92.7017 38.703C92.5317 38.9822 92.3436 39.2554 92.1372 39.5225C91.9187 39.7895 91.6941 40.0141 91.4634 40.1963C91.2327 40.3784 91.0081 40.4694 90.7896 40.4694C90.5953 40.4694 90.4254 40.4451 90.2797 40.3966C90.134 40.348 89.9762 40.3237 89.8062 40.3237C89.5877 40.3237 89.3934 40.3541 89.2235 40.4148C89.0414 40.4876 88.8714 40.5605 88.7136 40.6333C88.5436 40.7183 88.3676 40.7911 88.1855 40.8518C88.0033 40.9247 87.803 40.9611 87.5845 40.9611C87.3296 40.9611 87.1414 40.8518 87.02 40.6333ZM106.698 35.6982C106.698 34.5084 106.753 33.3308 106.862 32.1653C106.983 30.9999 107.123 29.8283 107.281 28.6507C107.305 28.4443 107.33 28.2622 107.354 28.1043C107.39 27.9465 107.439 27.8069 107.499 27.6855C107.791 27.1392 108.064 26.5989 108.319 26.0647C108.586 25.5184 108.841 24.9175 109.084 24.2619C109.254 24.3347 109.302 24.6686 109.229 25.2635C109.157 25.9191 109.078 26.6171 108.993 27.3577C108.908 28.0983 108.829 28.8449 108.756 29.5976C108.683 30.3382 108.622 31.0606 108.574 31.7647C108.525 32.4688 108.501 33.1123 108.501 33.695C108.501 33.9378 108.44 34.1746 108.319 34.4053C108.198 34.6238 108.046 34.8241 107.864 35.0062C107.694 35.1883 107.499 35.3401 107.281 35.4615C107.075 35.5829 106.88 35.6618 106.698 35.6982ZM108.745 43.3237C108.976 43.4087 109.201 43.5058 109.419 43.6151C109.65 43.7244 109.856 43.8458 110.038 43.9793C110.221 44.125 110.366 44.2828 110.476 44.4528C110.597 44.6228 110.658 44.8109 110.658 45.0173C110.658 45.2237 110.603 45.4362 110.494 45.6547C110.397 45.8732 110.269 46.0796 110.111 46.2739C109.966 46.4803 109.802 46.6684 109.62 46.8384C109.45 47.0084 109.292 47.1419 109.146 47.239C109.061 47.1298 108.928 47.0023 108.745 46.8566C108.576 46.7231 108.381 46.5895 108.163 46.456C107.944 46.3224 107.714 46.201 107.471 46.0918C107.228 45.9825 106.997 45.8975 106.779 45.8368C106.973 45.5819 107.155 45.3451 107.325 45.1266C107.483 44.9081 107.641 44.6956 107.799 44.4892C107.956 44.295 108.114 44.1007 108.272 43.9065C108.418 43.7244 108.576 43.5301 108.745 43.3237ZM107.766 33.3206C107.766 34.1218 107.85 34.7592 108.02 35.2327C108.19 35.7062 108.518 35.9429 109.004 35.9429C109.174 35.9429 109.319 35.9065 109.441 35.8336C109.574 35.7608 109.69 35.6637 109.787 35.5423C109.884 35.433 109.963 35.3116 110.024 35.178C110.096 35.0324 110.163 34.8867 110.224 34.741C110.285 34.5832 110.351 34.4557 110.424 34.3586C110.509 34.2614 110.631 34.225 110.788 34.2493C110.788 34.48 110.752 34.7653 110.679 35.1052C110.606 35.433 110.503 35.7729 110.37 36.125C110.236 36.4892 110.066 36.8474 109.86 37.1994C109.665 37.5636 109.447 37.8854 109.204 38.1646C108.973 38.456 108.719 38.6866 108.439 38.8566C108.172 39.0387 107.887 39.1298 107.583 39.1298C107.219 39.1298 106.928 39.0023 106.709 38.7473C106.503 38.5045 106.339 38.195 106.218 37.8186C106.108 37.4422 106.035 37.0295 105.999 36.5803C105.975 36.1311 105.963 35.7122 105.963 35.3237L107.766 33.3206ZM111.486 41.3617C111.486 41.2525 111.528 41.0825 111.613 40.8518C111.686 40.6212 111.795 40.3602 111.941 40.0688C112.087 39.7774 112.257 39.48 112.451 39.1765C112.645 38.8608 112.857 38.5634 113.088 38.2841C113.465 37.8228 113.853 37.4586 114.254 37.1915C114.654 36.9244 115.067 36.7909 115.492 36.7909C115.674 36.7909 115.832 36.8151 115.965 36.8637C116.087 36.9001 116.202 36.9426 116.311 36.9912C116.421 37.0397 116.536 37.0883 116.657 37.1369C116.791 37.1733 116.949 37.1915 117.131 37.1915C117.799 37.1915 118.363 36.8637 118.825 36.2081C118.922 35.8439 118.976 35.3947 118.988 34.8605C119.001 34.3263 118.988 33.7739 118.952 33.2033C118.928 32.6327 118.891 32.0682 118.843 31.5097C118.806 30.9391 118.788 30.4353 118.788 29.9983C118.788 29.5612 118.812 29.1666 118.861 28.8146C118.91 28.4625 118.988 28.0861 119.098 27.6855C119.219 27.2727 119.371 26.7992 119.553 26.2651C119.747 25.7187 119.99 25.045 120.281 24.2437C120.536 23.5274 120.943 22.8293 121.502 22.1494C122.06 21.4696 122.697 20.8201 123.414 20.2009C124.142 19.5696 124.907 18.9626 125.708 18.3798C126.522 17.7971 127.311 17.2508 128.076 16.7409C128.379 16.5345 128.853 16.2128 129.496 15.7757C130.139 15.3386 130.862 14.847 131.663 14.3006C132.476 13.7422 133.314 13.1594 134.176 12.5524C135.05 11.9332 135.858 11.3444 136.598 10.786C137.351 10.2275 137.994 9.72975 138.529 9.29269C139.063 8.85563 139.39 8.52784 139.512 8.30931C139.512 9.0256 139.354 9.68726 139.038 10.2943C138.735 10.8892 138.346 11.4476 137.873 11.9697C137.412 12.4796 136.896 12.947 136.325 13.3719C135.767 13.7968 135.232 14.1853 134.722 14.5374C134.565 14.6466 134.255 14.8591 133.794 15.1747C133.332 15.4783 132.774 15.8546 132.118 16.3038C131.463 16.753 130.74 17.2508 129.951 17.7971C129.162 18.3313 128.361 18.8837 127.547 19.4543C126.746 20.0249 125.963 20.5894 125.198 21.1479C124.433 21.6942 123.747 22.2041 123.14 22.6776C122.533 23.151 122.036 23.5638 121.647 23.9159C121.259 24.268 121.04 24.5229 120.992 24.6807C120.822 25.2271 120.706 25.9009 120.646 26.7021C120.585 27.4913 120.561 28.3047 120.573 29.1424C120.573 30.5628 120.518 31.9043 120.409 33.1669C120.3 34.4174 120.051 35.5404 119.662 36.5359C119.456 37.0579 119.213 37.5496 118.934 38.011C118.667 38.4723 118.363 38.8729 118.023 39.2129C117.683 39.5528 117.319 39.826 116.931 40.0324C116.554 40.2266 116.154 40.3237 115.729 40.3237C115.522 40.3237 115.34 40.2994 115.182 40.2509C115.025 40.1902 114.879 40.1295 114.745 40.0688C114.6 39.9959 114.46 39.9352 114.326 39.8867C114.193 39.826 114.053 39.7956 113.908 39.7956C113.616 39.7956 113.349 39.8988 113.106 40.1052C112.851 40.3116 112.584 40.5848 112.305 40.9247C112.184 41.0704 112.044 41.1796 111.886 41.2525C111.728 41.3253 111.595 41.3617 111.486 41.3617Z" fill="black"/>
<path d="M294.791 41.4445C294.979 41.5137 295.163 41.5929 295.341 41.6819C295.529 41.771 295.697 41.8699 295.845 41.9788C295.994 42.0975 296.112 42.2261 296.201 42.3647C296.3 42.5032 296.35 42.6566 296.35 42.8248C296.35 42.993 296.305 43.1661 296.216 43.3443C296.137 43.5224 296.033 43.6906 295.905 43.8489C295.786 44.0171 295.652 44.1705 295.504 44.309C295.365 44.4475 295.237 44.5564 295.118 44.6355C295.049 44.5465 294.94 44.4426 294.791 44.3238C294.653 44.215 294.495 44.1062 294.317 43.9973C294.138 43.8885 293.95 43.7895 293.753 43.7005C293.555 43.6114 293.367 43.5422 293.189 43.4927C293.347 43.2849 293.495 43.0919 293.634 42.9138C293.762 42.7357 293.891 42.5626 294.02 42.3944C294.148 42.236 294.277 42.0777 294.406 41.9194C294.524 41.771 294.653 41.6127 294.791 41.4445ZM296.9 34.823C296.919 34.7141 296.964 34.6003 297.033 34.4816C297.112 34.353 297.226 34.2887 297.375 34.2887C297.375 34.8428 297.295 35.3721 297.137 35.8768C296.989 36.3715 296.786 36.8118 296.529 37.1977C296.271 37.5737 295.965 37.8755 295.608 38.1031C295.262 38.3307 294.891 38.4445 294.495 38.4445C294.317 38.4445 294.174 38.4247 294.065 38.3851C293.956 38.3455 293.857 38.301 293.768 38.2515C293.679 38.202 293.59 38.1575 293.501 38.1179C293.402 38.0784 293.278 38.0586 293.13 38.0586C292.892 38.0586 292.67 38.1377 292.462 38.296C292.244 38.4445 292.051 38.6522 291.883 38.9194C291.804 39.0579 291.725 39.147 291.646 39.1866C291.566 39.236 291.477 39.2608 291.378 39.2608C291.448 38.865 291.586 38.4544 291.794 38.0289C292.002 37.6034 292.249 37.2175 292.536 36.8712C292.823 36.515 293.135 36.228 293.471 36.0103C293.808 35.7828 294.144 35.669 294.48 35.669C294.649 35.669 294.782 35.6888 294.881 35.7283C294.98 35.758 295.069 35.7927 295.148 35.8322C295.237 35.8619 295.321 35.8966 295.401 35.9361C295.48 35.9658 295.589 35.9807 295.727 35.9807C296.073 35.9807 296.336 35.8669 296.514 35.6393C296.702 35.4117 296.83 35.1396 296.9 34.823Z" fill="black"/>
<path d="M281.876 38.2218C281.757 38.3406 281.638 38.4148 281.519 38.4445C281.41 38.4741 281.312 38.4346 281.222 38.3257C280.985 38.0685 280.733 37.8458 280.466 37.6578C280.188 37.4599 279.887 37.2967 279.56 37.168C279.659 37.0196 279.778 36.8316 279.916 36.604C280.035 36.4061 280.184 36.1687 280.362 35.8916C280.53 35.6047 280.738 35.2682 280.985 34.8823C283.004 35.7135 283.3 36.8267 281.876 38.2218ZM286.746 30.1032C286.765 30.0537 286.8 29.9943 286.85 29.9251C286.909 29.8459 286.993 29.841 287.102 29.9102C287.042 30.118 286.998 30.3555 286.968 30.6226C286.939 30.8799 286.929 31.1075 286.939 31.3054C286.948 31.5626 286.953 31.815 286.953 32.0623C286.963 32.3097 286.968 32.5571 286.968 32.8044C286.978 33.5861 286.944 34.3332 286.864 35.0456C286.795 35.7481 286.671 36.4309 286.493 37.0938C286.325 37.7271 286.102 38.3653 285.825 39.0085C285.548 39.6615 285.222 40.2849 284.846 40.8786C284.47 41.4723 284.044 42.0264 283.569 42.5409C283.104 43.0554 282.59 43.5007 282.026 43.8767C281.472 44.2626 280.868 44.5644 280.215 44.7821C279.572 45.0096 278.884 45.1234 278.152 45.1234C277.539 45.1234 277.009 45.0096 276.564 44.7821C276.129 44.5545 275.767 44.2477 275.48 43.8618C275.203 43.476 274.996 43.0307 274.857 42.5261C274.728 42.0214 274.664 41.492 274.664 40.9379C274.664 40.3937 274.719 39.8495 274.827 39.3053C274.946 38.7611 275.104 38.2317 275.302 37.7172C275.5 37.1928 275.728 36.6832 275.985 36.1884C276.242 35.6937 276.514 35.2138 276.801 34.7488C276.851 34.6498 276.895 34.5657 276.935 34.4964C276.984 34.4173 277.024 34.353 277.054 34.3035C277.093 34.2441 277.118 34.1947 277.128 34.1551C277.316 34.2837 277.341 34.4964 277.202 34.7933C277.014 35.1693 276.841 35.5304 276.683 35.8768C276.524 36.2231 276.386 36.5645 276.267 36.9009C276.148 37.2274 276.054 37.5539 275.985 37.8805C275.916 38.1971 275.881 38.5236 275.881 38.86C275.881 39.2657 275.945 39.6467 276.074 40.0029C276.203 40.3591 276.406 40.6658 276.683 40.9231C276.96 41.1903 277.311 41.398 277.736 41.5465C278.162 41.6949 278.667 41.7691 279.25 41.7691C279.755 41.7691 280.27 41.7097 280.794 41.591C281.318 41.4822 281.823 41.309 282.308 41.0715C282.803 40.8439 283.268 40.5471 283.703 40.181C284.138 39.8149 284.519 39.3795 284.846 38.8749C285.172 38.3702 285.425 37.7964 285.603 37.1532C285.791 36.5001 285.885 35.7679 285.885 34.9566C285.885 34.818 285.875 34.6548 285.855 34.4668C285.845 34.2788 285.83 34.0908 285.811 33.9028C285.801 33.7049 285.786 33.5218 285.766 33.3536C285.756 33.1755 285.751 33.037 285.751 32.938C285.751 32.7203 285.771 32.5175 285.811 32.3295C285.85 32.1316 285.919 31.9287 286.018 31.721L286.746 30.1032ZM297.384 17.6857C297.156 18.6554 296.81 19.5014 296.345 20.2237C295.89 20.946 295.365 21.5447 294.772 22.0196C294.178 22.4946 293.545 22.8508 292.872 23.0882C292.209 23.3257 291.566 23.4445 290.942 23.4445C290.725 23.4445 290.532 23.4247 290.364 23.3851C290.195 23.3356 290.037 23.2861 289.889 23.2367C289.74 23.1773 289.592 23.1278 289.443 23.0882C289.295 23.0388 289.137 23.014 288.968 23.014C288.622 23.014 288.31 23.0981 288.033 23.2664C287.746 23.4247 287.499 23.6473 287.291 23.9342C287.212 24.0431 287.138 24.1321 287.069 24.2014C286.989 24.2707 286.895 24.2954 286.787 24.2756C286.846 23.9095 286.98 23.4989 287.187 23.0437C287.395 22.5886 287.652 22.1581 287.959 21.7525C288.266 21.3468 288.612 21.0054 288.998 20.7283C289.384 20.4513 289.79 20.3128 290.215 20.3128C290.462 20.3128 290.66 20.3276 290.809 20.3573C290.947 20.387 291.086 20.4216 291.224 20.4612C291.363 20.5008 291.521 20.5354 291.699 20.5651C291.877 20.5948 292.125 20.6096 292.441 20.6096C292.877 20.6096 293.312 20.5502 293.748 20.4315C294.183 20.3029 294.598 20.1297 294.994 19.912C295.4 19.6844 295.771 19.4123 296.107 19.0957C296.444 18.7791 296.731 18.4278 296.968 18.0419C297.018 17.9628 297.072 17.8786 297.132 17.7896C297.191 17.6906 297.275 17.656 297.384 17.6857ZM287.991 38.4445C288.08 38.207 288.154 37.9052 288.213 37.5391C288.273 37.173 288.317 36.7772 288.347 36.3517C288.387 35.9163 288.416 35.4661 288.436 35.0011C288.456 34.5261 288.466 34.066 288.466 33.6208C288.476 33.1755 288.481 32.7599 288.481 32.374C288.481 31.9881 288.481 31.6566 288.481 31.3796C288.481 31.1025 288.505 30.8403 288.555 30.593C288.614 30.3357 288.688 30.0933 288.777 29.8657C288.866 29.6282 288.965 29.4006 289.074 29.1829C289.183 28.9554 289.297 28.7278 289.416 28.5002C289.554 28.2232 289.688 27.9708 289.816 27.7433C289.945 27.5157 290.064 27.3029 290.173 27.105C290.252 26.9665 290.326 26.828 290.395 26.6895C290.464 26.5509 290.539 26.4124 290.618 26.2739C290.677 26.3234 290.732 26.4174 290.781 26.5559C290.831 26.6944 290.816 26.8775 290.737 27.105C290.578 27.5305 290.459 28.0352 290.38 28.6189C290.311 29.1928 290.257 29.7915 290.217 30.4148C290.177 31.0283 290.143 31.6369 290.113 32.2404C290.093 32.844 290.064 33.3833 290.024 33.8582C289.985 34.3134 289.905 34.8081 289.787 35.3424C289.678 35.8768 289.534 36.3765 289.356 36.8415C289.178 37.2967 288.97 37.6776 288.733 37.9844C288.505 38.2911 288.258 38.4445 287.991 38.4445Z" fill="black"/>
<path d="M273.458 33.5317C273.28 33.7197 273.048 33.8582 272.761 33.9473C272.474 34.0363 272.202 34.0759 271.944 34.066C271.786 34.2243 271.623 34.348 271.455 34.4371C271.286 34.5261 271.123 34.5954 270.965 34.6449C270.816 34.6844 270.673 34.7092 270.534 34.7191C270.406 34.729 270.297 34.7339 270.208 34.7339C270.099 35.3573 269.985 35.9658 269.866 36.5595C269.748 37.1433 269.584 37.737 269.377 38.3406C269.07 39.2212 268.669 40.0672 268.174 40.8786C267.69 41.6998 267.116 42.4222 266.453 43.0455C265.79 43.6788 265.043 44.1834 264.212 44.5594C263.38 44.9354 262.475 45.1234 261.496 45.1234C260.882 45.1234 260.353 45.0047 259.907 44.7672C259.462 44.5396 259.096 44.2329 258.809 43.847C258.532 43.4611 258.324 43.0158 258.186 42.5112C258.057 42.0066 257.998 41.4772 258.008 40.9231C258.017 40.369 258.082 39.8198 258.201 39.2756C258.319 38.7413 258.473 38.2169 258.661 37.7023C258.859 37.1779 259.086 36.6683 259.343 36.1736C259.601 35.669 259.873 35.1841 260.16 34.7191C260.259 34.7883 260.318 34.8823 260.338 35.0011C260.367 35.1099 260.348 35.2386 260.278 35.387C259.982 36.04 259.729 36.6436 259.521 37.1977C259.324 37.7419 259.225 38.296 259.225 38.86C259.225 39.2657 259.289 39.6467 259.418 40.0029C259.546 40.3591 259.749 40.6658 260.026 40.9231C260.303 41.1903 260.654 41.398 261.08 41.5465C261.505 41.6949 262.01 41.7691 262.594 41.7691C263.395 41.7691 264.128 41.6652 264.79 41.4574C265.463 41.2496 266.062 40.9577 266.586 40.5817C267.111 40.2057 267.561 39.7555 267.937 39.2311C268.323 38.7166 268.63 38.1427 268.857 37.5094C268.956 37.2521 269.03 36.9652 269.08 36.6486C269.139 36.3319 269.179 36.0103 269.199 35.6838C269.228 35.3573 269.243 35.0357 269.243 34.7191C269.253 34.3925 269.258 34.0908 269.258 33.8137C269.258 33.5762 269.258 33.3635 269.258 33.1755C269.258 32.9875 269.268 32.8292 269.288 32.7005C269.317 32.5719 269.362 32.473 269.421 32.4037C269.481 32.3344 269.565 32.2998 269.674 32.2998C269.733 32.2998 269.866 32.3245 270.074 32.374C270.282 32.4235 270.505 32.4482 270.742 32.4482C271.039 32.4482 271.321 32.4037 271.588 32.3146C271.855 32.2256 272.073 32.0623 272.241 31.8249C272.261 31.7754 272.286 31.7358 272.315 31.7061C272.345 31.6665 272.38 31.6517 272.419 31.6616C272.479 31.7803 272.548 31.8496 272.627 31.8694C272.716 31.8892 272.795 31.8991 272.865 31.8991C273.003 31.8991 273.127 31.8446 273.236 31.7358C273.354 31.627 273.478 31.4736 273.607 31.2757C273.636 31.2361 273.661 31.2015 273.681 31.1718C273.711 31.1322 273.74 31.1124 273.77 31.1124C273.839 31.2707 273.978 31.3499 274.186 31.3499C274.225 31.5379 274.24 31.7506 274.23 31.9881C274.22 32.2256 274.181 32.4532 274.111 32.6709C274.052 32.8786 273.968 33.0666 273.859 33.2349C273.75 33.3932 273.617 33.4921 273.458 33.5317ZM273.889 31.2627C274.027 31.2627 274.2 31.1835 274.408 31.0252C274.626 30.8669 274.789 30.5997 274.898 30.2237C274.977 29.9269 275.022 29.5608 275.031 29.1254C275.041 28.69 275.031 28.2398 275.002 27.7748C274.982 27.3097 274.952 26.8496 274.913 26.3944C274.883 25.9294 274.868 25.5187 274.868 25.1625C274.868 24.8063 274.888 24.4847 274.928 24.1978C274.967 23.9108 275.031 23.6041 275.12 23.2776C275.219 22.9412 275.343 22.5553 275.492 22.1199C275.65 21.6746 275.848 21.1255 276.085 20.4724C276.293 19.8886 276.624 19.3197 277.08 18.7656C277.535 18.2115 278.054 17.6821 278.638 17.1774C279.232 16.6629 279.855 16.1682 280.508 15.6932C281.171 15.2183 281.814 14.773 282.438 14.3574C282.685 14.1892 283.071 13.927 283.595 13.5708C284.12 13.2146 284.709 12.8139 285.362 12.3686C286.025 11.9134 286.707 11.4385 287.41 10.9437C288.122 10.4391 288.78 9.95921 289.384 9.50405C289.997 9.04889 290.522 8.64321 290.957 8.287C291.392 7.93078 291.66 7.66362 291.759 7.48552C291.759 8.06931 291.63 8.60858 291.373 9.10331C291.125 9.58816 290.809 10.0433 290.423 10.4688C290.047 10.8844 289.626 11.2653 289.161 11.6116C288.706 11.958 288.271 12.2746 287.855 12.5615C287.726 12.6506 287.474 12.8237 287.098 13.081C286.722 13.3284 286.267 13.6351 285.733 14.0012C285.198 14.3673 284.61 14.773 283.966 15.2183C283.323 15.6537 282.67 16.1039 282.007 16.5689C281.354 17.034 280.716 17.4941 280.093 17.9492C279.469 18.3945 278.91 18.8101 278.415 19.196C277.921 19.5819 277.515 19.9183 277.198 20.2053C276.882 20.4922 276.704 20.7 276.664 20.8286C276.526 21.2739 276.432 21.823 276.382 22.4761C276.333 23.1193 276.313 23.7822 276.323 24.465C276.323 24.9597 276.323 25.4643 276.323 25.9789C276.323 26.4934 276.308 27.0079 276.278 27.5224C276.248 28.037 276.189 28.5465 276.1 29.0512C276.021 29.5459 275.897 30.0308 275.729 30.5057C275.61 30.8322 275.462 31.1588 275.284 31.4853C275.106 31.8019 274.903 32.0938 274.675 32.361C274.458 32.6281 274.22 32.8607 273.963 33.0586C273.706 33.2466 273.438 33.3752 273.161 33.4445C273.033 32.8508 273.033 32.3907 273.161 32.0641C273.3 31.7277 273.542 31.4606 273.889 31.2627Z" fill="black"/>
<path d="M224.687 38.6968C225.538 38.2911 226.28 37.8656 226.913 37.4203C227.537 36.9652 228.081 36.4803 228.546 35.9658C229.011 35.4414 229.412 34.8823 229.748 34.2887C230.085 33.695 230.382 33.0469 230.639 32.3443C230.688 32.2157 230.738 32.0871 230.787 31.9584C230.837 31.8298 230.891 31.721 230.95 31.6319C231.02 31.5429 231.094 31.4785 231.173 31.439C231.262 31.3895 231.361 31.3845 231.47 31.4241C231.341 31.7506 231.242 32.0821 231.173 32.4185C231.104 32.755 231.069 33.0815 231.069 33.3981C231.069 33.7148 231.109 34.0116 231.188 34.2887C231.277 34.5558 231.401 34.7883 231.559 34.9862C231.727 35.1841 231.93 35.3424 232.168 35.4612C232.405 35.5799 232.682 35.6393 232.999 35.6393C233.404 35.6393 233.756 35.5304 234.052 35.3128C234.359 35.0951 234.631 34.8527 234.869 34.5855C235.027 34.4173 235.185 34.2837 235.344 34.1848C235.502 34.0858 235.685 34.0363 235.893 34.0363C235.992 34.0363 236.086 34.0561 236.175 34.0957C236.274 34.1254 236.378 34.1501 236.487 34.1699C236.595 34.1699 236.709 34.1254 236.828 34.0363C236.947 33.9374 237.056 33.8236 237.154 33.695C237.263 33.5564 237.357 33.413 237.436 33.2645C237.526 33.1161 237.595 32.9875 237.644 32.8786C237.684 32.7896 237.714 32.7154 237.733 32.656C237.763 32.5868 237.803 32.5521 237.852 32.5521C237.941 32.6412 238.055 32.6857 238.193 32.6857C238.322 32.6857 238.431 32.6511 238.52 32.5818C238.619 32.5026 238.698 32.4086 238.757 32.2998C238.827 32.1811 238.881 32.0623 238.921 31.9436C238.96 31.815 238.99 31.7012 239.01 31.6022C239.02 31.5527 239.03 31.4934 239.039 31.4241C239.059 31.345 239.089 31.2757 239.128 31.2163C239.168 31.157 239.218 31.1124 239.277 31.0827C239.346 31.0432 239.435 31.0333 239.544 31.0531C239.544 31.2015 239.529 31.3944 239.5 31.6319C239.47 31.8694 239.42 32.1217 239.351 32.3889C239.292 32.6461 239.213 32.9133 239.114 33.1903C239.015 33.4575 238.896 33.6999 238.757 33.9176C238.619 34.1254 238.456 34.2985 238.268 34.4371C238.09 34.5756 237.892 34.6449 237.674 34.6449C237.526 34.8724 237.377 35.0951 237.229 35.3128C237.08 35.5206 236.922 35.7086 236.754 35.8768C236.595 36.0351 236.412 36.1687 236.205 36.2775C236.007 36.3765 235.784 36.4259 235.537 36.4259C235.428 36.4259 235.334 36.416 235.255 36.3962C235.185 36.3666 235.111 36.3517 235.032 36.3517C234.844 36.3517 234.661 36.4358 234.483 36.604C234.315 36.7722 234.142 36.9553 233.963 37.1532C233.548 37.6479 233.167 37.9844 232.821 38.1625C232.474 38.3406 232.113 38.4346 231.737 38.4445C231.252 38.4445 230.827 38.2861 230.461 37.9695C230.085 37.6529 229.813 37.168 229.644 36.515C229.565 36.6832 229.456 36.886 229.318 37.1235C229.179 37.3511 229.026 37.5737 228.858 37.7914C228.68 38.0091 228.497 38.1921 228.309 38.3406C228.121 38.489 227.938 38.5632 227.759 38.5632C227.601 38.5632 227.463 38.5434 227.344 38.5038C227.225 38.4642 227.096 38.4445 226.958 38.4445C226.78 38.4445 226.622 38.4692 226.483 38.5187C226.335 38.578 226.196 38.6374 226.067 38.6968C225.929 38.766 225.785 38.8254 225.637 38.8749C225.489 38.9342 225.325 38.9639 225.147 38.9639C224.939 38.9639 224.786 38.8749 224.687 38.6968ZM243.842 34.4964C243.743 34.8131 243.624 35.1742 243.486 35.5799C243.357 35.9856 243.189 36.3666 242.981 36.7228C242.783 37.079 242.541 37.3808 242.254 37.6281C241.967 37.8755 241.626 37.9992 241.23 37.9992C241.111 37.9992 240.963 38.019 240.785 38.0586C240.616 38.0882 240.438 38.1278 240.25 38.1773C240.062 38.2268 239.879 38.2762 239.701 38.3257C239.523 38.3752 239.37 38.4197 239.241 38.4593C239.241 38.2218 239.3 38.0289 239.419 37.8805C239.538 37.732 239.652 37.6232 239.761 37.5539C240.236 37.2472 240.671 36.9405 241.067 36.6337C241.472 36.3171 241.834 35.9807 242.15 35.6244C242.477 35.2583 242.764 34.8625 243.011 34.4371C243.268 34.0017 243.491 33.5169 243.679 32.9825C243.748 32.8044 243.808 32.6214 243.857 32.4334C243.916 32.2454 243.971 32.0574 244.02 31.8694C244.03 31.81 244.05 31.7309 244.08 31.6319C244.119 31.533 244.164 31.439 244.213 31.3499C244.273 31.251 244.342 31.1669 244.421 31.0976C244.5 31.0283 244.599 30.9937 244.718 30.9937C244.668 31.0729 244.629 31.1817 244.599 31.3202C244.579 31.4587 244.56 31.5725 244.54 31.6616C244.431 32.186 244.317 32.6857 244.198 33.1606C244.09 33.6356 243.971 34.0809 243.842 34.4964ZM244.988 41.3535C244.988 40.552 245.121 39.7258 245.389 38.8749C245.656 38.0239 245.987 37.1878 246.383 36.3666C246.779 35.5354 247.209 34.7339 247.674 33.9621C248.129 33.1903 248.545 32.4829 248.921 31.8397C249.02 31.9485 249.069 32.0722 249.069 32.2108C249.059 32.3394 249.03 32.473 248.98 32.6115C248.931 32.7401 248.871 32.8638 248.802 32.9825C248.723 33.1013 248.664 33.2002 248.624 33.2794C248.04 34.3876 247.57 35.4117 247.214 36.3517C246.848 37.2818 246.665 38.1724 246.665 39.0233C246.665 39.3795 246.714 39.7209 246.813 40.0474C246.912 40.3739 247.071 40.6609 247.288 40.9083C247.506 41.1556 247.793 41.3486 248.149 41.4871C248.505 41.6355 248.936 41.7097 249.44 41.7097C250.341 41.7097 251.137 41.5118 251.83 41.116C252.533 40.7203 253.106 40.2107 253.552 39.5873C252.641 39.4587 251.944 39.1668 251.459 38.7116C250.984 38.2565 250.747 37.6628 250.747 36.9306C250.747 36.3666 250.865 35.7976 251.103 35.2237C251.34 34.6399 251.667 34.0809 252.082 33.5465C252.508 33.0023 253.003 32.4977 253.567 32.0326C254.14 31.5577 254.759 31.152 255.422 30.8156C254.68 30.7265 254.269 30.5385 254.19 30.2516C254.388 29.8558 254.61 29.4402 254.858 29.0048C255.105 28.5695 255.372 28.1687 255.659 27.8026C255.808 27.8026 256.045 27.8323 256.372 27.8917C256.698 27.9511 257.025 28.0401 257.351 28.1588C257.678 28.2776 257.965 28.426 258.212 28.6041C258.46 28.7723 258.583 28.9702 258.583 29.1978C258.583 29.2374 258.568 29.2967 258.539 29.3759C258.509 29.4452 258.484 29.5045 258.464 29.554C258.276 29.93 258.093 30.2466 257.915 30.5039C257.747 30.7513 257.549 30.9739 257.322 31.1718C257.104 31.3697 256.847 31.5478 256.55 31.7061C256.253 31.8644 255.897 32.0326 255.481 32.2108C255.194 32.3295 254.858 32.4977 254.472 32.7154C254.096 32.9331 253.74 33.1804 253.403 33.4575C253.067 33.7247 252.78 34.0165 252.542 34.3332C252.315 34.6399 252.201 34.9516 252.201 35.2682C252.201 35.5552 252.325 35.7828 252.572 35.951C252.829 36.1192 253.141 36.228 253.507 36.2775C253.923 36.327 254.2 36.4556 254.338 36.6634C254.487 36.8613 254.561 37.1631 254.561 37.5688C254.561 38.0833 254.477 38.6226 254.309 39.1866C254.14 39.7605 253.908 40.3294 253.611 40.8934C253.324 41.4574 252.978 41.9917 252.572 42.4964C252.166 43.0109 251.726 43.4611 251.251 43.847C250.786 44.2329 250.296 44.5396 249.782 44.7672C249.257 45.0047 248.733 45.1234 248.209 45.1234C247.615 45.1234 247.115 45.0195 246.709 44.8117C246.294 44.604 245.962 44.3269 245.715 43.9806C245.458 43.6343 245.275 43.2335 245.166 42.7784C245.047 42.3232 244.988 41.8483 244.988 41.3535Z" fill="black"/>
<path d="M209.892 38.2218C209.773 38.3406 209.654 38.4148 209.536 38.4445C209.427 38.4741 209.328 38.4346 209.239 38.3257C209.001 38.0685 208.749 37.8458 208.482 37.6578C208.205 37.4599 207.903 37.2967 207.577 37.168C207.675 37.0196 207.794 36.8316 207.933 36.604C208.051 36.4061 208.2 36.1687 208.378 35.8916C208.546 35.6047 208.754 35.2682 209.001 34.8823C211.02 35.7135 211.317 36.8267 209.892 38.2218ZM216.594 42.9788C216.782 43.048 216.965 43.1272 217.143 43.2163C217.331 43.3152 217.499 43.4191 217.648 43.5279C217.796 43.6467 217.915 43.7753 218.004 43.9138C218.103 44.0524 218.152 44.2008 218.152 44.3591C218.152 44.5273 218.108 44.7054 218.019 44.8934C217.93 45.0814 217.811 45.2546 217.662 45.4129C217.524 45.5811 217.366 45.7147 217.188 45.8136C217.019 45.9225 216.851 45.9769 216.683 45.9769C216.614 45.9076 216.52 45.8285 216.401 45.7394C216.292 45.6504 216.163 45.5613 216.015 45.4723C215.876 45.3832 215.733 45.2991 215.585 45.2199C215.436 45.1507 215.288 45.1012 215.139 45.0715C215.11 45.2298 215.035 45.403 214.917 45.591C214.798 45.779 214.654 45.9522 214.486 46.1105C214.318 46.2787 214.14 46.4172 213.952 46.5261C213.764 46.6349 213.591 46.6893 213.432 46.6893C213.343 46.6102 213.23 46.5162 213.091 46.4073C212.953 46.3084 212.804 46.2094 212.646 46.1105C212.488 46.0115 212.324 45.9225 212.156 45.8433C211.988 45.7642 211.839 45.7097 211.711 45.68C211.869 45.4723 212.013 45.2793 212.141 45.1012C212.27 44.933 212.398 44.7697 212.527 44.6114C212.646 44.4531 212.77 44.2948 212.898 44.1365C213.027 43.9781 213.165 43.8099 213.314 43.6318C213.502 43.7011 213.695 43.7803 213.893 43.8693C214.081 43.9584 214.259 44.0524 214.427 44.1513C214.595 44.2601 214.744 44.3739 214.872 44.4927C214.991 44.6114 215.07 44.74 215.11 44.8786C215.367 44.5323 215.609 44.2107 215.837 43.9138C216.064 43.6269 216.317 43.3152 216.594 42.9788ZM202.134 40.9231C202.143 40.369 202.208 39.8198 202.326 39.2756C202.445 38.7413 202.604 38.2169 202.801 37.7023C202.989 37.1779 203.212 36.6683 203.469 36.1736C203.727 35.669 203.999 35.1841 204.286 34.7191C204.385 34.7883 204.449 34.8823 204.479 35.0011C204.498 35.1099 204.474 35.2386 204.404 35.387C204.117 36.0301 203.87 36.6238 203.662 37.168C203.454 37.7122 203.351 38.2762 203.351 38.86C203.351 39.2657 203.415 39.6467 203.544 40.0029C203.672 40.3591 203.875 40.6658 204.152 40.9231C204.429 41.1903 204.78 41.398 205.206 41.5465C205.631 41.6949 206.136 41.7691 206.72 41.7691C207.521 41.7691 208.258 41.6652 208.931 41.4574C209.594 41.2496 210.188 40.9528 210.712 40.5669C211.227 40.1909 211.677 39.7407 212.063 39.2163C212.439 38.7017 212.746 38.1328 212.983 37.5094C213.181 37.0048 213.305 36.5199 213.354 36.0549C213.404 35.5898 213.428 35.1693 213.428 34.7933C213.428 34.7042 213.423 34.5805 213.414 34.4222C213.404 34.254 213.394 34.0858 213.384 33.9176C213.384 33.7395 213.379 33.5812 213.369 33.4426C213.359 33.2942 213.354 33.1953 213.354 33.1458C213.354 32.7797 213.409 32.5472 213.517 32.4482C213.626 32.3394 213.75 32.285 213.889 32.285C213.997 32.285 214.116 32.2998 214.245 32.3295C214.373 32.3592 214.512 32.374 214.66 32.374C215.106 32.374 215.477 32.2454 215.773 31.9881C216.08 31.7309 216.293 31.3499 216.412 30.8453C216.441 30.7166 216.486 30.6226 216.545 30.5633C216.605 30.5039 216.694 30.4841 216.812 30.5039C216.783 31.058 216.704 31.5725 216.575 32.0475C216.456 32.5224 216.293 32.938 216.085 33.2942C215.877 33.6504 215.63 33.9324 215.343 34.1402C215.056 34.3381 214.73 34.4371 214.363 34.4371C214.334 34.6943 214.289 34.9912 214.23 35.3276C214.18 35.664 214.116 36.0103 214.037 36.3666C213.958 36.7228 213.874 37.074 213.785 37.4203C213.696 37.7568 213.602 38.0635 213.503 38.3406C213.196 39.2212 212.8 40.0672 212.315 40.8786C211.821 41.6998 211.242 42.4222 210.579 43.0455C209.916 43.6788 209.169 44.1834 208.338 44.5594C207.506 44.9354 206.601 45.1234 205.621 45.1234C205.008 45.1234 204.479 45.0047 204.033 44.7672C203.588 44.5396 203.227 44.2329 202.95 43.847C202.663 43.4611 202.455 43.0158 202.326 42.5112C202.188 42.0066 202.124 41.4772 202.134 40.9231ZM221.813 25.2534C222.001 25.3227 222.184 25.4018 222.363 25.4909C222.551 25.5799 222.719 25.6838 222.867 25.8026C223.016 25.9114 223.134 26.0351 223.223 26.1736C223.322 26.3121 223.372 26.4655 223.372 26.6337C223.372 26.8019 223.327 26.9751 223.238 27.1532C223.159 27.3313 223.055 27.5045 222.927 27.6727C222.808 27.831 222.674 27.9794 222.526 28.1179C222.387 28.2565 222.259 28.3653 222.14 28.4445C222.071 28.3554 221.967 28.2565 221.828 28.1476C221.68 28.0289 221.517 27.9151 221.338 27.8062C221.16 27.6974 220.972 27.5985 220.774 27.5094C220.577 27.4203 220.389 27.3511 220.21 27.3016C220.369 27.0938 220.517 26.9009 220.656 26.7228C220.784 26.5447 220.913 26.3765 221.042 26.2181C221.17 26.0499 221.299 25.8916 221.428 25.7432C221.546 25.5849 221.675 25.4216 221.813 25.2534ZM220.835 34.4964C220.736 34.8131 220.617 35.1742 220.479 35.5799C220.35 35.9856 220.182 36.3666 219.974 36.7228C219.776 37.079 219.534 37.3808 219.247 37.6281C218.96 37.8755 218.618 37.9992 218.223 37.9992C218.104 37.9992 217.955 38.019 217.777 38.0586C217.609 38.0882 217.431 38.1278 217.243 38.1773C217.055 38.2268 216.872 38.2762 216.694 38.3257C216.516 38.3752 216.362 38.4197 216.234 38.4593C216.234 38.2218 216.293 38.0289 216.412 37.8805C216.531 37.732 216.644 37.6232 216.753 37.5539C217.228 37.2472 217.664 36.9405 218.059 36.6337C218.465 36.3171 218.826 35.9807 219.143 35.6244C219.469 35.2583 219.756 34.8625 220.004 34.4371C220.261 34.0017 220.484 33.5169 220.672 32.9825C220.741 32.8044 220.8 32.6214 220.85 32.4334C220.909 32.2454 220.964 32.0574 221.013 31.8694C221.023 31.81 221.043 31.7309 221.072 31.6319C221.112 31.533 221.156 31.439 221.206 31.3499C221.265 31.251 221.335 31.1669 221.414 31.0976C221.493 31.0283 221.592 30.9937 221.711 30.9937C221.661 31.0729 221.622 31.1817 221.592 31.3202C221.572 31.4587 221.552 31.5725 221.532 31.6616C221.424 32.186 221.31 32.6857 221.191 33.1606C221.082 33.6356 220.964 34.0809 220.835 34.4964Z" fill="black"/>
<path d="M192.525 35.4445C192.713 35.5137 192.896 35.5929 193.074 35.6819C193.262 35.771 193.43 35.8699 193.579 35.9788C193.727 36.0975 193.846 36.2261 193.935 36.3647C194.034 36.5032 194.084 36.6566 194.084 36.8248C194.084 36.993 194.039 37.1661 193.95 37.3443C193.871 37.5224 193.767 37.6906 193.638 37.8489C193.519 38.0171 193.386 38.1705 193.237 38.309C193.099 38.4475 192.97 38.5564 192.852 38.6355C192.782 38.5465 192.673 38.4426 192.525 38.3238C192.387 38.215 192.228 38.1062 192.05 37.9973C191.872 37.8885 191.684 37.7895 191.486 37.7005C191.288 37.6114 191.1 37.5422 190.922 37.4927C191.08 37.2849 191.229 37.0919 191.367 36.9138C191.496 36.7357 191.625 36.5626 191.753 36.3944C191.882 36.236 192.011 36.0777 192.139 35.9194C192.258 35.771 192.387 35.6127 192.525 35.4445ZM187.139 31.2015C187.228 30.964 187.352 30.7315 187.51 30.5039C187.678 30.2763 187.861 30.0685 188.059 29.8805C188.257 29.6925 188.46 29.5293 188.668 29.3907C188.875 29.2522 189.078 29.1483 189.276 29.0791C189.593 28.9702 189.964 28.8861 190.389 28.8267C190.815 28.7674 191.225 28.7377 191.621 28.7377C191.958 28.7377 192.289 28.7476 192.616 28.7674C192.942 28.7872 193.234 28.8366 193.491 28.9158C193.749 28.9851 193.956 29.0889 194.115 29.2275C194.283 29.3561 194.367 29.5392 194.367 29.7766C194.367 29.9844 194.308 30.1873 194.189 30.3852C194.08 30.5732 193.937 30.7513 193.758 30.9195C193.59 31.0778 193.407 31.2312 193.209 31.3796C193.011 31.5181 192.828 31.6418 192.66 31.7506C191.789 32.3344 191.023 32.8786 190.36 33.3833C189.707 33.8879 189.182 34.4173 188.786 34.9714C188.41 35.5057 188.123 36.0598 187.926 36.6337C187.728 37.2076 187.629 37.7617 187.629 38.296C187.629 38.9095 187.728 39.4438 187.926 39.899C188.133 40.3541 188.41 40.7302 188.757 41.027C189.113 41.3238 189.524 41.5415 189.989 41.68C190.464 41.8285 190.968 41.9027 191.502 41.9027C192.156 41.9027 192.789 41.8037 193.402 41.6058C194.026 41.4178 194.614 41.1507 195.168 40.8044C195.723 40.458 196.232 40.0375 196.697 39.5428C197.162 39.0579 197.563 38.5187 197.899 37.925C197.929 37.8656 197.964 37.7964 198.003 37.7172C198.053 37.638 198.107 37.5688 198.167 37.5094C198.226 37.4401 198.295 37.3907 198.374 37.361C198.454 37.3214 198.548 37.3115 198.656 37.3313C198.419 38.3604 198.018 39.3449 197.454 40.2849C196.89 41.2249 196.227 42.0511 195.465 42.7635C194.703 43.4858 193.877 44.0597 192.987 44.4852C192.106 44.9107 191.22 45.1234 190.33 45.1234C189.578 45.1234 188.93 44.9997 188.386 44.7524C187.841 44.505 187.391 44.1636 187.035 43.7283C186.679 43.3028 186.412 42.7982 186.234 42.2144C186.065 41.6306 185.981 41.0072 185.981 40.3443C185.991 39.3845 186.135 38.4692 186.412 37.5985C186.689 36.7178 187.075 35.8867 187.569 35.105C188.074 34.3233 188.668 33.5911 189.35 32.9083C190.033 32.2256 190.78 31.5923 191.592 31.0085C191.473 30.969 191.359 30.9343 191.25 30.9046C191.141 30.8651 191.013 30.8354 190.864 30.8156C190.726 30.7958 190.562 30.781 190.374 30.7711C190.196 30.7612 189.984 30.7612 189.736 30.7711C189.499 30.781 189.256 30.8007 189.009 30.8304C188.762 30.8502 188.524 30.8799 188.297 30.9195C188.069 30.9591 187.856 31.0036 187.658 31.0531C187.46 31.1025 187.287 31.152 187.139 31.2015ZM192.547 16.2534C192.735 16.3227 192.918 16.4018 193.096 16.4909C193.284 16.5799 193.452 16.6838 193.601 16.8026C193.749 16.9114 193.868 17.0351 193.957 17.1736C194.056 17.3121 194.105 17.4655 194.105 17.6337C194.105 17.8019 194.061 17.9751 193.972 18.1532C193.893 18.3313 193.789 18.5045 193.66 18.6727C193.541 18.831 193.408 18.9794 193.259 19.1179C193.121 19.2565 192.992 19.3653 192.874 19.4445C192.804 19.3554 192.7 19.2565 192.562 19.1476C192.413 19.0289 192.25 18.9151 192.072 18.8062C191.894 18.6974 191.706 18.5985 191.508 18.5094C191.31 18.4203 191.122 18.3511 190.944 18.3016C191.102 18.0938 191.251 17.9009 191.389 17.7228C191.518 17.5447 191.647 17.3765 191.775 17.2181C191.904 17.0499 192.032 16.8916 192.161 16.7432C192.28 16.5849 192.408 16.4216 192.547 16.2534ZM194.057 27.5113C193.938 27.5113 193.835 27.4964 193.745 27.4668C193.666 27.4272 193.582 27.3876 193.493 27.348C193.414 27.3084 193.32 27.2738 193.211 27.2441C193.112 27.2045 192.984 27.1848 192.825 27.1848C192.528 27.1848 192.182 27.259 191.786 27.4074C191.391 27.5558 190.995 27.7389 190.599 27.9566C190.213 28.1742 189.847 28.4068 189.501 28.6541C189.164 28.9015 188.892 29.1241 188.684 29.322C188.427 29.7871 188.11 30.2175 187.734 30.6133C187.358 30.9992 186.963 31.2762 186.547 31.4445C186.676 30.9596 186.893 30.4698 187.2 29.9751C187.507 29.4705 187.868 28.9856 188.284 28.5206C188.709 28.0456 189.169 27.6003 189.664 27.1848C190.169 26.7692 190.673 26.408 191.178 26.1013C191.682 25.7945 192.172 25.5521 192.647 25.374C193.132 25.1959 193.567 25.1069 193.953 25.1069C194.042 25.5224 194.082 25.9281 194.072 26.3239C194.062 26.7098 194.057 27.1056 194.057 27.5113ZM193.654 25.04C193.783 25.1884 193.981 25.2627 194.248 25.2627C194.486 25.2627 194.723 25.1835 194.96 25.0252C195.208 24.8669 195.386 24.5997 195.495 24.2237C195.574 23.9269 195.618 23.5608 195.628 23.1254C195.638 22.69 195.628 22.2398 195.599 21.7748C195.579 21.3097 195.549 20.8496 195.51 20.3944C195.48 19.9294 195.465 19.5187 195.465 19.1625C195.465 18.8063 195.485 18.4847 195.524 18.1978C195.564 17.9108 195.628 17.6041 195.717 17.2776C195.816 16.9412 195.94 16.5553 196.088 16.1199C196.247 15.6746 196.445 15.1255 196.682 14.4724C196.89 13.8886 197.221 13.3197 197.677 12.7656C198.132 12.2115 198.651 11.6821 199.235 11.1774C199.829 10.6629 200.452 10.1682 201.105 9.69323C201.768 9.21828 202.411 8.77302 203.035 8.35744L203.806 7.83796C203.935 7.28386 204.138 6.76438 204.415 6.27954C204.702 5.79469 205.028 5.33953 205.395 4.91406C205.761 4.47869 206.156 4.06805 206.582 3.68216C207.007 3.29626 207.433 2.92521 207.858 2.569C208.284 2.20289 208.694 1.85163 209.09 1.5152C209.496 1.16889 209.852 0.822569 210.159 0.476252C210.159 1.09962 210.075 1.63889 209.907 2.09405C209.738 2.54921 209.516 2.88068 209.239 3.08847C209.051 3.24679 208.813 3.44468 208.526 3.68216C208.239 3.90974 207.928 4.16205 207.591 4.43911C207.255 4.70627 206.908 4.98827 206.552 5.28511C206.206 5.57206 205.879 5.85406 205.573 6.13111C205.266 6.40817 204.989 6.67038 204.741 6.91775C204.504 7.16512 204.331 7.37786 204.222 7.55596C204.647 7.26901 205.132 6.93754 205.677 6.56154C206.221 6.18554 206.78 5.79964 207.354 5.40385C207.928 4.99816 208.492 4.59743 209.046 4.20163C209.61 3.79595 210.124 3.415 210.589 3.05879C211.054 2.70257 211.44 2.39089 211.747 2.12373C212.064 1.84668 212.266 1.63394 212.355 1.48552C212.355 2.06931 212.227 2.60858 211.97 3.10331C211.722 3.58816 211.406 4.04332 211.02 4.46879C210.644 4.88437 210.223 5.26532 209.758 5.61164C209.303 5.95796 208.868 6.27459 208.452 6.56154C208.323 6.65059 208.071 6.82375 207.695 7.08101C207.319 7.32838 206.864 7.63512 206.33 8.00123C205.795 8.36733 205.207 8.77302 204.563 9.21828C203.92 9.65365 203.267 10.1039 202.604 10.5689C201.951 11.034 201.313 11.4941 200.69 11.9492C200.066 12.3945 199.507 12.8101 199.012 13.196C198.518 13.5819 198.112 13.9183 197.795 14.2053C197.479 14.4922 197.301 14.7 197.261 14.8286C197.122 15.2739 197.028 15.823 196.979 16.4761C196.93 17.1193 196.91 17.7822 196.92 18.465C196.92 18.9597 196.92 19.4643 196.92 19.9789C196.92 20.4934 196.905 21.0079 196.875 21.5224C196.845 22.037 196.786 22.5465 196.697 23.0512C196.618 23.5459 196.494 24.0308 196.326 24.5057C196.207 24.8322 196.059 25.1687 195.881 25.515C195.703 25.8613 195.5 26.1779 195.272 26.4649C195.054 26.7518 194.812 26.9893 194.545 27.1773C194.288 27.3554 194.025 27.4445 193.758 27.4445C193.55 27.2466 193.417 27.0239 193.358 26.7766C193.288 26.5193 193.264 26.2719 193.283 26.0345C193.303 25.797 193.353 25.5892 193.432 25.4111C193.501 25.2231 193.575 25.0994 193.654 25.04Z" fill="black"/>
<path d="M167.641 34.4964C167.542 34.8131 167.423 35.1742 167.285 35.5799C167.156 35.9856 166.988 36.3666 166.78 36.7228C166.582 37.079 166.34 37.3808 166.053 37.6281C165.766 37.8755 165.424 37.9992 165.029 37.9992C164.91 37.9992 164.761 38.019 164.583 38.0586C164.415 38.0882 164.237 38.1278 164.049 38.1773C163.861 38.2268 163.678 38.2762 163.5 38.3257C163.322 38.3752 163.168 38.4197 163.04 38.4593C163.04 38.2218 163.099 38.0289 163.218 37.8805C163.337 37.732 163.45 37.6232 163.559 37.5539C164.034 37.2472 164.47 36.9405 164.865 36.6337C165.271 36.3171 165.632 35.9807 165.949 35.6244C166.275 35.2583 166.562 34.8625 166.81 34.4371C167.067 34.0017 167.29 33.5169 167.478 32.9825C167.547 32.8044 167.606 32.6214 167.656 32.4334C167.715 32.2454 167.769 32.0574 167.819 31.8694C167.829 31.81 167.849 31.7309 167.878 31.6319C167.918 31.533 167.962 31.439 168.012 31.3499C168.071 31.251 168.14 31.1669 168.22 31.0976C168.299 31.0283 168.398 30.9937 168.516 30.9937C168.467 31.0729 168.427 31.1817 168.398 31.3202C168.378 31.4587 168.358 31.5725 168.338 31.6616C168.23 32.186 168.116 32.6857 167.997 33.1606C167.888 33.6356 167.769 34.0809 167.641 34.4964ZM169.706 34.6745C169.706 33.7049 169.75 32.7451 169.84 31.7952C169.938 30.8453 170.052 29.8904 170.181 28.9306C170.201 28.7624 170.22 28.614 170.24 28.4854C170.27 28.3567 170.31 28.2429 170.359 28.144C170.596 27.6987 170.819 27.2584 171.027 26.823C171.245 26.3778 171.452 25.888 171.65 25.3537C171.789 25.413 171.828 25.6851 171.769 26.17C171.71 26.7043 171.645 27.2733 171.576 27.8768C171.507 28.4804 171.442 29.0889 171.383 29.7024C171.324 30.306 171.274 30.8947 171.235 31.4686C171.195 32.0425 171.175 32.567 171.175 33.0419C171.175 33.2398 171.126 33.4328 171.027 33.6208C170.928 33.7989 170.804 33.9621 170.656 34.1105C170.517 34.259 170.359 34.3827 170.181 34.4816C170.013 34.5805 169.854 34.6449 169.706 34.6745ZM172.757 41.9788C172.945 42.048 173.128 42.1272 173.306 42.2163C173.494 42.3152 173.663 42.4191 173.811 42.5279C173.959 42.6467 174.078 42.7753 174.167 42.9138C174.266 43.0524 174.316 43.2008 174.316 43.3591C174.316 43.5273 174.271 43.7054 174.182 43.8934C174.093 44.0814 173.974 44.2546 173.826 44.4129C173.687 44.5811 173.529 44.7147 173.351 44.8136C173.183 44.9225 173.015 44.9769 172.846 44.9769C172.777 44.9076 172.683 44.8285 172.564 44.7394C172.455 44.6504 172.327 44.5613 172.178 44.4723C172.04 44.3832 171.896 44.2991 171.748 44.2199C171.6 44.1507 171.451 44.1012 171.303 44.0715C171.273 44.2298 171.199 44.403 171.08 44.591C170.961 44.779 170.818 44.9522 170.65 45.1105C170.481 45.2787 170.303 45.4172 170.115 45.5261C169.927 45.6349 169.754 45.6893 169.596 45.6893C169.507 45.6102 169.393 45.5162 169.255 45.4073C169.116 45.3084 168.968 45.2094 168.809 45.1105C168.651 45.0115 168.488 44.9225 168.319 44.8433C168.151 44.7642 168.003 44.7097 167.874 44.68C168.033 44.4723 168.176 44.2793 168.305 44.1012C168.433 43.933 168.562 43.7697 168.691 43.6114C168.809 43.4531 168.933 43.2948 169.062 43.1365C169.19 42.9781 169.329 42.8099 169.477 42.6318C169.665 42.7011 169.858 42.7803 170.056 42.8693C170.244 42.9584 170.422 43.0524 170.59 43.1513C170.759 43.2601 170.907 43.3739 171.036 43.4927C171.154 43.6114 171.233 43.74 171.273 43.8786C171.53 43.5323 171.773 43.2107 172 42.9138C172.228 42.6269 172.48 42.3152 172.757 41.9788ZM175.058 36.27C174.87 36.27 174.722 36.2453 174.613 36.1958C174.504 36.1563 174.366 36.1365 174.197 36.1365C173.92 36.1365 173.663 36.2948 173.426 36.6114C173.277 36.8093 173.129 37.0023 172.98 37.1903C172.842 37.3783 172.688 37.5465 172.52 37.6949C172.352 37.8433 172.169 37.9621 171.971 38.0511C171.783 38.1501 171.565 38.1995 171.318 38.1995C171.021 38.1995 170.739 38.1303 170.472 37.9917C170.205 37.8532 169.967 37.6306 169.76 37.3238C169.562 37.027 169.403 36.6411 169.285 36.1661C169.166 35.6912 169.106 35.1173 169.106 34.4445C169.136 34.1278 169.2 33.8557 169.299 33.6281C169.408 33.4006 169.532 33.2175 169.67 33.079C169.809 32.9405 169.957 32.8514 170.116 32.8118C170.284 32.7722 170.437 32.7772 170.576 32.8267C170.576 33.5391 170.739 34.1031 171.066 34.5187C171.392 34.9441 171.803 35.1569 172.298 35.1569C172.505 35.1569 172.723 35.1124 172.951 35.0233C173.178 34.9441 173.406 34.8056 173.633 34.6077C173.732 34.5286 173.821 34.4445 173.9 34.3554C173.98 34.2664 174.064 34.1872 174.153 34.1179C174.252 34.0388 174.361 33.9794 174.479 33.9398C174.608 33.8904 174.766 33.8656 174.954 33.8656C175.073 33.9349 175.162 34.0635 175.221 34.2515C175.291 34.4296 175.33 34.6374 175.34 34.8749C175.36 35.1124 175.345 35.3548 175.296 35.6021C175.246 35.8594 175.167 36.082 175.058 36.27ZM179.531 34.0846C179.294 34.3715 179.026 34.5842 178.73 34.7228C178.433 34.8514 178.126 34.9157 177.809 34.9157C177.562 35.2225 177.28 35.4401 176.963 35.5688C176.647 35.6974 176.33 35.7617 176.014 35.7617C175.816 35.9794 175.613 36.1476 175.405 36.2664C175.197 36.3851 174.984 36.4445 174.767 36.4445C174.628 36.3059 174.529 36.1179 174.47 35.8805C174.411 35.643 174.386 35.4055 174.396 35.168C174.396 34.9207 174.42 34.6931 174.47 34.4853C174.519 34.2775 174.584 34.1291 174.663 34.04C174.752 34.1291 174.856 34.2033 174.975 34.2627C175.103 34.322 175.247 34.3468 175.405 34.3369C175.84 34.327 176.182 34.1043 176.429 33.669C176.498 33.5502 176.578 33.4909 176.667 33.4909C176.766 33.6591 176.904 33.7432 177.082 33.7432C177.339 33.7432 177.532 33.6541 177.661 33.476C177.79 33.2979 177.894 33.1297 177.973 32.9714C178.002 32.9219 178.037 32.8724 178.077 32.823C178.116 32.7735 178.176 32.7488 178.255 32.7488C178.334 32.8873 178.467 32.9566 178.655 32.9566C178.794 32.9566 178.913 32.9219 179.012 32.8527C179.111 32.7834 179.2 32.6943 179.279 32.5855C179.358 32.4767 179.422 32.3629 179.472 32.2441C179.531 32.1155 179.586 31.9968 179.635 31.8879C179.665 31.8187 179.694 31.7642 179.724 31.7247C179.754 31.6851 179.793 31.6653 179.843 31.6653C179.922 31.8236 180.06 31.9028 180.258 31.9028C180.347 32.0512 180.392 32.2392 180.392 32.4668C180.392 32.6943 180.357 32.9219 180.288 33.1495C180.229 33.3672 180.13 33.57 179.991 33.758C179.863 33.9361 179.709 34.045 179.531 34.0846ZM180.239 39.4445C180.427 39.5137 180.61 39.5929 180.788 39.6819C180.976 39.771 181.144 39.8699 181.292 39.9788C181.441 40.0975 181.56 40.2261 181.649 40.3647C181.748 40.5032 181.797 40.6566 181.797 40.8248C181.797 40.993 181.753 41.1661 181.664 41.3443C181.584 41.5224 181.48 41.6906 181.352 41.8489C181.233 42.0171 181.099 42.1705 180.951 42.309C180.813 42.4475 180.684 42.5564 180.565 42.6355C180.496 42.5465 180.387 42.4426 180.239 42.3238C180.1 42.215 179.942 42.1062 179.764 41.9973C179.586 41.8885 179.398 41.7895 179.2 41.7005C179.002 41.6114 178.814 41.5422 178.636 41.4927C178.794 41.2849 178.942 41.0919 179.081 40.9138C179.21 40.7357 179.338 40.5626 179.467 40.3944C179.595 40.236 179.724 40.0777 179.853 39.9194C179.971 39.771 180.1 39.6127 180.239 39.4445ZM181.999 26.7562C181.88 27.2015 181.816 27.6566 181.806 28.1217C181.796 28.5769 181.791 29.0864 181.791 29.6504C181.791 30.0759 181.727 30.5459 181.598 31.0604C181.48 31.5651 181.302 32.0499 181.064 32.515C180.827 32.9701 180.53 33.3758 180.174 33.732C179.817 34.0882 179.407 34.3257 178.942 34.4445C178.942 34.1872 178.957 33.9299 178.986 33.6727C179.016 33.4055 179.06 33.168 179.12 32.9602C179.189 32.7525 179.268 32.5842 179.357 32.4556C179.446 32.327 179.55 32.2627 179.669 32.2627C179.857 32.2627 180.025 32.2082 180.174 32.0994C180.322 31.9807 180.436 31.8421 180.515 31.6838C180.515 31.3771 180.505 31.1248 180.485 30.9269C180.465 30.7191 180.446 30.536 180.426 30.3777C180.406 30.2194 180.386 30.071 180.367 29.9324C180.347 29.784 180.337 29.6208 180.337 29.4426C180.337 29.1953 180.391 28.9875 180.5 28.8193C180.609 28.661 180.703 28.5175 180.782 28.3889C180.861 28.2503 180.936 28.1168 181.005 27.9881C181.084 27.8496 181.158 27.7061 181.227 27.5577C181.297 27.3994 181.371 27.2213 181.45 27.0234C181.529 26.8354 181.613 26.7315 181.702 26.7117C181.801 26.682 181.9 26.6968 181.999 26.7562Z" fill="black"/>
</svg>
